{
copyright = "Copyright (c) 2011 by vernon adams. All rights reserved.";
customParameters = (
{
name = openTypeHeadFlags;
value = (
    0,
    1
);
},
{
name = openTypeHeadLowestRecPPEM;
value = 3;
},
{
name = openTypeHheaCaretOffset;
value = 0;
},
{
name = openTypeHheaCaretSlopeRise;
value = 1;
},
{
name = openTypeHheaCaretSlopeRun;
value = 0;
},
{
name = openTypeNameDescription;
value = "Copyright (c) 2011 by vernon adams. All rights reserved.";
},
{
name = openTypeNameUniqueID;
value = "vernonadams: Muli Light Italic: 2011";
},
{
name = openTypeNameVersion;
value = "Version 1.000";
},
{
name = openTypeOS2CodePageRanges;
value = (
    0,
    1,
    32
);
},
{
name = openTypeOS2Panose;
value = (
    2,
    0,
    5,
    3,
    0,
    0,
    0,
    9,
    0,
    4
);
},
{
name = openTypeOS2Selection;
value = (
);
},
{
name = openTypeOS2StrikeoutPosition;
value = 615;
},
{
name = openTypeOS2StrikeoutSize;
value = 119;
},
{
name = openTypeOS2SubscriptXOffset;
value = 0;
},
{
name = openTypeOS2SubscriptXSize;
value = 1331;
},
{
name = openTypeOS2SubscriptYOffset;
value = 153;
},
{
name = openTypeOS2SubscriptYSize;
value = 1228;
},
{
name = openTypeOS2SuperscriptXOffset;
value = 0;
},
{
name = openTypeOS2SuperscriptXSize;
value = 1331;
},
{
name = openTypeOS2SuperscriptYOffset;
value = 716;
},
{
name = openTypeOS2SuperscriptYSize;
value = 1228;
},
{
name = openTypeOS2Type;
value = (
);
},
{
name = openTypeOS2UnicodeRanges;
value = (
    0,
    1,
    2
);
},
{
name = openTypeOS2VendorID;
value = newt;
},
{
name = postscriptDefaultWidthX;
value = 503;
},
{
name = postscriptFamilyBlues;
value = (
);
},
{
name = postscriptFamilyOtherBlues;
value = (
);
},
{
name = postscriptFontName;
value = Muli;
},
{
name = postscriptForceBold;
value = 0;
},
{
name = postscriptFullName;
value = Muli;
},
{
name = postscriptIsFixedPitch;
value = 0;
},
{
name = styleMapFamilyName;
value = Muli;
},
{
name = styleMapStyleName;
value = regular;
},
{
name = styleName;
value = Regular;
},
{

glyphs = (
{
glyphname = A;
layers = (
{
anchors = (
{
name = ogonek;
position = "{1166, 10}";
},
{
name = top;
position = "{648, 0}";
}
);
layerId = "F26D4BF5-BF3F-42E5-900E-6C8346FBF199";
name = Regular;
paths = (
{
closed = 1;
nodes = (
"-9 0 LINE",
"177 0 LINE",
"328 389 LINE",
"957 389 LINE",
"1114 0 LINE",
"1305 0 LINE",
"740 1456 LINE",
"555 1456 LINE"
);
},
{
closed = 1;
nodes = (
"378 535 LINE",
"593 1149 LINE SMOOTH",
"645 1298 LINE",
"698 1150 LINE",
"903 535 LINE"
);
}
);
width = 1296;
}
);
unicode = 0041;
},
{
glyphname = Aacute;
layers = (
{
layerId = "F26D4BF5-BF3F-42E5-900E-6C8346FBF199";
name = Regular;
paths = (
{
closed = 1;
nodes = (
"13 0 LINE",
"199 0 LINE",
"355 397 LINE",
"1053 397 LINE",
"1216 0 LINE",
"1407 0 LINE",
"802 1456 LINE",
"617 1456 LINE"
);
},
{
closed = 1;
nodes = (
"410 545 LINE",
"655 1149 LINE SMOOTH",
"670 1186 OFFCURVE",
"707 1298 OFFCURVE",
"707 1298 CURVE",
"707 1298 OFFCURVE",
"741 1200 OFFCURVE",
"760 1150 CURVE SMOOTH",
"994 545 LINE"
);
},
{
closed = 1;
nodes = (
"493 1602 LINE",
"623 1602 LINE",
"931 1922 LINE",
"719 1922 LINE"
);
}
);
width = 1425;
}
);
unicode = 00C1;
},
{
glyphname = Abreve;
layers = (
{
layerId = "F26D4BF5-BF3F-42E5-900E-6C8346FBF199";
name = Regular;
paths = (
{
closed = 1;
nodes = (
"13 0 LINE",
"199 0 LINE",
"355 397 LINE",
"1053 397 LINE",
"1216 0 LINE",
"1407 0 LINE",
"802 1456 LINE",
"617 1456 LINE"
);
},
{
closed = 1;
nodes = (
"443 1723 OFFCURVE",
"549 1648 OFFCURVE",
"714 1648 CURVE SMOOTH",
"871 1648 OFFCURVE",
"982 1726 OFFCURVE",
"994 1884 CURVE",
"908 1884 LINE",
"886 1793 OFFCURVE",
"795 1755 OFFCURVE",
"707 1755 CURVE SMOOTH",
"619 1755 OFFCURVE",
"533 1788 OFFCURVE",
"517 1884 CURVE",
"430 1884 LINE"
);
},
{
closed = 1;
nodes = (
"410 545 LINE",
"655 1149 LINE SMOOTH",
"670 1186 OFFCURVE",
"707 1298 OFFCURVE",
"707 1298 CURVE",
"707 1298 OFFCURVE",
"741 1200 OFFCURVE",
"760 1150 CURVE SMOOTH",
"994 545 LINE"
);
}
);
width = 1425;
}
);
unicode = 0102;
},
{
glyphname = Acircumflex;
layers = (
{
layerId = "F26D4BF5-BF3F-42E5-900E-6C8346FBF199";
name = Regular;
paths = (
{
closed = 1;
nodes = (
"13 0 LINE",
"199 0 LINE",
"355 397 LINE",
"1053 397 LINE",
"1216 0 LINE",
"1407 0 LINE",
"802 1456 LINE",
"617 1456 LINE"
);
},
{
closed = 1;
nodes = (
"405 1600 LINE",
"531 1600 LINE",
"709 1816 LINE",
"887 1600 LINE",
"1019 1600 LINE",
"790 1924 LINE",
"633 1924 LINE"
);
},
{
closed = 1;
nodes = (
"410 545 LINE",
"655 1149 LINE SMOOTH",
"670 1186 OFFCURVE",
"707 1298 OFFCURVE",
"707 1298 CURVE",
"707 1298 OFFCURVE",
"741 1200 OFFCURVE",
"760 1150 CURVE SMOOTH",
"994 545 LINE"
);
}
);
width = 1425;
}
);
unicode = 00C2;
},
{
glyphname = Adieresis;
layers = (
{
layerId = "F26D4BF5-BF3F-42E5-900E-6C8346FBF199";
name = Regular;
paths = (
{
closed = 1;
nodes = (
"13 0 LINE",
"199 0 LINE",
"355 397 LINE",
"1053 397 LINE",
"1216 0 LINE",
"1407 0 LINE",
"802 1456 LINE",
"617 1456 LINE"
);
},
{
closed = 1;
nodes = (
"410 545 LINE",
"655 1149 LINE SMOOTH",
"670 1186 OFFCURVE",
"707 1298 OFFCURVE",
"707 1298 CURVE",
"707 1298 OFFCURVE",
"741 1200 OFFCURVE",
"760 1150 CURVE SMOOTH",
"994 545 LINE"
);
},
{
closed = 1;
nodes = (
"463 1613 LINE",
"627 1613 LINE",
"627 1776 LINE",
"463 1776 LINE"
);
},
{
closed = 1;
nodes = (
"795 1613 LINE",
"959 1613 LINE",
"959 1776 LINE",
"795 1776 LINE"
);
}
);
width = 1425;
}
);
unicode = 00C4;
},
{
glyphname = Agrave;
layers = (
{
layerId = "F26D4BF5-BF3F-42E5-900E-6C8346FBF199";
name = Regular;
paths = (
{
closed = 1;
nodes = (
"13 0 LINE",
"199 0 LINE",
"355 397 LINE",
"1053 397 LINE",
"1216 0 LINE",
"1407 0 LINE",
"802 1456 LINE",
"617 1456 LINE"
);
},
{
closed = 1;
nodes = (
"410 545 LINE",
"655 1149 LINE SMOOTH",
"670 1186 OFFCURVE",
"707 1298 OFFCURVE",
"707 1298 CURVE",
"707 1298 OFFCURVE",
"741 1200 OFFCURVE",
"760 1150 CURVE SMOOTH",
"994 545 LINE"
);
},
{
closed = 1;
nodes = (
"814 1602 LINE",
"943 1602 LINE",
"696 1922 LINE",
"482 1922 LINE"
);
}
);
width = 1425;
}
);
unicode = 00C0;
},
{
glyphname = Amacron;
layers = (
{
layerId = "F26D4BF5-BF3F-42E5-900E-6C8346FBF199";
name = Regular;
paths = (
{
closed = 1;
nodes = (
"13 0 LINE",
"199 0 LINE",
"355 397 LINE",
"1053 397 LINE",
"1216 0 LINE",
"1407 0 LINE",
"802 1456 LINE",
"617 1456 LINE"
);
},
{
closed = 1;
nodes = (
"410 545 LINE",
"655 1149 LINE SMOOTH",
"670 1186 OFFCURVE",
"707 1298 OFFCURVE",
"707 1298 CURVE",
"707 1298 OFFCURVE",
"741 1200 OFFCURVE",
"760 1150 CURVE SMOOTH",
"994 545 LINE"
);
},
{
closed = 1;
nodes = (
"427 1613 LINE",
"998 1613 LINE",
"997 1747 LINE",
"426 1747 LINE"
);
}
);
width = 1425;
}
);
unicode = 0100;
},
{
glyphname = Aogonek;
layers = (
{
layerId = "F26D4BF5-BF3F-42E5-900E-6C8346FBF199";
name = Regular;
paths = (
{
closed = 1;
nodes = (
"13 0 LINE",
"199 0 LINE",
"355 397 LINE",
"1053 397 LINE",
"1216 0 LINE",
"1407 0 LINE",
"802 1456 LINE",
"617 1456 LINE"
);
},
{
closed = 1;
nodes = (
"1080 -331 OFFCURVE",
"1176 -390 OFFCURVE",
"1298 -390 CURVE SMOOTH",
"1358 -390 OFFCURVE",
"1435 -377 OFFCURVE",
"1475 -361 CURVE",
"1475 -250 LINE",
"1420 -271 OFFCURVE",
"1382 -281 OFFCURVE",
"1321 -281 CURVE SMOOTH",
"1273 -281 OFFCURVE",
"1221 -249 OFFCURVE",
"1221 -199 CURVE SMOOTH",
"1221 -136 OFFCURVE",
"1307 -71 OFFCURVE",
"1424 0 CURVE",
"1295 12 LINE",
"1186 -42 OFFCURVE",
"1080 -123 OFFCURVE",
"1080 -225 CURVE SMOOTH"
);
},
{
closed = 1;
nodes = (
"410 545 LINE",
"655 1149 LINE SMOOTH",
"670 1186 OFFCURVE",
"707 1298 OFFCURVE",
"707 1298 CURVE",
"707 1298 OFFCURVE",
"741 1200 OFFCURVE",
"760 1150 CURVE SMOOTH",
"994 545 LINE"
);
}
);
width = 1425;
}
);
unicode = 0104;
},
{
glyphname = Aring;
layers = (
{
layerId = "F26D4BF5-BF3F-42E5-900E-6C8346FBF199";
name = Regular;
paths = (
{
closed = 1;
nodes = (
"13 0 LINE",
"199 0 LINE",
"355 397 LINE",
"1053 397 LINE",
"1216 0 LINE",
"1407 0 LINE",
"802 1456 LINE",
"617 1456 LINE"
);
},
{
closed = 1;
nodes = (
"410 545 LINE",
"655 1149 LINE SMOOTH",
"670 1186 OFFCURVE",
"707 1298 OFFCURVE",
"707 1298 CURVE",
"707 1298 OFFCURVE",
"741 1200 OFFCURVE",
"760 1150 CURVE SMOOTH",
"994 545 LINE"
);
},
{
closed = 1;
nodes = (
"822 1713 OFFCURVE",
"769 1665 OFFCURVE",
"711 1665 CURVE SMOOTH",
"643 1665 OFFCURVE",
"601 1709 OFFCURVE",
"601 1770 CURVE SMOOTH",
"601 1827 OFFCURVE",
"653 1875 OFFCURVE",
"711 1875 CURVE SMOOTH",
"773 1875 OFFCURVE",
"822 1828 OFFCURVE",
"822 1770 CURVE SMOOTH"
);
},
{
closed = 1;
nodes = (
"502 1662 OFFCURVE",
"596 1579 OFFCURVE",
"713 1579 CURVE SMOOTH",
"826 1579 OFFCURVE",
"922 1664 OFFCURVE",
"922 1770 CURVE SMOOTH",
"922 1875 OFFCURVE",
"830 1960 OFFCURVE",
"712 1960 CURVE SMOOTH",
"597 1960 OFFCURVE",
"502 1879 OFFCURVE",
"502 1769 CURVE SMOOTH"
);
}
);
width = 1425;
}
);
unicode = 00C5;
},
{
glyphname = Atilde;
layers = (
{
layerId = "F26D4BF5-BF3F-42E5-900E-6C8346FBF199";
name = Regular;
paths = (
{
closed = 1;
nodes = (
"13 0 LINE",
"199 0 LINE",
"355 397 LINE",
"1053 397 LINE",
"1216 0 LINE",
"1407 0 LINE",
"802 1456 LINE",
"617 1456 LINE"
);
},
{
closed = 1;
nodes = (
"477 1843 OFFCURVE",
"401 1758 OFFCURVE",
"390 1633 CURVE",
"495 1633 LINE",
"502 1690 OFFCURVE",
"533 1718 OFFCURVE",
"586 1718 CURVE SMOOTH",
"661 1718 OFFCURVE",
"760 1650 OFFCURVE",
"839 1650 CURVE SMOOTH",
"954 1650 OFFCURVE",
"1022 1745 OFFCURVE",
"1034 1865 CURVE",
"926 1865 LINE",
"918 1806 OFFCURVE",
"884 1775 OFFCURVE",
"839 1775 CURVE SMOOTH",
"762 1775 OFFCURVE",
"682 1843 OFFCURVE",
"589 1843 CURVE SMOOTH"
);
},
{
closed = 1;
nodes = (
"410 545 LINE",
"655 1149 LINE SMOOTH",
"670 1186 OFFCURVE",
"707 1298 OFFCURVE",
"707 1298 CURVE",
"707 1298 OFFCURVE",
"741 1200 OFFCURVE",
"760 1150 CURVE SMOOTH",
"994 545 LINE"
);
}
);
width = 1425;
}
);
unicode = 00C3;
},
{
glyphname = AE;
layers = (
{
anchors = (
{
name = top;
position = "{1014, 0}";
}
);
layerId = "F26D4BF5-BF3F-42E5-900E-6C8346FBF199";
name = Regular;
paths = (
{
closed = 1;
nodes = (
"5 0 LINE",
"201 0 LINE",
"427 398 LINE",
"1073 398 LINE",
"1104 0 LINE",
"1901 0 LINE",
"1898 148 LINE",
"1257 148 LINE",
"1216 672 LINE",
"1837 672 LINE",
"1834 820 LINE",
"1197 820 LINE",
"1159 1308 LINE",
"1878 1308 LINE",
"1875 1456 LINE",
"836 1456 LINE"
);
},
{
closed = 1;
nodes = (
"506 546 LINE",
"944 1308 LINE",
"994 1308 LINE",
"1054 546 LINE"
);
}
);
width = 2028;
}
);
unicode = 00C6;
},
{
glyphname = B;
lastChange = "2012-12-23 16:12:31 +0000";
layers = (
{
layerId = "F26D4BF5-BF3F-42E5-900E-6C8346FBF199";
name = Regular;
paths = (
{
closed = 1;
nodes = (
"183 0 LINE",
"734 0 LINE SMOOTH",
"1054 0 OFFCURVE",
"1218 189 OFFCURVE",
"1218 403 CURVE SMOOTH",
"1218 605 OFFCURVE",
"1081 734 OFFCURVE",
"884 769 CURVE",
"1040 814 OFFCURVE",
"1149 944 OFFCURVE",
"1149 1105 CURVE SMOOTH",
"1149 1443 OFFCURVE",
"760 1456 OFFCURVE",
"497 1456 CURVE SMOOTH",
"183 1456 LINE"
);
},
{
closed = 1;
nodes = (
"355 148 LINE",
"355 680 LINE",
"605 680 LINE SMOOTH",
"884 680 OFFCURVE",
"1036 617 OFFCURVE",
"1036 406 CURVE SMOOTH",
"1036 230 OFFCURVE",
"901 148 OFFCURVE",
"662 148 CURVE SMOOTH"
);
},
{
closed = 1;
nodes = (
"355 828 LINE",
"355 1308 LINE",
"587 1308 LINE SMOOTH",
"802 1308 OFFCURVE",
"968 1272 OFFCURVE",
"968 1077 CURVE SMOOTH",
"968 881 OFFCURVE",
"770 828 OFFCURVE",
"575 828 CURVE SMOOTH"
);
}
);
width = 1324;
}
);
unicode = 0042;
},
{
glyphname = C;
lastChange = "2012-12-23 16:06:51 +0000";
layers = (
{
anchors = (
{
name = bottom;
position = "{707, 0}";
},
{
name = top;
position = "{707, 0}";
}
);
layerId = "F26D4BF5-BF3F-42E5-900E-6C8346FBF199";
name = Regular;
paths = (
{
closed = 1;
nodes = (
"106 309 OFFCURVE",
"344 -23 OFFCURVE",
"783 -23 CURVE SMOOTH",
"994 -23 OFFCURVE",
"1176 28 OFFCURVE",
"1299 127 CURVE",
"1241 268 LINE",
"1132 172 OFFCURVE",
"972 125 OFFCURVE",
"809 125 CURVE SMOOTH",
"451 125 OFFCURVE",
"289 398 OFFCURVE",
"289 712 CURVE SMOOTH",
"289 1022 OFFCURVE",
"462 1334 OFFCURVE",
"831 1334 CURVE SMOOTH",
"967 1334 OFFCURVE",
"1097 1295 OFFCURVE",
"1198 1219 CURVE",
"1263 1329 LINE",
"1142 1437 OFFCURVE",
"993 1483 OFFCURVE",
"812 1483 CURVE SMOOTH",
"369 1483 OFFCURVE",
"106 1125 OFFCURVE",
"106 713 CURVE SMOOTH"
);
}
);
width = 1375;
}
);
unicode = 0043;
},
{
glyphname = Cacute;
layers = (
{
layerId = "F26D4BF5-BF3F-42E5-900E-6C8346FBF199";
name = Regular;
paths = (
{
closed = 1;
nodes = (
"108 309 OFFCURVE",
"346 -23 OFFCURVE",
"785 -23 CURVE SMOOTH",
"996 -23 OFFCURVE",
"1168 28 OFFCURVE",
"1291 127 CURVE",
"1233 268 LINE",
"1124 172 OFFCURVE",
"974 125 OFFCURVE",
"811 125 CURVE SMOOTH",
"453 125 OFFCURVE",
"291 398 OFFCURVE",
"291 712 CURVE SMOOTH",
"291 1022 OFFCURVE",
"464 1334 OFFCURVE",
"833 1334 CURVE SMOOTH",
"969 1334 OFFCURVE",
"1089 1295 OFFCURVE",
"1190 1219 CURVE",
"1255 1329 LINE",
"1134 1437 OFFCURVE",
"995 1483 OFFCURVE",
"814 1483 CURVE SMOOTH",
"371 1483 OFFCURVE",
"108 1125 OFFCURVE",
"108 713 CURVE SMOOTH"
);
},
{
closed = 1;
nodes = (
"480 1602 LINE",
"610 1602 LINE",
"918 1922 LINE",
"706 1922 LINE"
);
}
);
width = 1399;
}
);
unicode = 0106;
},
{
glyphname = Ccaron;
layers = (
{
layerId = "F26D4BF5-BF3F-42E5-900E-6C8346FBF199";
name = Regular;
paths = (
{
closed = 1;
nodes = (
"108 309 OFFCURVE",
"346 -23 OFFCURVE",
"785 -23 CURVE SMOOTH",
"996 -23 OFFCURVE",
"1168 28 OFFCURVE",
"1291 127 CURVE",
"1233 268 LINE",
"1124 172 OFFCURVE",
"974 125 OFFCURVE",
"811 125 CURVE SMOOTH",
"453 125 OFFCURVE",
"291 398 OFFCURVE",
"291 712 CURVE SMOOTH",
"291 1022 OFFCURVE",
"464 1334 OFFCURVE",
"833 1334 CURVE SMOOTH",
"969 1334 OFFCURVE",
"1089 1295 OFFCURVE",
"1190 1219 CURVE",
"1255 1329 LINE",
"1134 1437 OFFCURVE",
"995 1483 OFFCURVE",
"814 1483 CURVE SMOOTH",
"371 1483 OFFCURVE",
"108 1125 OFFCURVE",
"108 713 CURVE SMOOTH"
);
},
{
closed = 1;
nodes = (
"622 1600 LINE",
"778 1600 LINE",
"1016 1923 LINE",
"862 1923 LINE",
"694 1708 LINE",
"530 1923 LINE",
"383 1923 LINE"
);
}
);
width = 1399;
}
);
unicode = 010C;
},
{
glyphname = Ccedilla;
layers = (
{
layerId = "F26D4BF5-BF3F-42E5-900E-6C8346FBF199";
name = Regular;
paths = (
{
closed = 1;
nodes = (
"647 -386 OFFCURVE",
"709 -396 OFFCURVE",
"761 -396 CURVE SMOOTH",
"897 -396 OFFCURVE",
"1002 -346 OFFCURVE",
"1002 -239 CURVE SMOOTH",
"1002 -136 OFFCURVE",
"910 -95 OFFCURVE",
"802 -90 CURVE SMOOTH",
"793 -90 LINE",
"811 17 LINE",
"714 17 LINE",
"681 -173 LINE",
"681 -173 OFFCURVE",
"743 -168 OFFCURVE",
"750 -168 CURVE SMOOTH",
"814 -168 OFFCURVE",
"859 -187 OFFCURVE",
"859 -241 CURVE SMOOTH",
"859 -284 OFFCURVE",
"828 -313 OFFCURVE",
"745 -313 CURVE SMOOTH",
"704 -313 OFFCURVE",
"652 -304 OFFCURVE",
"594 -289 CURVE",
"586 -374 LINE"
);
},
{
closed = 1;
nodes = (
"108 309 OFFCURVE",
"346 -23 OFFCURVE",
"785 -23 CURVE SMOOTH",
"996 -23 OFFCURVE",
"1168 28 OFFCURVE",
"1291 127 CURVE",
"1233 268 LINE",
"1124 172 OFFCURVE",
"974 125 OFFCURVE",
"811 125 CURVE SMOOTH",
"453 125 OFFCURVE",
"291 398 OFFCURVE",
"291 712 CURVE SMOOTH",
"291 1022 OFFCURVE",
"464 1334 OFFCURVE",
"833 1334 CURVE SMOOTH",
"969 1334 OFFCURVE",
"1089 1295 OFFCURVE",
"1190 1219 CURVE",
"1255 1329 LINE",
"1134 1437 OFFCURVE",
"995 1483 OFFCURVE",
"814 1483 CURVE SMOOTH",
"371 1483 OFFCURVE",
"108 1125 OFFCURVE",
"108 713 CURVE SMOOTH"
);
}
);
width = 1399;
}
);
unicode = 00C7;
},
{
glyphname = D;
lastChange = "2012-12-23 16:07:19 +0000";
layers = (
{
anchors = (
{
name = center;
position = "{747, 0}";
},
{
name = top;
position = "{747, 0}";
}
);
layerId = "F26D4BF5-BF3F-42E5-900E-6C8346FBF199";
name = Regular;
paths = (
{
closed = 1;
nodes = (
"355 148 LINE",
"355 1308 LINE",
"513 1308 LINE SMOOTH",
"985 1308 OFFCURVE",
"1212 1159 OFFCURVE",
"1212 721 CURVE SMOOTH",
"1212 387 OFFCURVE",
"1034 148 OFFCURVE",
"610 148 CURVE SMOOTH"
);
},
{
closed = 1;
nodes = (
"183 0 LINE",
"594 0 LINE SMOOTH",
"1109 0 OFFCURVE",
"1394 282 OFFCURVE",
"1394 724 CURVE SMOOTH",
"1394 1290 OFFCURVE",
"1013 1456 OFFCURVE",
"492 1456 CURVE SMOOTH",
"183 1456 LINE"
);
}
);
width = 1500;
}
);
unicode = 0044;
},
{
glyphname = Eth;
layers = (
{
layerId = "F26D4BF5-BF3F-42E5-900E-6C8346FBF199";
name = Regular;
paths = (
{
closed = 1;
nodes = (
"365 148 LINE",
"365 658 LINE",
"571 658 LINE",
"570 795 LINE",
"365 795 LINE",
"365 1308 LINE",
"529 1308 LINE SMOOTH",
"1001 1308 OFFCURVE",
"1248 1159 OFFCURVE",
"1248 721 CURVE SMOOTH",
"1248 387 OFFCURVE",
"1050 148 OFFCURVE",
"626 148 CURVE SMOOTH"
);
},
{
closed = 1;
nodes = (
"193 0 LINE",
"610 0 LINE SMOOTH",
"1125 0 OFFCURVE",
"1430 282 OFFCURVE",
"1430 724 CURVE SMOOTH",
"1430 1290 OFFCURVE",
"1029 1456 OFFCURVE",
"508 1456 CURVE SMOOTH",
"193 1456 LINE",
"193 795 LINE",
"-1 795 LINE",
"0 658 LINE",
"193 658 LINE"
);
}
);
width = 1546;
}
);
unicode = 00D0;
},
{
glyphname = E;
lastChange = "2012-12-23 16:07:39 +0000";
layers = (
{
anchors = (
{
name = bottom;
position = "{570, 0}";
},
{
name = ogonek;
position = "{1025, 10}";
},
{
name = top;
position = "{570, 0}";
}
);
layerId = "F26D4BF5-BF3F-42E5-900E-6C8346FBF199";
name = Regular;
paths = (
{
closed = 1;
nodes = (
"183 0 LINE",
"1070 0 LINE",
"1070 148 LINE",
"355 148 LINE",
"355 672 LINE",
"1002 672 LINE",
"1002 820 LINE",
"355 820 LINE",
"355 1308 LINE",
"1040 1308 LINE",
"1040 1456 LINE",
"183 1456 LINE"
);
}
);
width = 1138;
}
);
unicode = 0045;
},
{
glyphname = Eacute;
layers = (
{
layerId = "F26D4BF5-BF3F-42E5-900E-6C8346FBF199";
name = Regular;
paths = (
{
closed = 1;
nodes = (
"205 0 LINE",
"1102 0 LINE",
"1102 148 LINE",
"377 148 LINE",
"377 672 LINE",
"1034 672 LINE",
"1034 820 LINE",
"377 820 LINE",
"377 1308 LINE",
"1072 1308 LINE",
"1072 1456 LINE",
"205 1456 LINE"
);
},
{
closed = 1;
nodes = (
"390 1602 LINE",
"520 1602 LINE",
"828 1922 LINE",
"616 1922 LINE"
);
}
);
width = 1218;
}
);
unicode = 00C9;
},
{
glyphname = Ecircumflex;
layers = (
{
layerId = "F26D4BF5-BF3F-42E5-900E-6C8346FBF199";
name = Regular;
paths = (
{
closed = 1;
nodes = (
"205 0 LINE",
"1102 0 LINE",
"1102 148 LINE",
"377 148 LINE",
"377 672 LINE",
"1034 672 LINE",
"1034 820 LINE",
"377 820 LINE",
"377 1308 LINE",
"1072 1308 LINE",
"1072 1456 LINE",
"205 1456 LINE"
);
},
{
closed = 1;
nodes = (
"302 1600 LINE",
"428 1600 LINE",
"606 1816 LINE",
"784 1600 LINE",
"916 1600 LINE",
"687 1924 LINE",
"530 1924 LINE"
);
}
);
width = 1218;
}
);
unicode = 00CA;
},
{
glyphname = Edieresis;
layers = (
{
layerId = "F26D4BF5-BF3F-42E5-900E-6C8346FBF199";
name = Regular;
paths = (
{
closed = 1;
nodes = (
"205 0 LINE",
"1102 0 LINE",
"1102 148 LINE",
"377 148 LINE",
"377 672 LINE",
"1034 672 LINE",
"1034 820 LINE",
"377 820 LINE",
"377 1308 LINE",
"1072 1308 LINE",
"1072 1456 LINE",
"205 1456 LINE"
);
},
{
closed = 1;
nodes = (
"361 1613 LINE",
"525 1613 LINE",
"525 1776 LINE",
"361 1776 LINE"
);
},
{
closed = 1;
nodes = (
"693 1613 LINE",
"857 1613 LINE",
"857 1776 LINE",
"693 1776 LINE"
);
}
);
width = 1218;
}
);
unicode = 00CB;
},
{
glyphname = Egrave;
layers = (
{
layerId = "F26D4BF5-BF3F-42E5-900E-6C8346FBF199";
name = Regular;
paths = (
{
closed = 1;
nodes = (
"205 0 LINE",
"1102 0 LINE",
"1102 148 LINE",
"377 148 LINE",
"377 672 LINE",
"1034 672 LINE",
"1034 820 LINE",
"377 820 LINE",
"377 1308 LINE",
"1072 1308 LINE",
"1072 1456 LINE",
"205 1456 LINE"
);
},
{
closed = 1;
nodes = (
"710 1602 LINE",
"839 1602 LINE",
"592 1922 LINE",
"378 1922 LINE"
);
}
);
width = 1218;
}
);
unicode = 00C8;
},
{
glyphname = Emacron;
layers = (
{
layerId = "F26D4BF5-BF3F-42E5-900E-6C8346FBF199";
name = Regular;
paths = (
{
closed = 1;
nodes = (
"205 0 LINE",
"1102 0 LINE",
"1102 148 LINE",
"377 148 LINE",
"377 672 LINE",
"1034 672 LINE",
"1034 820 LINE",
"377 820 LINE",
"377 1308 LINE",
"1072 1308 LINE",
"1072 1456 LINE",
"205 1456 LINE"
);
},
{
closed = 1;
nodes = (
"324 1613 LINE",
"895 1613 LINE",
"894 1747 LINE",
"323 1747 LINE"
);
}
);
width = 1218;
}
);
unicode = 0112;
},
{
glyphname = Eogonek;
layers = (
{
layerId = "F26D4BF5-BF3F-42E5-900E-6C8346FBF199";
name = Regular;
paths = (
{
closed = 1;
nodes = (
"205 0 LINE",
"1102 0 LINE",
"1102 148 LINE",
"377 148 LINE",
"377 672 LINE",
"1034 672 LINE",
"1034 820 LINE",
"377 820 LINE",
"377 1308 LINE",
"1072 1308 LINE",
"1072 1456 LINE",
"205 1456 LINE"
);
},
{
closed = 1;
nodes = (
"456 -331 OFFCURVE",
"552 -390 OFFCURVE",
"674 -390 CURVE SMOOTH",
"734 -390 OFFCURVE",
"811 -377 OFFCURVE",
"851 -361 CURVE",
"851 -250 LINE",
"796 -271 OFFCURVE",
"758 -281 OFFCURVE",
"697 -281 CURVE SMOOTH",
"649 -281 OFFCURVE",
"597 -249 OFFCURVE",
"597 -199 CURVE SMOOTH",
"597 -136 OFFCURVE",
"683 -71 OFFCURVE",
"800 0 CURVE",
"671 12 LINE",
"562 -42 OFFCURVE",
"456 -123 OFFCURVE",
"456 -225 CURVE SMOOTH"
);
}
);
width = 1218;
}
);
unicode = 0118;
},
{
glyphname = F;
layers = (
{
layerId = "F26D4BF5-BF3F-42E5-900E-6C8346FBF199";
name = Regular;
paths = (
{
closed = 1;
nodes = (
"183 0 LINE",
"355 0 LINE",
"355 667 LINE",
"960 667 LINE",
"960 815 LINE",
"355 815 LINE",
"355 1308 LINE",
"1008 1308 LINE",
"1008 1456 LINE",
"183 1456 LINE"
);
}
);
width = 1057;
}
);
unicode = 0046;
},
{
glyphname = G;
lastChange = "2012-12-23 16:08:08 +0000";
layers = (
{
anchors = (
{
name = bottom;
position = "{753, 0}";
},
{
name = top;
position = "{753, 0}";
}
);
layerId = "F26D4BF5-BF3F-42E5-900E-6C8346FBF199";
name = Regular;
paths = (
{
closed = 1;
nodes = (
"106 267 OFFCURVE",
"359 -23 OFFCURVE",
"839 -23 CURVE SMOOTH",
"1010 -23 OFFCURVE",
"1193 6 OFFCURVE",
"1354 81 CURVE",
"1354 757 LINE",
"809 757 LINE",
"809 608 LINE",
"1182 608 LINE",
"1182 182 LINE",
"1086 143 OFFCURVE",
"966 125 OFFCURVE",
"853 125 CURVE SMOOTH",
"470 125 OFFCURVE",
"284 365 OFFCURVE",
"284 714 CURVE SMOOTH",
"284 1033 OFFCURVE",
"475 1334 OFFCURVE",
"846 1334 CURVE SMOOTH",
"1002 1334 OFFCURVE",
"1162 1291 OFFCURVE",
"1260 1196 CURVE",
"1329 1301 LINE",
"1229 1424 OFFCURVE",
"1043 1483 OFFCURVE",
"850 1483 CURVE SMOOTH",
"380 1483 OFFCURVE",
"106 1129 OFFCURVE",
"106 701 CURVE SMOOTH"
);
}
);
width = 1494;
}
);
unicode = 0047;
},
{
glyphname = Gcedilla;
layers = (
{
layerId = "F26D4BF5-BF3F-42E5-900E-6C8346FBF199";
name = Regular;
paths = (
{
closed = 1;
nodes = (
"116 267 OFFCURVE",
"369 -23 OFFCURVE",
"849 -23 CURVE SMOOTH",
"1020 -23 OFFCURVE",
"1191 6 OFFCURVE",
"1352 81 CURVE",
"1352 757 LINE",
"819 757 LINE",
"819 608 LINE",
"1180 608 LINE",
"1180 182 LINE",
"1084 143 OFFCURVE",
"976 125 OFFCURVE",
"863 125 CURVE SMOOTH",
"480 125 OFFCURVE",
"294 365 OFFCURVE",
"294 714 CURVE SMOOTH",
"294 1033 OFFCURVE",
"485 1334 OFFCURVE",
"856 1334 CURVE SMOOTH",
"1012 1334 OFFCURVE",
"1160 1291 OFFCURVE",
"1258 1196 CURVE",
"1327 1301 LINE",
"1227 1424 OFFCURVE",
"1053 1483 OFFCURVE",
"860 1483 CURVE SMOOTH",
"390 1483 OFFCURVE",
"116 1129 OFFCURVE",
"116 701 CURVE SMOOTH"
);
},
{
closed = 1;
nodes = (
"639 -603 LINE",
"770 -603 LINE",
"933 -140 LINE",
"746 -140 LINE"
);
}
);
width = 1530;
}
);
unicode = 0122;
},
{
glyphname = H;
layers = (
{
anchors = (
{
name = center;
position = "{756, 0}";
},
{
name = top;
position = "{756, 0}";
}
);
layerId = "F26D4BF5-BF3F-42E5-900E-6C8346FBF199";
name = Regular;
paths = (
{
closed = 1;
nodes = (
"183 0 LINE",
"355 0 LINE",
"355 674 LINE",
"1157 674 LINE",
"1157 0 LINE",
"1328 0 LINE",
"1328 1456 LINE",
"1157 1456 LINE",
"1157 822 LINE",
"355 822 LINE",
"355 1456 LINE",
"183 1456 LINE"
);
}
);
width = 1511;
}
);
unicode = 0048;
},
{
glyphname = I;
layers = (
{
anchors = (
{
name = ogonek;
position = "{515, 10}";
},
{
name = top;
position = "{286, 0}";
}
);
layerId = "F26D4BF5-BF3F-42E5-900E-6C8346FBF199";
name = Regular;
paths = (
{
closed = 1;
nodes = (
"200 0 LINE",
"372 0 LINE",
"372 1456 LINE",
"200 1456 LINE"
);
}
);
width = 572;
}
);
unicode = 0049;
},
{
glyphname = IJ;
layers = (
{
layerId = "F26D4BF5-BF3F-42E5-900E-6C8346FBF199";
name = Regular;
paths = (
{
closed = 1;
nodes = (
"727 16 OFFCURVE",
"809 -23 OFFCURVE",
"912 -23 CURVE SMOOTH",
"1183 -23 OFFCURVE",
"1345 160 OFFCURVE",
"1346 499 CURVE SMOOTH",
"1346 1456 LINE",
"1174 1456 LINE",
"1174 488 LINE SMOOTH",
"1174 281 OFFCURVE",
"1093 125 OFFCURVE",
"917 125 CURVE SMOOTH",
"838 125 OFFCURVE",
"771 152 OFFCURVE",
"713 197 CURVE",
"662 81 LINE"
);
},
{
closed = 1;
nodes = (
"210 0 LINE",
"382 0 LINE",
"382 1456 LINE",
"210 1456 LINE"
);
}
);
width = 1530;
}
);
unicode = 0132;
},
{
glyphname = Iacute;
layers = (
{
layerId = "F26D4BF5-BF3F-42E5-900E-6C8346FBF199";
name = Regular;
paths = (
{
closed = 1;
nodes = (
"210 0 LINE",
"382 0 LINE",
"382 1456 LINE",
"210 1456 LINE"
);
},
{
closed = 1;
nodes = (
"77 1602 LINE",
"207 1602 LINE",
"515 1922 LINE",
"303 1922 LINE"
);
}
);
width = 591;
}
);
unicode = 00CD;
},
{
glyphname = Icircumflex;
layers = (
{
layerId = "F26D4BF5-BF3F-42E5-900E-6C8346FBF199";
name = Regular;
paths = (
{
closed = 1;
nodes = (
"-11 1600 LINE",
"115 1600 LINE",
"293 1816 LINE",
"471 1600 LINE",
"603 1600 LINE",
"374 1924 LINE",
"217 1924 LINE"
);
},
{
closed = 1;
nodes = (
"210 0 LINE",
"382 0 LINE",
"382 1456 LINE",
"210 1456 LINE"
);
}
);
width = 591;
}
);
unicode = 00CE;
},
{
glyphname = Idieresis;
layers = (
{
layerId = "F26D4BF5-BF3F-42E5-900E-6C8346FBF199";
name = Regular;
paths = (
{
closed = 1;
nodes = (
"47 1613 LINE",
"211 1613 LINE",
"211 1776 LINE",
"47 1776 LINE"
);
},
{
closed = 1;
nodes = (
"210 0 LINE",
"382 0 LINE",
"382 1456 LINE",
"210 1456 LINE"
);
},
{
closed = 1;
nodes = (
"379 1613 LINE",
"543 1613 LINE",
"543 1776 LINE",
"379 1776 LINE"
);
}
);
width = 591;
}
);
unicode = 00CF;
},
{
glyphname = Igrave;
layers = (
{
layerId = "F26D4BF5-BF3F-42E5-900E-6C8346FBF199";
name = Regular;
paths = (
{
closed = 1;
nodes = (
"210 0 LINE",
"382 0 LINE",
"382 1456 LINE",
"210 1456 LINE"
);
},
{
closed = 1;
nodes = (
"397 1602 LINE",
"526 1602 LINE",
"279 1922 LINE",
"65 1922 LINE"
);
}
);
width = 591;
}
);
unicode = 00CC;
},
{
glyphname = Imacron;
layers = (
{
layerId = "F26D4BF5-BF3F-42E5-900E-6C8346FBF199";
name = Regular;
paths = (
{
closed = 1;
nodes = (
"210 0 LINE",
"382 0 LINE",
"382 1456 LINE",
"210 1456 LINE"
);
},
{
closed = 1;
nodes = (
"11 1613 LINE",
"582 1613 LINE",
"581 1747 LINE",
"10 1747 LINE"
);
}
);
width = 591;
}
);
unicode = 012A;
},
{
glyphname = Iogonek;
layers = (
{
layerId = "F26D4BF5-BF3F-42E5-900E-6C8346FBF199";
name = Regular;
paths = (
{
closed = 1;
nodes = (
"99 -331 OFFCURVE",
"195 -390 OFFCURVE",
"317 -390 CURVE SMOOTH",
"377 -390 OFFCURVE",
"454 -377 OFFCURVE",
"494 -361 CURVE",
"494 -250 LINE",
"439 -271 OFFCURVE",
"401 -281 OFFCURVE",
"340 -281 CURVE SMOOTH",
"292 -281 OFFCURVE",
"240 -249 OFFCURVE",
"240 -199 CURVE SMOOTH",
"240 -136 OFFCURVE",
"326 -71 OFFCURVE",
"443 0 CURVE",
"314 12 LINE",
"205 -42 OFFCURVE",
"99 -123 OFFCURVE",
"99 -225 CURVE SMOOTH"
);
},
{
closed = 1;
nodes = (
"210 0 LINE",
"382 0 LINE",
"382 1456 LINE",
"210 1456 LINE"
);
}
);
width = 591;
}
);
unicode = 012E;
},
{
glyphname = Itilde;
layers = (
{
layerId = "F26D4BF5-BF3F-42E5-900E-6C8346FBF199";
name = Regular;
paths = (
{
closed = 1;
nodes = (
"61 1843 OFFCURVE",
"-15 1758 OFFCURVE",
"-26 1633 CURVE",
"79 1633 LINE",
"86 1690 OFFCURVE",
"117 1718 OFFCURVE",
"170 1718 CURVE SMOOTH",
"245 1718 OFFCURVE",
"344 1650 OFFCURVE",
"423 1650 CURVE SMOOTH",
"538 1650 OFFCURVE",
"606 1745 OFFCURVE",
"618 1865 CURVE",
"510 1865 LINE",
"502 1806 OFFCURVE",
"468 1775 OFFCURVE",
"423 1775 CURVE SMOOTH",
"346 1775 OFFCURVE",
"266 1843 OFFCURVE",
"173 1843 CURVE SMOOTH"
);
},
{
closed = 1;
nodes = (
"210 0 LINE",
"382 0 LINE",
"382 1456 LINE",
"210 1456 LINE"
);
}
);
width = 591;
}
);
unicode = 0128;
},
{
glyphname = J;
lastChange = "2012-12-23 16:09:08 +0000";
layers = (
{
anchors = (
{
name = top;
position = "{311, 0}";
}
);
layerId = "F26D4BF5-BF3F-42E5-900E-6C8346FBF199";
name = Regular;
paths = (
{
closed = 1;
nodes = (
"-105 -294 OFFCURVE",
"-6 -330 OFFCURVE",
"107 -330 CURVE SMOOTH",
"318 -330 OFFCURVE",
"418 -184 OFFCURVE",
"418 115 CURVE SMOOTH",
"418 1456 LINE",
"246 1456 LINE",
"246 124 LINE SMOOTH",
"246 -83 OFFCURVE",
"225 -182 OFFCURVE",
"89 -182 CURVE SMOOTH",
"-10 -182 OFFCURVE",
"-87 -151 OFFCURVE",
"-95 -148 CURVE",
"-116 -289 LINE"
);
}
);
width = 601;
}
);
unicode = 004A;
},
{
glyphname = Jcircumflex;
layers = (
{
layerId = "F26D4BF5-BF3F-42E5-900E-6C8346FBF199";
name = Regular;
paths = (
{
closed = 1;
nodes = (
"136 16 OFFCURVE",
"218 -23 OFFCURVE",
"321 -23 CURVE SMOOTH",
"592 -23 OFFCURVE",
"754 160 OFFCURVE",
"755 499 CURVE SMOOTH",
"755 1456 LINE",
"583 1456 LINE",
"583 488 LINE SMOOTH",
"583 281 OFFCURVE",
"502 125 OFFCURVE",
"326 125 CURVE SMOOTH",
"247 125 OFFCURVE",
"180 152 OFFCURVE",
"122 197 CURVE",
"71 81 LINE"
);
},
{
closed = 1;
nodes = (
"162 1600 LINE",
"288 1600 LINE",
"466 1816 LINE",
"644 1600 LINE",
"776 1600 LINE",
"547 1924 LINE",
"390 1924 LINE"
);
}
);
width = 939;
}
);
unicode = 0134;
},
{
glyphname = K;
lastChange = "2012-12-23 16:09:37 +0000";
layers = (
{
anchors = (
{
name = bottom;
position = "{629, 0}";
},
{
name = top;
position = "{629, 0}";
}
);
layerId = "F26D4BF5-BF3F-42E5-900E-6C8346FBF199";
name = Regular;
paths = (
{
closed = 1;
nodes = (
"183 0 LINE",
"355 0 LINE",
"355 725 LINE",
"1033 0 LINE",
"1269 0 LINE",
"539 774 LINE",
"1215 1456 LINE",
"999 1456 LINE",
"355 796 LINE",
"355 1456 LINE",
"183 1456 LINE"
);
}
);
width = 1255;
}
);
unicode = 004B;
},
{
glyphname = L;
layers = (
{
anchors = (
{
name = bottom;
position = "{532, 0}";
},
{
name = top;
position = "{532, 0}";
}
);
layerId = "F26D4BF5-BF3F-42E5-900E-6C8346FBF199";
name = Regular;
paths = (
{
closed = 1;
nodes = (
"183 0 LINE",
"1032 0 LINE",
"1032 148 LINE",
"355 148 LINE",
"355 1456 LINE",
"183 1456 LINE"
);
}
);
width = 1063;
}
);
unicode = 004C;
},
{
glyphname = Ldotaccent;
layers = (
{
layerId = "F26D4BF5-BF3F-42E5-900E-6C8346FBF199";
name = Regular;
paths = (
{
closed = 1;
nodes = (
"202 0 LINE",
"1073 0 LINE",
"1071 148 LINE",
"374 148 LINE",
"374 1456 LINE",
"202 1456 LINE"
);
},
{
closed = 1;
nodes = (
"634 513 LINE",
"851 513 LINE",
"851 723 LINE",
"634 723 LINE"
);
}
);
width = 1120;
}
);
unicode = 013F;
},
{
glyphname = Lslash;
layers = (
{
layerId = "F26D4BF5-BF3F-42E5-900E-6C8346FBF199";
name = Regular;
paths = (
{
closed = 1;
nodes = (
"202 0 LINE",
"1073 0 LINE",
"1071 148 LINE",
"374 148 LINE",
"374 712 LINE",
"659 890 LINE",
"659 1027 LINE",
"374 849 LINE",
"374 1456 LINE",
"202 1456 LINE",
"202 742 LINE",
"15 626 LINE",
"15 489 LINE",
"202 605 LINE"
);
}
);
width = 1120;
}
);
unicode = 0141;
},
{
glyphname = M;
layers = (
{
layerId = "F26D4BF5-BF3F-42E5-900E-6C8346FBF199";
name = Regular;
paths = (
{
closed = 1;
nodes = (
"183 0 LINE",
"353 0 LINE",
"353 1197 LINE",
"413 1037 LINE",
"861 0 LINE",
"987 0 LINE",
"1448 1059 LINE",
"1499 1180 LINE",
"1499 0 LINE",
"1667 0 LINE",
"1667 1456 LINE",
"1453 1456 LINE",
"1011 443 LINE",
"926 236 LINE",
"840 440 LINE",
"401 1456 LINE",
"183 1456 LINE"
);
}
);
width = 1850;
}
);
unicode = 004D;
},
{
glyphname = N;
layers = (
{
anchors = (
{
name = bottom;
position = "{772, 0}";
},
{
name = top;
position = "{772, 0}";
}
);
layerId = "F26D4BF5-BF3F-42E5-900E-6C8346FBF199";
name = Regular;
paths = (
{
closed = 1;
nodes = (
"183 0 LINE",
"355 0 LINE",
"355 1209 LINE",
"427 1093 LINE",
"1163 0 LINE",
"1361 0 LINE",
"1361 1456 LINE",
"1190 1456 LINE",
"1190 243 LINE",
"1112 362 LINE",
"379 1456 LINE",
"183 1456 LINE"
);
}
);
width = 1544;
}
);
unicode = 004E;
},
{
glyphname = Nacute;
layers = (
{
layerId = "F26D4BF5-BF3F-42E5-900E-6C8346FBF199";
name = Regular;
paths = (
{
closed = 1;
nodes = (
"193 0 LINE",
"365 0 LINE",
"365 1237 LINE",
"437 1113 LINE",
"1187 0 LINE",
"1395 0 LINE",
"1395 1456 LINE",
"1224 1456 LINE",
"1224 215 LINE",
"1146 342 LINE",
"399 1456 LINE",
"193 1456 LINE"
);
},
{
closed = 1;
nodes = (
"578 1602 LINE",
"708 1602 LINE",
"1016 1922 LINE",
"804 1922 LINE"
);
}
);
width = 1594;
}
);
unicode = 0143;
},
{
glyphname = Ntilde;
layers = (
{
layerId = "F26D4BF5-BF3F-42E5-900E-6C8346FBF199";
name = Regular;
paths = (
{
closed = 1;
nodes = (
"193 0 LINE",
"365 0 LINE",
"365 1237 LINE",
"437 1113 LINE",
"1187 0 LINE",
"1395 0 LINE",
"1395 1456 LINE",
"1224 1456 LINE",
"1224 215 LINE",
"1146 342 LINE",
"399 1456 LINE",
"193 1456 LINE"
);
},
{
closed = 1;
nodes = (
"562 1843 OFFCURVE",
"486 1758 OFFCURVE",
"475 1633 CURVE",
"580 1633 LINE",
"587 1690 OFFCURVE",
"618 1718 OFFCURVE",
"671 1718 CURVE SMOOTH",
"746 1718 OFFCURVE",
"845 1650 OFFCURVE",
"924 1650 CURVE SMOOTH",
"1039 1650 OFFCURVE",
"1107 1745 OFFCURVE",
"1119 1865 CURVE",
"1011 1865 LINE",
"1003 1806 OFFCURVE",
"969 1775 OFFCURVE",
"924 1775 CURVE SMOOTH",
"847 1775 OFFCURVE",
"767 1843 OFFCURVE",
"674 1843 CURVE SMOOTH"
);
}
);
width = 1594;
}
);
unicode = 00D1;
},
{
glyphname = O;
lastChange = "2012-12-23 16:03:55 +0000";
layers = (
{
anchors = (
{
name = top;
position = "{805, 0}";
}
);
layerId = "F26D4BF5-BF3F-42E5-900E-6C8346FBF199";
name = Regular;
paths = (
{
closed = 1;
nodes = (
"1316 387 OFFCURVE",
"1156 125 OFFCURVE",
"803 125 CURVE SMOOTH",
"454 125 OFFCURVE",
"290 390 OFFCURVE",
"290 725 CURVE SMOOTH",
"290 1048 OFFCURVE",
"458 1335 OFFCURVE",
"806 1335 CURVE SMOOTH",
"1158 1335 OFFCURVE",
"1316 1073 OFFCURVE",
"1316 734 CURVE SMOOTH"
);
},
{
closed = 1;
nodes = (
"106 271 OFFCURVE",
"360 -23 OFFCURVE",
"805 -23 CURVE SMOOTH",
"1254 -23 OFFCURVE",
"1504 286 OFFCURVE",
"1504 726 CURVE SMOOTH",
"1504 1184 OFFCURVE",
"1249 1483 OFFCURVE",
"813 1483 CURVE SMOOTH",
"358 1483 OFFCURVE",
"106 1166 OFFCURVE",
"106 729 CURVE SMOOTH"
);
}
);
width = 1610;
}
);
unicode = 004F;
},
{
glyphname = Oacute;
layers = (
{
layerId = "F26D4BF5-BF3F-42E5-900E-6C8346FBF199";
name = Regular;
paths = (
{
closed = 1;
nodes = (
"1356 387 OFFCURVE",
"1180 125 OFFCURVE",
"827 125 CURVE SMOOTH",
"478 125 OFFCURVE",
"298 390 OFFCURVE",
"298 725 CURVE SMOOTH",
"298 1048 OFFCURVE",
"482 1335 OFFCURVE",
"830 1335 CURVE SMOOTH",
"1182 1335 OFFCURVE",
"1356 1073 OFFCURVE",
"1356 734 CURVE SMOOTH"
);
},
{
closed = 1;
nodes = (
"114 271 OFFCURVE",
"384 -23 OFFCURVE",
"829 -23 CURVE SMOOTH",
"1278 -23 OFFCURVE",
"1544 286 OFFCURVE",
"1544 726 CURVE SMOOTH",
"1544 1184 OFFCURVE",
"1273 1483 OFFCURVE",
"837 1483 CURVE SMOOTH",
"382 1483 OFFCURVE",
"114 1166 OFFCURVE",
"114 729 CURVE SMOOTH"
);
},
{
closed = 1;
nodes = (
"612 1602 LINE",
"742 1602 LINE",
"1050 1922 LINE",
"838 1922 LINE"
);
}
);
width = 1663;
}
);
unicode = 00D3;
},
{
glyphname = Ocircumflex;
layers = (
{
layerId = "F26D4BF5-BF3F-42E5-900E-6C8346FBF199";
name = Regular;
paths = (
{
closed = 1;
nodes = (
"524 1600 LINE",
"650 1600 LINE",
"828 1816 LINE",
"1006 1600 LINE",
"1138 1600 LINE",
"909 1924 LINE",
"752 1924 LINE"
);
},
{
closed = 1;
nodes = (
"1356 387 OFFCURVE",
"1180 125 OFFCURVE",
"827 125 CURVE SMOOTH",
"478 125 OFFCURVE",
"298 390 OFFCURVE",
"298 725 CURVE SMOOTH",
"298 1048 OFFCURVE",
"482 1335 OFFCURVE",
"830 1335 CURVE SMOOTH",
"1182 1335 OFFCURVE",
"1356 1073 OFFCURVE",
"1356 734 CURVE SMOOTH"
);
},
{
closed = 1;
nodes = (
"114 271 OFFCURVE",
"384 -23 OFFCURVE",
"829 -23 CURVE SMOOTH",
"1278 -23 OFFCURVE",
"1544 286 OFFCURVE",
"1544 726 CURVE SMOOTH",
"1544 1184 OFFCURVE",
"1273 1483 OFFCURVE",
"837 1483 CURVE SMOOTH",
"382 1483 OFFCURVE",
"114 1166 OFFCURVE",
"114 729 CURVE SMOOTH"
);
}
);
width = 1663;
}
);
unicode = 00D4;
},
{
glyphname = Odieresis;
layers = (
{
layerId = "F26D4BF5-BF3F-42E5-900E-6C8346FBF199";
name = Regular;
paths = (
{
closed = 1;
nodes = (
"583 1613 LINE",
"747 1613 LINE",
"747 1776 LINE",
"583 1776 LINE"
);
},
{
closed = 1;
nodes = (
"1356 387 OFFCURVE",
"1180 125 OFFCURVE",
"827 125 CURVE SMOOTH",
"478 125 OFFCURVE",
"298 390 OFFCURVE",
"298 725 CURVE SMOOTH",
"298 1048 OFFCURVE",
"482 1335 OFFCURVE",
"830 1335 CURVE SMOOTH",
"1182 1335 OFFCURVE",
"1356 1073 OFFCURVE",
"1356 734 CURVE SMOOTH"
);
},
{
closed = 1;
nodes = (
"114 271 OFFCURVE",
"384 -23 OFFCURVE",
"829 -23 CURVE SMOOTH",
"1278 -23 OFFCURVE",
"1544 286 OFFCURVE",
"1544 726 CURVE SMOOTH",
"1544 1184 OFFCURVE",
"1273 1483 OFFCURVE",
"837 1483 CURVE SMOOTH",
"382 1483 OFFCURVE",
"114 1166 OFFCURVE",
"114 729 CURVE SMOOTH"
);
},
{
closed = 1;
nodes = (
"915 1613 LINE",
"1079 1613 LINE",
"1079 1776 LINE",
"915 1776 LINE"
);
}
);
width = 1663;
}
);
unicode = 00D6;
},
{
glyphname = Ograve;
layers = (
{
layerId = "F26D4BF5-BF3F-42E5-900E-6C8346FBF199";
name = Regular;
paths = (
{
closed = 1;
nodes = (
"1356 387 OFFCURVE",
"1180 125 OFFCURVE",
"827 125 CURVE SMOOTH",
"478 125 OFFCURVE",
"298 390 OFFCURVE",
"298 725 CURVE SMOOTH",
"298 1048 OFFCURVE",
"482 1335 OFFCURVE",
"830 1335 CURVE SMOOTH",
"1182 1335 OFFCURVE",
"1356 1073 OFFCURVE",
"1356 734 CURVE SMOOTH"
);
},
{
closed = 1;
nodes = (
"114 271 OFFCURVE",
"384 -23 OFFCURVE",
"829 -23 CURVE SMOOTH",
"1278 -23 OFFCURVE",
"1544 286 OFFCURVE",
"1544 726 CURVE SMOOTH",
"1544 1184 OFFCURVE",
"1273 1483 OFFCURVE",
"837 1483 CURVE SMOOTH",
"382 1483 OFFCURVE",
"114 1166 OFFCURVE",
"114 729 CURVE SMOOTH"
);
},
{
closed = 1;
nodes = (
"933 1602 LINE",
"1062 1602 LINE",
"815 1922 LINE",
"601 1922 LINE"
);
}
);
width = 1663;
}
);
unicode = 00D2;
},
{
glyphname = Oslash;
lastChange = "2012-12-24 13:55:34 +0000";
layers = (
{
anchors = (
{
name = top;
position = "{832, 0}";
}
);
components = (
{
name = O;
transform = "{1, 0, 0, 1, 0, 0}";
}
);
layerId = "F26D4BF5-BF3F-42E5-900E-6C8346FBF199";
name = Regular;
paths = (
{
closed = 1;
nodes = (
"449 -134 LINE",
"1306 1493 LINE",
"1170 1561 LINE",
"313 -66 LINE"
);
}
);
width = 1663;
}
);
unicode = 00D8;
},
{
glyphname = Otilde;
layers = (
{
layerId = "F26D4BF5-BF3F-42E5-900E-6C8346FBF199";
name = Regular;
paths = (
{
closed = 1;
nodes = (
"596 1843 OFFCURVE",
"520 1758 OFFCURVE",
"509 1633 CURVE",
"614 1633 LINE",
"621 1690 OFFCURVE",
"652 1718 OFFCURVE",
"705 1718 CURVE SMOOTH",
"780 1718 OFFCURVE",
"879 1650 OFFCURVE",
"958 1650 CURVE SMOOTH",
"1073 1650 OFFCURVE",
"1141 1745 OFFCURVE",
"1153 1865 CURVE",
"1045 1865 LINE",
"1037 1806 OFFCURVE",
"1003 1775 OFFCURVE",
"958 1775 CURVE SMOOTH",
"881 1775 OFFCURVE",
"801 1843 OFFCURVE",
"708 1843 CURVE SMOOTH"
);
},
{
closed = 1;
nodes = (
"1356 387 OFFCURVE",
"1180 125 OFFCURVE",
"827 125 CURVE SMOOTH",
"478 125 OFFCURVE",
"298 390 OFFCURVE",
"298 725 CURVE SMOOTH",
"298 1048 OFFCURVE",
"482 1335 OFFCURVE",
"830 1335 CURVE SMOOTH",
"1182 1335 OFFCURVE",
"1356 1073 OFFCURVE",
"1356 734 CURVE SMOOTH"
);
},
{
closed = 1;
nodes = (
"114 271 OFFCURVE",
"384 -23 OFFCURVE",
"829 -23 CURVE SMOOTH",
"1278 -23 OFFCURVE",
"1544 286 OFFCURVE",
"1544 726 CURVE SMOOTH",
"1544 1184 OFFCURVE",
"1273 1483 OFFCURVE",
"837 1483 CURVE SMOOTH",
"382 1483 OFFCURVE",
"114 1166 OFFCURVE",
"114 729 CURVE SMOOTH"
);
}
);
width = 1663;
}
);
unicode = 00D5;
},
{
glyphname = OE;
layers = (
{
anchors = (
{
name = top;
position = "{1050, 0}";
}
);
layerId = "F26D4BF5-BF3F-42E5-900E-6C8346FBF199";
name = Regular;
paths = (
{
closed = 1;
nodes = (
"114 271 OFFCURVE",
"384 -23 OFFCURVE",
"829 -23 CURVE SMOOTH",
"950 -23 OFFCURVE",
"1058 23 OFFCURVE",
"1151 105 CURVE",
"1151 0 LINE",
"1984 0 LINE",
"1984 148 LINE",
"1323 148 LINE",
"1323 672 LINE",
"1916 672 LINE",
"1916 820 LINE",
"1323 820 LINE",
"1323 1308 LINE",
"1954 1308 LINE",
"1954 1456 LINE",
"1151 1456 LINE",
"1151 1381 LINE",
"1059 1446 OFFCURVE",
"954 1483 OFFCURVE",
"837 1483 CURVE SMOOTH",
"382 1483 OFFCURVE",
"114 1166 OFFCURVE",
"114 729 CURVE SMOOTH"
);
},
{
closed = 1;
nodes = (
"1068 177 OFFCURVE",
"960 125 OFFCURVE",
"827 125 CURVE SMOOTH",
"478 125 OFFCURVE",
"298 390 OFFCURVE",
"298 725 CURVE SMOOTH",
"298 1048 OFFCURVE",
"482 1335 OFFCURVE",
"830 1335 CURVE SMOOTH",
"962 1335 OFFCURVE",
"1069 1292 OFFCURVE",
"1151 1219 CURVE",
"1151 265 LINE"
);
}
);
width = 2099;
}
);
unicode = 0152;
},
{
glyphname = P;
layers = (
{
layerId = "F26D4BF5-BF3F-42E5-900E-6C8346FBF199";
name = Regular;
paths = (
{
closed = 1;
nodes = (
"183 0 LINE",
"355 0 LINE",
"355 587 LINE",
"605 587 LINE SMOOTH",
"923 587 OFFCURVE",
"1157 716 OFFCURVE",
"1157 1020 CURVE SMOOTH",
"1157 1379 OFFCURVE",
"892 1456 OFFCURVE",
"552 1456 CURVE SMOOTH",
"183 1456 LINE"
);
},
{
closed = 1;
nodes = (
"355 736 LINE",
"355 1308 LINE",
"596 1308 LINE SMOOTH",
"849 1308 OFFCURVE",
"990 1251 OFFCURVE",
"990 1018 CURVE SMOOTH",
"990 822 OFFCURVE",
"864 736 OFFCURVE",
"644 736 CURVE SMOOTH"
);
}
);
width = 1233;
}
);
unicode = 0050;
},
{
glyphname = Thorn;
layers = (
{
layerId = "F26D4BF5-BF3F-42E5-900E-6C8346FBF199";
name = Regular;
paths = (
{
closed = 1;
nodes = (
"203 0 LINE",
"375 0 LINE",
"375 443 LINE",
"597 443 LINE SMOOTH",
"915 443 OFFCURVE",
"1200 572 OFFCURVE",
"1200 876 CURVE SMOOTH",
"1200 1235 OFFCURVE",
"884 1312 OFFCURVE",
"544 1312 CURVE SMOOTH",
"375 1312 LINE",
"375 1456 LINE",
"203 1456 LINE"
);
},
{
closed = 1;
nodes = (
"375 592 LINE",
"375 1164 LINE",
"588 1164 LINE SMOOTH",
"841 1164 OFFCURVE",
"1016 1107 OFFCURVE",
"1016 874 CURVE SMOOTH",
"1016 678 OFFCURVE",
"856 592 OFFCURVE",
"636 592 CURVE SMOOTH"
);
}
);
width = 1274;
}
);
unicode = 00DE;
},
{
glyphname = Q;
lastChange = "2012-12-23 16:05:03 +0000";
layers = (
{
layerId = "F26D4BF5-BF3F-42E5-900E-6C8346FBF199";
name = Regular;
paths = (
{
closed = 1;
nodes = (
"1014 -233 OFFCURVE",
"1210 -422 OFFCURVE",
"1210 -422 CURVE",
"1322 -304 LINE",
"1322 -304 OFFCURVE",
"1162 -162 OFFCURVE",
"1073 20 CURVE",
"1358 132 OFFCURVE",
"1504 418 OFFCURVE",
"1504 738 CURVE SMOOTH",
"1504 1181 OFFCURVE",
"1247 1483 OFFCURVE",
"811 1483 CURVE SMOOTH",
"370 1483 OFFCURVE",
"106 1180 OFFCURVE",
"106 747 CURVE SMOOTH",
"106 282 OFFCURVE",
"374 -18 OFFCURVE",
"803 -18 CURVE SMOOTH",
"852 -18 OFFCURVE",
"908 -9 OFFCURVE",
"908 -9 CURVE"
);
},
{
closed = 1;
nodes = (
"1316 387 OFFCURVE",
"1157 137 OFFCURVE",
"804 137 CURVE SMOOTH",
"454 137 OFFCURVE",
"285 392 OFFCURVE",
"285 724 CURVE SMOOTH",
"285 1047 OFFCURVE",
"455 1334 OFFCURVE",
"804 1334 CURVE SMOOTH",
"1156 1334 OFFCURVE",
"1316 1072 OFFCURVE",
"1316 734 CURVE SMOOTH"
);
}
);
width = 1610;
}
);
unicode = 0051;
},
{
glyphname = R;
lastChange = "2012-12-23 16:13:46 +0000";
layers = (
{
anchors = (
{
name = bottom;
position = "{645, 0}";
},
{
name = top;
position = "{645, 0}";
}
);
layerId = "F26D4BF5-BF3F-42E5-900E-6C8346FBF199";
name = Regular;
paths = (
{
closed = 1;
nodes = (
"183 0 LINE",
"355 0 LINE",
"355 652 LINE",
"614 652 LINE SMOOTH",
"792 652 OFFCURVE",
"820 600 OFFCURVE",
"891 419 CURVE SMOOTH",
"1056 0 LINE",
"1241 0 LINE",
"1154 214 LINE SMOOTH",
"1034 510 OFFCURVE",
"1007 662 OFFCURVE",
"843 715 CURVE",
"842 715 LINE",
"1030 762 OFFCURVE",
"1109 890 OFFCURVE",
"1109 1074 CURVE SMOOTH",
"1109 1452 OFFCURVE",
"766 1456 OFFCURVE",
"528 1456 CURVE SMOOTH",
"183 1456 LINE"
);
},
{
closed = 1;
nodes = (
"355 799 LINE",
"355 1308 LINE",
"621 1308 LINE SMOOTH",
"828 1308 OFFCURVE",
"927 1259 OFFCURVE",
"927 1058 CURVE SMOOTH",
"927 854 OFFCURVE",
"790 799 OFFCURVE",
"610 799 CURVE SMOOTH"
);
}
);
width = 1278;
}
);
unicode = 0052;
},
{
glyphname = Racute;
layers = (
{
layerId = "F26D4BF5-BF3F-42E5-900E-6C8346FBF199";
name = Regular;
paths = (
{
closed = 1;
nodes = (
"205 0 LINE",
"377 0 LINE",
"377 652 LINE",
"647 652 LINE SMOOTH",
"825 652 OFFCURVE",
"880 600 OFFCURVE",
"946 419 CURVE SMOOTH",
"1099 0 LINE",
"1287 0 LINE",
"1200 214 LINE SMOOTH",
"1080 510 OFFCURVE",
"1053 662 OFFCURVE",
"889 715 CURVE",
"888 715 LINE",
"1076 762 OFFCURVE",
"1199 890 OFFCURVE",
"1199 1074 CURVE SMOOTH",
"1199 1452 OFFCURVE",
"799 1456 OFFCURVE",
"561 1456 CURVE SMOOTH",
"205 1456 LINE"
);
},
{
closed = 1;
nodes = (
"377 799 LINE",
"377 1308 LINE",
"654 1308 LINE SMOOTH",
"861 1308 OFFCURVE",
"1017 1259 OFFCURVE",
"1017 1058 CURVE SMOOTH",
"1017 854 OFFCURVE",
"823 799 OFFCURVE",
"643 799 CURVE SMOOTH"
);
},
{
closed = 1;
nodes = (
"469 1602 LINE",
"599 1602 LINE",
"907 1922 LINE",
"695 1922 LINE"
);
}
);
width = 1377;
}
);
unicode = 0154;
},
{
glyphname = Rcaron;
layers = (
{
layerId = "F26D4BF5-BF3F-42E5-900E-6C8346FBF199";
name = Regular;
paths = (
{
closed = 1;
nodes = (
"205 0 LINE",
"377 0 LINE",
"377 652 LINE",
"647 652 LINE SMOOTH",
"825 652 OFFCURVE",
"880 600 OFFCURVE",
"946 419 CURVE SMOOTH",
"1099 0 LINE",
"1287 0 LINE",
"1200 214 LINE SMOOTH",
"1080 510 OFFCURVE",
"1053 662 OFFCURVE",
"889 715 CURVE",
"888 715 LINE",
"1076 762 OFFCURVE",
"1199 890 OFFCURVE",
"1199 1074 CURVE SMOOTH",
"1199 1452 OFFCURVE",
"799 1456 OFFCURVE",
"561 1456 CURVE SMOOTH",
"205 1456 LINE"
);
},
{
closed = 1;
nodes = (
"611 1600 LINE",
"767 1600 LINE",
"1005 1923 LINE",
"851 1923 LINE",
"683 1708 LINE",
"519 1923 LINE",
"372 1923 LINE"
);
},
{
closed = 1;
nodes = (
"377 799 LINE",
"377 1308 LINE",
"654 1308 LINE SMOOTH",
"861 1308 OFFCURVE",
"1017 1259 OFFCURVE",
"1017 1058 CURVE SMOOTH",
"1017 854 OFFCURVE",
"823 799 OFFCURVE",
"643 799 CURVE SMOOTH"
);
}
);
width = 1377;
}
);
unicode = 0158;
},
{
glyphname = Rcommaaccent;
layers = (
{
layerId = "F26D4BF5-BF3F-42E5-900E-6C8346FBF199";
name = Regular;
paths = (
{
closed = 1;
nodes = (
"205 0 LINE",
"377 0 LINE",
"377 652 LINE",
"647 652 LINE SMOOTH",
"825 652 OFFCURVE",
"880 600 OFFCURVE",
"946 419 CURVE SMOOTH",
"1099 0 LINE",
"1287 0 LINE",
"1200 214 LINE SMOOTH",
"1080 510 OFFCURVE",
"1053 662 OFFCURVE",
"889 715 CURVE",
"888 715 LINE",
"1076 762 OFFCURVE",
"1199 890 OFFCURVE",
"1199 1074 CURVE SMOOTH",
"1199 1452 OFFCURVE",
"799 1456 OFFCURVE",
"561 1456 CURVE SMOOTH",
"205 1456 LINE"
);
},
{
closed = 1;
nodes = (
"377 799 LINE",
"377 1308 LINE",
"654 1308 LINE SMOOTH",
"861 1308 OFFCURVE",
"1017 1259 OFFCURVE",
"1017 1058 CURVE SMOOTH",
"1017 854 OFFCURVE",
"823 799 OFFCURVE",
"643 799 CURVE SMOOTH"
);
},
{
closed = 1;
nodes = (
"557 -603 LINE",
"688 -603 LINE",
"851 -140 LINE",
"664 -140 LINE"
);
}
);
width = 1377;
}
);
unicode = 0156;
},
{
glyphname = S;
layers = (
{
anchors = (
{
name = bottom;
position = "{563, 0}";
},
{
name = top;
position = "{563, 0}";
}
);
layerId = "F26D4BF5-BF3F-42E5-900E-6C8346FBF199";
name = Regular;
paths = (
{
closed = 1;
nodes = (
"121 120 OFFCURVE",
"284 -23 OFFCURVE",
"559 -23 CURVE SMOOTH",
"831 -23 OFFCURVE",
"1041 78 OFFCURVE",
"1041 364 CURVE SMOOTH",
"1041 602.5 OFFCURVE",
"853.5 702.25 OFFCURVE",
"666 785.125 CURVE SMOOTH",
"478.5 868 OFFCURVE",
"291 934 OFFCURVE",
"291 1105 CURVE SMOOTH",
"291 1270 OFFCURVE",
"441 1334 OFFCURVE",
"603 1334 CURVE SMOOTH",
"782 1334 OFFCURVE",
"884 1242 OFFCURVE",
"914 1217 CURVE",
"997 1335 LINE",
"972 1362 OFFCURVE",
"854 1483 OFFCURVE",
"583 1483 CURVE SMOOTH",
"320 1483 OFFCURVE",
"108 1350 OFFCURVE",
"108 1095 CURVE SMOOTH",
"108 857 OFFCURVE",
"296.25 761 OFFCURVE",
"484.5 680.625 CURVE SMOOTH",
"672.75 600.25 OFFCURVE",
"861 535.5 OFFCURVE",
"861 360 CURVE SMOOTH",
"861 204 OFFCURVE",
"760 125 OFFCURVE",
"558 125 CURVE SMOOTH",
"356 125 OFFCURVE",
"219 243 OFFCURVE",
"182 271 CURVE",
"103 141 LINE"
);
}
);
width = 1125;
}
);
unicode = 0053;
},
{
glyphname = Sacute;
layers = (
{
layerId = "F26D4BF5-BF3F-42E5-900E-6C8346FBF199";
name = Regular;
paths = (
{
closed = 1;
nodes = (
"215 50 OFFCURVE",
"377 -23 OFFCURVE",
"572 -23 CURVE SMOOTH",
"841 -23 OFFCURVE",
"1134 78 OFFCURVE",
"1134 364 CURVE SMOOTH",
"1134 841 OFFCURVE",
"324 763 OFFCURVE",
"324 1105 CURVE SMOOTH",
"324 1270 OFFCURVE",
"505 1334 OFFCURVE",
"667 1334 CURVE SMOOTH",
"786 1334 OFFCURVE",
"918 1306 OFFCURVE",
"998 1217 CURVE",
"1081 1329 LINE",
"996 1449 OFFCURVE",
"817 1483 OFFCURVE",
"666 1483 CURVE SMOOTH",
"403 1483 OFFCURVE",
"141 1350 OFFCURVE",
"141 1095 CURVE SMOOTH",
"141 619 OFFCURVE",
"950 716 OFFCURVE",
"950 365 CURVE SMOOTH",
"950 209 OFFCURVE",
"801 125 OFFCURVE",
"591 125 CURVE SMOOTH",
"459 125 OFFCURVE",
"303 165 OFFCURVE",
"215 271 CURVE",
"137 161 LINE"
);
},
{
closed = 1;
nodes = (
"403 1602 LINE",
"533 1602 LINE",
"841 1922 LINE",
"629 1922 LINE"
);
}
);
width = 1244;
}
);
unicode = 015A;
},
{
glyphname = Scaron;
layers = (
{
layerId = "F26D4BF5-BF3F-42E5-900E-6C8346FBF199";
name = Regular;
paths = (
{
closed = 1;
nodes = (
"215 50 OFFCURVE",
"377 -23 OFFCURVE",
"572 -23 CURVE SMOOTH",
"841 -23 OFFCURVE",
"1134 78 OFFCURVE",
"1134 364 CURVE SMOOTH",
"1134 841 OFFCURVE",
"324 763 OFFCURVE",
"324 1105 CURVE SMOOTH",
"324 1270 OFFCURVE",
"505 1334 OFFCURVE",
"667 1334 CURVE SMOOTH",
"786 1334 OFFCURVE",
"918 1306 OFFCURVE",
"998 1217 CURVE",
"1081 1329 LINE",
"996 1449 OFFCURVE",
"817 1483 OFFCURVE",
"666 1483 CURVE SMOOTH",
"403 1483 OFFCURVE",
"141 1350 OFFCURVE",
"141 1095 CURVE SMOOTH",
"141 619 OFFCURVE",
"950 716 OFFCURVE",
"950 365 CURVE SMOOTH",
"950 209 OFFCURVE",
"801 125 OFFCURVE",
"591 125 CURVE SMOOTH",
"459 125 OFFCURVE",
"303 165 OFFCURVE",
"215 271 CURVE",
"137 161 LINE"
);
},
{
closed = 1;
nodes = (
"544 1600 LINE",
"700 1600 LINE",
"938 1923 LINE",
"784 1923 LINE",
"616 1708 LINE",
"452 1923 LINE",
"305 1923 LINE"
);
}
);
width = 1244;
}
);
unicode = 0160;
},
{
glyphname = Scommaaccent;
layers = (
{
layerId = "F26D4BF5-BF3F-42E5-900E-6C8346FBF199";
name = Regular;
paths = (
{
closed = 1;
nodes = (
"215 50 OFFCURVE",
"377 -23 OFFCURVE",
"572 -23 CURVE SMOOTH",
"841 -23 OFFCURVE",
"1134 78 OFFCURVE",
"1134 364 CURVE SMOOTH",
"1134 841 OFFCURVE",
"324 763 OFFCURVE",
"324 1105 CURVE SMOOTH",
"324 1270 OFFCURVE",
"505 1334 OFFCURVE",
"667 1334 CURVE SMOOTH",
"786 1334 OFFCURVE",
"918 1306 OFFCURVE",
"998 1217 CURVE",
"1081 1329 LINE",
"996 1449 OFFCURVE",
"817 1483 OFFCURVE",
"666 1483 CURVE SMOOTH",
"403 1483 OFFCURVE",
"141 1350 OFFCURVE",
"141 1095 CURVE SMOOTH",
"141 619 OFFCURVE",
"950 716 OFFCURVE",
"950 365 CURVE SMOOTH",
"950 209 OFFCURVE",
"801 125 OFFCURVE",
"591 125 CURVE SMOOTH",
"459 125 OFFCURVE",
"303 165 OFFCURVE",
"215 271 CURVE",
"137 161 LINE"
);
},
{
closed = 1;
nodes = (
"475 -625 LINE",
"606 -625 LINE",
"769 -162 LINE",
"582 -162 LINE"
);
}
);
width = 1244;
}
);
unicode = 0218;
},
{
glyphname = T;
layers = (
{
anchors = (
{
name = bottom;
position = "{567, 0}";
},
{
name = center;
position = "{567, 0}";
},
{
name = top;
position = "{567, 0}";
}
);
layerId = "F26D4BF5-BF3F-42E5-900E-6C8346FBF199";
name = Regular;
paths = (
{
closed = 1;
nodes = (
"479 0 LINE",
"651 0 LINE",
"651 1308 LINE",
"1123 1308 LINE",
"1123 1456 LINE",
"10 1456 LINE",
"10 1308 LINE",
"479 1308 LINE"
);
}
);
width = 1133;
}
);
unicode = 0054;
},
{
glyphname = Tcommaaccent;
layers = (
{
layerId = "F26D4BF5-BF3F-42E5-900E-6C8346FBF199";
name = Regular;
paths = (
{
closed = 1;
nodes = (
"501 0 LINE",
"673 0 LINE",
"673 1308 LINE",
"1145 1308 LINE",
"1145 1456 LINE",
"32 1456 LINE",
"32 1308 LINE",
"501 1308 LINE"
);
},
{
closed = 1;
nodes = (
"399 -603 LINE",
"530 -603 LINE",
"693 -140 LINE",
"506 -140 LINE"
);
}
);
width = 1174;
}
);
unicode = 021A;
},
{
glyphname = U;
layers = (
{
anchors = (
{
name = ogonek;
position = "{1343, 10}";
},
{
name = top;
position = "{746, 0}";
}
);
layerId = "F26D4BF5-BF3F-42E5-900E-6C8346FBF199";
name = Regular;
paths = (
{
closed = 1;
nodes = (
"173 207 OFFCURVE",
"321 -23 OFFCURVE",
"738 -23 CURVE SMOOTH",
"1122 -23 OFFCURVE",
"1316 190 OFFCURVE",
"1318 551 CURVE SMOOTH",
"1319 1456 LINE",
"1147 1456 LINE",
"1147 539 LINE SMOOTH",
"1147 282 OFFCURVE",
"988 125 OFFCURVE",
"745 125 CURVE SMOOTH",
"483 125 OFFCURVE",
"345 275 OFFCURVE",
"345 546 CURVE SMOOTH",
"345 1456 LINE",
"173 1456 LINE",
"173 541 LINE SMOOTH"
);
}
);
width = 1492;
}
);
unicode = 0055;
},
{
glyphname = Uacute;
layers = (
{
layerId = "F26D4BF5-BF3F-42E5-900E-6C8346FBF199";
name = Regular;
paths = (
{
closed = 1;
nodes = (
"191 207 OFFCURVE",
"339 -23 OFFCURVE",
"756 -23 CURVE SMOOTH",
"1140 -23 OFFCURVE",
"1334 190 OFFCURVE",
"1336 551 CURVE SMOOTH",
"1337 1456 LINE",
"1165 1456 LINE",
"1165 539 LINE SMOOTH",
"1165 282 OFFCURVE",
"1006 125 OFFCURVE",
"763 125 CURVE SMOOTH",
"501 125 OFFCURVE",
"363 275 OFFCURVE",
"363 546 CURVE SMOOTH",
"363 1456 LINE",
"191 1456 LINE",
"191 541 LINE SMOOTH"
);
},
{
closed = 1;
nodes = (
"547 1602 LINE",
"677 1602 LINE",
"985 1922 LINE",
"773 1922 LINE"
);
}
);
width = 1532;
}
);
unicode = 00DA;
},
{
glyphname = Ucircumflex;
layers = (
{
layerId = "F26D4BF5-BF3F-42E5-900E-6C8346FBF199";
name = Regular;
paths = (
{
closed = 1;
nodes = (
"191 207 OFFCURVE",
"339 -23 OFFCURVE",
"756 -23 CURVE SMOOTH",
"1140 -23 OFFCURVE",
"1334 190 OFFCURVE",
"1336 551 CURVE SMOOTH",
"1337 1456 LINE",
"1165 1456 LINE",
"1165 539 LINE SMOOTH",
"1165 282 OFFCURVE",
"1006 125 OFFCURVE",
"763 125 CURVE SMOOTH",
"501 125 OFFCURVE",
"363 275 OFFCURVE",
"363 546 CURVE SMOOTH",
"363 1456 LINE",
"191 1456 LINE",
"191 541 LINE SMOOTH"
);
},
{
closed = 1;
nodes = (
"459 1600 LINE",
"585 1600 LINE",
"763 1816 LINE",
"941 1600 LINE",
"1073 1600 LINE",
"844 1924 LINE",
"687 1924 LINE"
);
}
);
width = 1532;
}
);
unicode = 00DB;
},
{
glyphname = Udieresis;
layers = (
{
layerId = "F26D4BF5-BF3F-42E5-900E-6C8346FBF199";
name = Regular;
paths = (
{
closed = 1;
nodes = (
"191 207 OFFCURVE",
"339 -23 OFFCURVE",
"756 -23 CURVE SMOOTH",
"1140 -23 OFFCURVE",
"1334 190 OFFCURVE",
"1336 551 CURVE SMOOTH",
"1337 1456 LINE",
"1165 1456 LINE",
"1165 539 LINE SMOOTH",
"1165 282 OFFCURVE",
"1006 125 OFFCURVE",
"763 125 CURVE SMOOTH",
"501 125 OFFCURVE",
"363 275 OFFCURVE",
"363 546 CURVE SMOOTH",
"363 1456 LINE",
"191 1456 LINE",
"191 541 LINE SMOOTH"
);
},
{
closed = 1;
nodes = (
"518 1613 LINE",
"682 1613 LINE",
"682 1776 LINE",
"518 1776 LINE"
);
},
{
closed = 1;
nodes = (
"850 1613 LINE",
"1014 1613 LINE",
"1014 1776 LINE",
"850 1776 LINE"
);
}
);
width = 1532;
}
);
unicode = 00DC;
},
{
glyphname = Ugrave;
layers = (
{
layerId = "F26D4BF5-BF3F-42E5-900E-6C8346FBF199";
name = Regular;
paths = (
{
closed = 1;
nodes = (
"191 207 OFFCURVE",
"339 -23 OFFCURVE",
"756 -23 CURVE SMOOTH",
"1140 -23 OFFCURVE",
"1334 190 OFFCURVE",
"1336 551 CURVE SMOOTH",
"1337 1456 LINE",
"1165 1456 LINE",
"1165 539 LINE SMOOTH",
"1165 282 OFFCURVE",
"1006 125 OFFCURVE",
"763 125 CURVE SMOOTH",
"501 125 OFFCURVE",
"363 275 OFFCURVE",
"363 546 CURVE SMOOTH",
"363 1456 LINE",
"191 1456 LINE",
"191 541 LINE SMOOTH"
);
},
{
closed = 1;
nodes = (
"867 1602 LINE",
"996 1602 LINE",
"749 1922 LINE",
"535 1922 LINE"
);
}
);
width = 1532;
}
);
unicode = 00D9;
},
{
glyphname = V;
layers = (
{
layerId = "F26D4BF5-BF3F-42E5-900E-6C8346FBF199";
name = Regular;
paths = (
{
closed = 1;
nodes = (
"516 0 LINE",
"705 0 LINE",
"1220 1456 LINE",
"1041 1456 LINE",
"662 350 LINE",
"614 208 LINE",
"568 349 LINE",
"191 1456 LINE",
"-1 1456 LINE"
);
}
);
width = 1219;
}
);
unicode = 0056;
},
{
glyphname = W;
lastChange = "2012-12-23 16:11:12 +0000";
layers = (
{
anchors = (
{
name = top;
position = "{956, 0}";
}
);
layerId = "F26D4BF5-BF3F-42E5-900E-6C8346FBF199";
name = Regular;
paths = (
{
closed = 1;
nodes = (
"389 0 LINE",
"602 0 LINE",
"957 1227 LINE",
"1310 0 LINE",
"1522 0 LINE",
"1905 1456 LINE",
"1725 1456 LINE",
"1454 362 LINE",
"1420 200 LINE",
"1372 375 LINE",
"1053 1456 LINE",
"872 1456 LINE",
"544 364 LINE",
"502 199 LINE",
"462 379 LINE",
"192 1456 LINE",
"6 1456 LINE"
);
}
);
width = 1911;
}
);
unicode = 0057;
},
{
glyphname = X;
layers = (
{
layerId = "F26D4BF5-BF3F-42E5-900E-6C8346FBF199";
name = Regular;
paths = (
{
closed = 1;
nodes = (
"-6 0 LINE",
"191 0 LINE",
"1161 1456 LINE",
"965 1456 LINE"
);
},
{
closed = 1;
nodes = (
"987 0 LINE",
"1188 0 LINE",
"209 1456 LINE",
"0 1456 LINE"
);
}
);
width = 1182;
}
);
unicode = 0058;
},
{
glyphname = Y;
layers = (
{
anchors = (
{
name = top;
position = "{573, 0}";
}
);
layerId = "F26D4BF5-BF3F-42E5-900E-6C8346FBF199";
name = Regular;
paths = (
{
closed = 1;
nodes = (
"482 0 LINE",
"654 0 LINE",
"654 585 LINE",
"1146 1456 LINE",
"955 1456 LINE",
"571 727 LINE",
"191 1456 LINE",
"0 1456 LINE",
"482 582 LINE"
);
}
);
width = 1146;
}
);
unicode = 0059;
},
{
glyphname = Yacute;
layers = (
{
layerId = "F26D4BF5-BF3F-42E5-900E-6C8346FBF199";
name = Regular;
paths = (
{
closed = 1;
nodes = (
"543 0 LINE",
"715 0 LINE",
"715 585 LINE",
"1258 1456 LINE",
"1067 1456 LINE",
"632 727 LINE",
"201 1456 LINE",
"10 1456 LINE",
"543 582 LINE"
);
},
{
closed = 1;
nodes = (
"414 1602 LINE",
"544 1602 LINE",
"852 1922 LINE",
"640 1922 LINE"
);
}
);
width = 1266;
}
);
unicode = 00DD;
},
{
glyphname = Ydieresis;
layers = (
{
layerId = "F26D4BF5-BF3F-42E5-900E-6C8346FBF199";
name = Regular;
paths = (
{
closed = 1;
nodes = (
"543 0 LINE",
"715 0 LINE",
"715 585 LINE",
"1258 1456 LINE",
"1067 1456 LINE",
"632 727 LINE",
"201 1456 LINE",
"10 1456 LINE",
"543 582 LINE"
);
},
{
closed = 1;
nodes = (
"405 1613 LINE",
"569 1613 LINE",
"569 1776 LINE",
"405 1776 LINE"
);
},
{
closed = 1;
nodes = (
"737 1613 LINE",
"901 1613 LINE",
"901 1776 LINE",
"737 1776 LINE"
);
}
);
width = 1266;
}
);
unicode = 0178;
},
{
glyphname = Z;
layers = (
{
anchors = (
{
name = top;
position = "{585, 0}";
}
);
layerId = "F26D4BF5-BF3F-42E5-900E-6C8346FBF199";
name = Regular;
paths = (
{
closed = 1;
nodes = (
"103 0 LINE",
"1111 0 LINE",
"1111 148 LINE",
"331 148 LINE",
"1119 1368 LINE",
"1119 1456 LINE",
"135 1456 LINE",
"135 1308 LINE",
"887 1308 LINE",
"103 92 LINE"
);
}
);
width = 1170;
}
);
unicode = 005A;
},
{
glyphname = Zacute;
layers = (
{
layerId = "F26D4BF5-BF3F-42E5-900E-6C8346FBF199";
name = Regular;
paths = (
{
closed = 1;
nodes = (
"58 0 LINE",
"1146 0 LINE",
"1146 148 LINE",
"286 148 LINE",
"1154 1368 LINE",
"1154 1456 LINE",
"90 1456 LINE",
"90 1308 LINE",
"922 1308 LINE",
"58 92 LINE"
);
},
{
closed = 1;
nodes = (
"392 1602 LINE",
"522 1602 LINE",
"830 1922 LINE",
"618 1922 LINE"
);
}
);
width = 1222;
}
);
unicode = 0179;
},
{
glyphname = Zcaron;
layers = (
{
layerId = "F26D4BF5-BF3F-42E5-900E-6C8346FBF199";
name = Regular;
paths = (
{
closed = 1;
nodes = (
"58 0 LINE",
"1146 0 LINE",
"1146 148 LINE",
"286 148 LINE",
"1154 1368 LINE",
"1154 1456 LINE",
"90 1456 LINE",
"90 1308 LINE",
"922 1308 LINE",
"58 92 LINE"
);
},
{
closed = 1;
nodes = (
"533 1600 LINE",
"689 1600 LINE",
"927 1923 LINE",
"773 1923 LINE",
"605 1708 LINE",
"441 1923 LINE",
"294 1923 LINE"
);
}
);
width = 1222;
}
);
unicode = 017D;
},
{
glyphname = Zdotaccent;
layers = (
{
layerId = "F26D4BF5-BF3F-42E5-900E-6C8346FBF199";
name = Regular;
paths = (
{
closed = 1;
nodes = (
"58 0 LINE",
"1146 0 LINE",
"1146 148 LINE",
"286 148 LINE",
"1154 1368 LINE",
"1154 1456 LINE",
"90 1456 LINE",
"90 1308 LINE",
"922 1308 LINE",
"58 92 LINE"
);
},
{
closed = 1;
nodes = (
"533 1676 LINE",
"691 1676 LINE",
"688 1839 LINE",
"531 1839 LINE"
);
}
);
width = 1222;
}
);
unicode = 017B;
},
{
glyphname = uni0200;
layers = (
{
layerId = "F26D4BF5-BF3F-42E5-900E-6C8346FBF199";
name = Regular;
paths = (
{
closed = 1;
nodes = (
"13 0 LINE",
"199 0 LINE",
"355 397 LINE",
"1053 397 LINE",
"1216 0 LINE",
"1407 0 LINE",
"802 1456 LINE",
"617 1456 LINE"
);
},
{
closed = 1;
nodes = (
"410 545 LINE",
"655 1149 LINE SMOOTH",
"670 1186 OFFCURVE",
"707 1298 OFFCURVE",
"707 1298 CURVE",
"707 1298 OFFCURVE",
"741 1200 OFFCURVE",
"760 1150 CURVE SMOOTH",
"994 545 LINE"
);
},
{
closed = 1;
nodes = (
"657 1604 LINE",
"777 1604 LINE",
"557 1917 LINE",
"381 1917 LINE"
);
},
{
closed = 1;
nodes = (
"926 1604 LINE",
"1044 1604 LINE",
"827 1917 LINE",
"651 1917 LINE"
);
}
);
width = 1425;
}
);
unicode = 0200;
},
{
glyphname = uni0202;
layers = (
{
layerId = "F26D4BF5-BF3F-42E5-900E-6C8346FBF199";
name = Regular;
paths = (
{
closed = 1;
nodes = (
"13 0 LINE",
"199 0 LINE",
"355 397 LINE",
"1053 397 LINE",
"1216 0 LINE",
"1407 0 LINE",
"802 1456 LINE",
"617 1456 LINE"
);
},
{
closed = 1;
nodes = (
"549 1884 OFFCURVE",
"443 1809 OFFCURVE",
"430 1648 CURVE",
"517 1648 LINE",
"533 1744 OFFCURVE",
"619 1777 OFFCURVE",
"707 1777 CURVE SMOOTH",
"795 1777 OFFCURVE",
"886 1739 OFFCURVE",
"908 1648 CURVE",
"994 1648 LINE",
"982 1806 OFFCURVE",
"871 1884 OFFCURVE",
"714 1884 CURVE SMOOTH"
);
},
{
closed = 1;
nodes = (
"410 545 LINE",
"655 1149 LINE SMOOTH",
"670 1186 OFFCURVE",
"707 1298 OFFCURVE",
"707 1298 CURVE",
"707 1298 OFFCURVE",
"741 1200 OFFCURVE",
"760 1150 CURVE SMOOTH",
"994 545 LINE"
);
}
);
width = 1425;
}
);
unicode = 0202;
},
{
glyphname = uni0204;
layers = (
{
layerId = "F26D4BF5-BF3F-42E5-900E-6C8346FBF199";
name = Regular;
paths = (
{
closed = 1;
nodes = (
"205 0 LINE",
"1102 0 LINE",
"1102 148 LINE",
"377 148 LINE",
"377 672 LINE",
"1034 672 LINE",
"1034 820 LINE",
"377 820 LINE",
"377 1308 LINE",
"1072 1308 LINE",
"1072 1456 LINE",
"205 1456 LINE"
);
},
{
closed = 1;
nodes = (
"553 1604 LINE",
"673 1604 LINE",
"453 1917 LINE",
"277 1917 LINE"
);
},
{
closed = 1;
nodes = (
"822 1604 LINE",
"940 1604 LINE",
"723 1917 LINE",
"547 1917 LINE"
);
}
);
width = 1218;
}
);
unicode = 0204;
},
{
glyphname = uni0206;
layers = (
{
layerId = "F26D4BF5-BF3F-42E5-900E-6C8346FBF199";
name = Regular;
paths = (
{
closed = 1;
nodes = (
"205 0 LINE",
"1102 0 LINE",
"1102 148 LINE",
"377 148 LINE",
"377 672 LINE",
"1034 672 LINE",
"1034 820 LINE",
"377 820 LINE",
"377 1308 LINE",
"1072 1308 LINE",
"1072 1456 LINE",
"205 1456 LINE"
);
},
{
closed = 1;
nodes = (
"446 1884 OFFCURVE",
"340 1809 OFFCURVE",
"327 1648 CURVE",
"414 1648 LINE",
"430 1744 OFFCURVE",
"516 1777 OFFCURVE",
"604 1777 CURVE SMOOTH",
"692 1777 OFFCURVE",
"783 1739 OFFCURVE",
"805 1648 CURVE",
"891 1648 LINE",
"879 1806 OFFCURVE",
"768 1884 OFFCURVE",
"611 1884 CURVE SMOOTH"
);
}
);
width = 1218;
}
);
unicode = 0206;
},
{
glyphname = uni0208;
layers = (
{
layerId = "F26D4BF5-BF3F-42E5-900E-6C8346FBF199";
name = Regular;
paths = (
{
closed = 1;
nodes = (
"240 1604 LINE",
"360 1604 LINE",
"140 1917 LINE",
"-36 1917 LINE"
);
},
{
closed = 1;
nodes = (
"210 0 LINE",
"382 0 LINE",
"382 1456 LINE",
"210 1456 LINE"
);
},
{
closed = 1;
nodes = (
"509 1604 LINE",
"627 1604 LINE",
"410 1917 LINE",
"234 1917 LINE"
);
}
);
width = 591;
}
);
unicode = 0208;
},
{
glyphname = uni020A;
layers = (
{
layerId = "F26D4BF5-BF3F-42E5-900E-6C8346FBF199";
name = Regular;
paths = (
{
closed = 1;
nodes = (
"133 1884 OFFCURVE",
"27 1809 OFFCURVE",
"14 1648 CURVE",
"101 1648 LINE",
"117 1744 OFFCURVE",
"203 1777 OFFCURVE",
"291 1777 CURVE SMOOTH",
"379 1777 OFFCURVE",
"470 1739 OFFCURVE",
"492 1648 CURVE",
"578 1648 LINE",
"566 1806 OFFCURVE",
"455 1884 OFFCURVE",
"298 1884 CURVE SMOOTH"
);
},
{
closed = 1;
nodes = (
"210 0 LINE",
"382 0 LINE",
"382 1456 LINE",
"210 1456 LINE"
);
}
);
width = 591;
}
);
unicode = 020A;
},
{
glyphname = uni020C;
layers = (
{
layerId = "F26D4BF5-BF3F-42E5-900E-6C8346FBF199";
name = Regular;
paths = (
{
closed = 1;
nodes = (
"776 1604 LINE",
"896 1604 LINE",
"676 1917 LINE",
"500 1917 LINE"
);
},
{
closed = 1;
nodes = (
"1356 387 OFFCURVE",
"1180 125 OFFCURVE",
"827 125 CURVE SMOOTH",
"478 125 OFFCURVE",
"298 390 OFFCURVE",
"298 725 CURVE SMOOTH",
"298 1048 OFFCURVE",
"482 1335 OFFCURVE",
"830 1335 CURVE SMOOTH",
"1182 1335 OFFCURVE",
"1356 1073 OFFCURVE",
"1356 734 CURVE SMOOTH"
);
},
{
closed = 1;
nodes = (
"114 271 OFFCURVE",
"384 -23 OFFCURVE",
"829 -23 CURVE SMOOTH",
"1278 -23 OFFCURVE",
"1544 286 OFFCURVE",
"1544 726 CURVE SMOOTH",
"1544 1184 OFFCURVE",
"1273 1483 OFFCURVE",
"837 1483 CURVE SMOOTH",
"382 1483 OFFCURVE",
"114 1166 OFFCURVE",
"114 729 CURVE SMOOTH"
);
},
{
closed = 1;
nodes = (
"1045 1604 LINE",
"1163 1604 LINE",
"946 1917 LINE",
"770 1917 LINE"
);
}
);
width = 1663;
}
);
unicode = 020C;
},
{
glyphname = uni020E;
layers = (
{
layerId = "F26D4BF5-BF3F-42E5-900E-6C8346FBF199";
name = Regular;
paths = (
{
closed = 1;
nodes = (
"668 1884 OFFCURVE",
"562 1809 OFFCURVE",
"549 1648 CURVE",
"636 1648 LINE",
"652 1744 OFFCURVE",
"738 1777 OFFCURVE",
"826 1777 CURVE SMOOTH",
"914 1777 OFFCURVE",
"1005 1739 OFFCURVE",
"1027 1648 CURVE",
"1113 1648 LINE",
"1101 1806 OFFCURVE",
"990 1884 OFFCURVE",
"833 1884 CURVE SMOOTH"
);
},
{
closed = 1;
nodes = (
"1356 387 OFFCURVE",
"1180 125 OFFCURVE",
"827 125 CURVE SMOOTH",
"478 125 OFFCURVE",
"298 390 OFFCURVE",
"298 725 CURVE SMOOTH",
"298 1048 OFFCURVE",
"482 1335 OFFCURVE",
"830 1335 CURVE SMOOTH",
"1182 1335 OFFCURVE",
"1356 1073 OFFCURVE",
"1356 734 CURVE SMOOTH"
);
},
{
closed = 1;
nodes = (
"114 271 OFFCURVE",
"384 -23 OFFCURVE",
"829 -23 CURVE SMOOTH",
"1278 -23 OFFCURVE",
"1544 286 OFFCURVE",
"1544 726 CURVE SMOOTH",
"1544 1184 OFFCURVE",
"1273 1483 OFFCURVE",
"837 1483 CURVE SMOOTH",
"382 1483 OFFCURVE",
"114 1166 OFFCURVE",
"114 729 CURVE SMOOTH"
);
}
);
width = 1663;
}
);
unicode = 020E;
},
{
glyphname = uni0210;
layers = (
{
layerId = "F26D4BF5-BF3F-42E5-900E-6C8346FBF199";
name = Regular;
paths = (
{
closed = 1;
nodes = (
"205 0 LINE",
"377 0 LINE",
"377 652 LINE",
"647 652 LINE SMOOTH",
"825 652 OFFCURVE",
"880 600 OFFCURVE",
"946 419 CURVE SMOOTH",
"1099 0 LINE",
"1287 0 LINE",
"1200 214 LINE SMOOTH",
"1080 510 OFFCURVE",
"1053 662 OFFCURVE",
"889 715 CURVE",
"888 715 LINE",
"1076 762 OFFCURVE",
"1199 890 OFFCURVE",
"1199 1074 CURVE SMOOTH",
"1199 1452 OFFCURVE",
"799 1456 OFFCURVE",
"561 1456 CURVE SMOOTH",
"205 1456 LINE"
);
},
{
closed = 1;
nodes = (
"377 799 LINE",
"377 1308 LINE",
"654 1308 LINE SMOOTH",
"861 1308 OFFCURVE",
"1017 1259 OFFCURVE",
"1017 1058 CURVE SMOOTH",
"1017 854 OFFCURVE",
"823 799 OFFCURVE",
"643 799 CURVE SMOOTH"
);
},
{
closed = 1;
nodes = (
"633 1604 LINE",
"753 1604 LINE",
"533 1917 LINE",
"357 1917 LINE"
);
},
{
closed = 1;
nodes = (
"902 1604 LINE",
"1020 1604 LINE",
"803 1917 LINE",
"627 1917 LINE"
);
}
);
width = 1377;
}
);
unicode = 0210;
},
{
glyphname = uni0212;
layers = (
{
layerId = "F26D4BF5-BF3F-42E5-900E-6C8346FBF199";
name = Regular;
paths = (
{
closed = 1;
nodes = (
"205 0 LINE",
"377 0 LINE",
"377 652 LINE",
"647 652 LINE SMOOTH",
"825 652 OFFCURVE",
"880 600 OFFCURVE",
"946 419 CURVE SMOOTH",
"1099 0 LINE",
"1287 0 LINE",
"1200 214 LINE SMOOTH",
"1080 510 OFFCURVE",
"1053 662 OFFCURVE",
"889 715 CURVE",
"888 715 LINE",
"1076 762 OFFCURVE",
"1199 890 OFFCURVE",
"1199 1074 CURVE SMOOTH",
"1199 1452 OFFCURVE",
"799 1456 OFFCURVE",
"561 1456 CURVE SMOOTH",
"205 1456 LINE"
);
},
{
closed = 1;
nodes = (
"525 1884 OFFCURVE",
"419 1809 OFFCURVE",
"406 1648 CURVE",
"493 1648 LINE",
"509 1744 OFFCURVE",
"595 1777 OFFCURVE",
"683 1777 CURVE SMOOTH",
"771 1777 OFFCURVE",
"862 1739 OFFCURVE",
"884 1648 CURVE",
"970 1648 LINE",
"958 1806 OFFCURVE",
"847 1884 OFFCURVE",
"690 1884 CURVE SMOOTH"
);
},
{
closed = 1;
nodes = (
"377 799 LINE",
"377 1308 LINE",
"654 1308 LINE SMOOTH",
"861 1308 OFFCURVE",
"1017 1259 OFFCURVE",
"1017 1058 CURVE SMOOTH",
"1017 854 OFFCURVE",
"823 799 OFFCURVE",
"643 799 CURVE SMOOTH"
);
}
);
width = 1377;
}
);
unicode = 0212;
},
{
glyphname = uni0214;
layers = (
{
layerId = "F26D4BF5-BF3F-42E5-900E-6C8346FBF199";
name = Regular;
paths = (
{
closed = 1;
nodes = (
"191 207 OFFCURVE",
"339 -23 OFFCURVE",
"756 -23 CURVE SMOOTH",
"1140 -23 OFFCURVE",
"1334 190 OFFCURVE",
"1336 551 CURVE SMOOTH",
"1337 1456 LINE",
"1165 1456 LINE",
"1165 539 LINE SMOOTH",
"1165 282 OFFCURVE",
"1006 125 OFFCURVE",
"763 125 CURVE SMOOTH",
"501 125 OFFCURVE",
"363 275 OFFCURVE",
"363 546 CURVE SMOOTH",
"363 1456 LINE",
"191 1456 LINE",
"191 541 LINE SMOOTH"
);
},
{
closed = 1;
nodes = (
"710 1604 LINE",
"830 1604 LINE",
"610 1917 LINE",
"434 1917 LINE"
);
},
{
closed = 1;
nodes = (
"979 1604 LINE",
"1097 1604 LINE",
"880 1917 LINE",
"704 1917 LINE"
);
}
);
width = 1532;
}
);
unicode = 0214;
},
{
glyphname = uni0216;
layers = (
{
layerId = "F26D4BF5-BF3F-42E5-900E-6C8346FBF199";
name = Regular;
paths = (
{
closed = 1;
nodes = (
"191 207 OFFCURVE",
"339 -23 OFFCURVE",
"756 -23 CURVE SMOOTH",
"1140 -23 OFFCURVE",
"1334 190 OFFCURVE",
"1336 551 CURVE SMOOTH",
"1337 1456 LINE",
"1165 1456 LINE",
"1165 539 LINE SMOOTH",
"1165 282 OFFCURVE",
"1006 125 OFFCURVE",
"763 125 CURVE SMOOTH",
"501 125 OFFCURVE",
"363 275 OFFCURVE",
"363 546 CURVE SMOOTH",
"363 1456 LINE",
"191 1456 LINE",
"191 541 LINE SMOOTH"
);
},
{
closed = 1;
nodes = (
"603 1884 OFFCURVE",
"497 1809 OFFCURVE",
"484 1648 CURVE",
"571 1648 LINE",
"587 1744 OFFCURVE",
"673 1777 OFFCURVE",
"761 1777 CURVE SMOOTH",
"849 1777 OFFCURVE",
"940 1739 OFFCURVE",
"962 1648 CURVE",
"1048 1648 LINE",
"1036 1806 OFFCURVE",
"925 1884 OFFCURVE",
"768 1884 CURVE SMOOTH"
);
}
);
width = 1532;
}
);
unicode = 0216;
},
{
glyphname = uni0218;
layers = (
{
layerId = "F26D4BF5-BF3F-42E5-900E-6C8346FBF199";
name = Regular;
paths = (
{
closed = 1;
nodes = (
"215 50 OFFCURVE",
"377 -23 OFFCURVE",
"572 -23 CURVE SMOOTH",
"841 -23 OFFCURVE",
"1134 78 OFFCURVE",
"1134 364 CURVE SMOOTH",
"1134 841 OFFCURVE",
"324 763 OFFCURVE",
"324 1105 CURVE SMOOTH",
"324 1270 OFFCURVE",
"505 1334 OFFCURVE",
"667 1334 CURVE SMOOTH",
"786 1334 OFFCURVE",
"918 1306 OFFCURVE",
"998 1217 CURVE",
"1081 1329 LINE",
"996 1449 OFFCURVE",
"817 1483 OFFCURVE",
"666 1483 CURVE SMOOTH",
"403 1483 OFFCURVE",
"141 1350 OFFCURVE",
"141 1095 CURVE SMOOTH",
"141 619 OFFCURVE",
"950 716 OFFCURVE",
"950 365 CURVE SMOOTH",
"950 209 OFFCURVE",
"801 125 OFFCURVE",
"591 125 CURVE SMOOTH",
"459 125 OFFCURVE",
"303 165 OFFCURVE",
"215 271 CURVE",
"137 161 LINE"
);
},
{
closed = 1;
nodes = (
"440 -625 LINE",
"571 -625 LINE",
"734 -162 LINE",
"547 -162 LINE"
);
}
);
width = 1174;
}
);
unicode = 0218;
},
{
glyphname = uni021A;
layers = (
{
layerId = "F26D4BF5-BF3F-42E5-900E-6C8346FBF199";
name = Regular;
paths = (
{
closed = 1;
nodes = (
"501 0 LINE",
"673 0 LINE",
"673 1308 LINE",
"1145 1308 LINE",
"1145 1456 LINE",
"32 1456 LINE",
"32 1308 LINE",
"501 1308 LINE"
);
},
{
closed = 1;
nodes = (
"440 -625 LINE",
"571 -625 LINE",
"734 -162 LINE",
"547 -162 LINE"
);
}
);
width = 1174;
}
);
unicode = 021A;
},
{
glyphname = a;
lastChange = "2012-12-23 16:13:15 +0000";
layers = (
{
anchors = (
{
name = ogonek;
position = "{1146, 10}";
},
{
name = top;
position = "{638, 0}";
}
);
layerId = "F26D4BF5-BF3F-42E5-900E-6C8346FBF199";
name = Regular;
paths = (
{
closed = 1;
nodes = (
"96 247 OFFCURVE",
"249 -23 OFFCURVE",
"593 -23 CURVE SMOOTH",
"757 -23 OFFCURVE",
"873 42 OFFCURVE",
"929 154 CURVE",
"929 0 LINE",
"1092 0 LINE",
"1092 1026 LINE",
"933 1026 LINE",
"933 865 LINE",
"910 921 OFFCURVE",
"807 1051 OFFCURVE",
"599 1051 CURVE SMOOTH",
"264 1051 OFFCURVE",
"96 802 OFFCURVE",
"96 524 CURVE SMOOTH"
);
},
{
closed = 1;
nodes = (
"931 241 OFFCURVE",
"813 109 OFFCURVE",
"609 109 CURVE SMOOTH",
"359 109 OFFCURVE",
"269 316 OFFCURVE",
"269 516 CURVE SMOOTH",
"269 714 OFFCURVE",
"366 913 OFFCURVE",
"599 917 CURVE SMOOTH",
"823 921 OFFCURVE",
"931 775 OFFCURVE",
"931 550 CURVE SMOOTH"
);
}
);
width = 1268;
}
);
unicode = 0061;
},
{
glyphname = aacute;
layers = (
{
layerId = "F26D4BF5-BF3F-42E5-900E-6C8346FBF199";
name = Regular;
paths = (
{
closed = 1;
nodes = (
"89 267 OFFCURVE",
"240 -23 OFFCURVE",
"584 -23 CURVE SMOOTH",
"748 -23 OFFCURVE",
"881 58 OFFCURVE",
"945 144 CURVE",
"943 0 LINE",
"1108 0 LINE",
"1108 1026 LINE",
"949 1026 LINE",
"943 885 LINE",
"858 989 OFFCURVE",
"749 1051 OFFCURVE",
"582 1051 CURVE SMOOTH",
"251 1051 OFFCURVE",
"89 789 OFFCURVE",
"89 524 CURVE SMOOTH"
);
},
{
closed = 1;
nodes = (
"943 261 OFFCURVE",
"785 109 OFFCURVE",
"601 109 CURVE SMOOTH",
"318 109 OFFCURVE",
"251 331 OFFCURVE",
"251 516 CURVE SMOOTH",
"251 704 OFFCURVE",
"352 917 OFFCURVE",
"595 917 CURVE SMOOTH",
"809 917 OFFCURVE",
"943 765 OFFCURVE",
"943 550 CURVE SMOOTH"
);
},
{
closed = 1;
nodes = (
"403 1172 LINE",
"533 1172 LINE",
"841 1492 LINE",
"629 1492 LINE"
);
}
);
width = 1244;
}
);
unicode = 00E1;
},
{
glyphname = abreve;
layers = (
{
layerId = "F26D4BF5-BF3F-42E5-900E-6C8346FBF199";
name = Regular;
paths = (
{
closed = 1;
nodes = (
"89 267 OFFCURVE",
"240 -23 OFFCURVE",
"584 -23 CURVE SMOOTH",
"748 -23 OFFCURVE",
"881 58 OFFCURVE",
"945 144 CURVE",
"943 0 LINE",
"1108 0 LINE",
"1108 1026 LINE",
"949 1026 LINE",
"943 885 LINE",
"858 989 OFFCURVE",
"749 1051 OFFCURVE",
"582 1051 CURVE SMOOTH",
"251 1051 OFFCURVE",
"89 789 OFFCURVE",
"89 524 CURVE SMOOTH"
);
},
{
closed = 1;
nodes = (
"331 1293 OFFCURVE",
"437 1218 OFFCURVE",
"602 1218 CURVE SMOOTH",
"759 1218 OFFCURVE",
"870 1296 OFFCURVE",
"882 1454 CURVE",
"796 1454 LINE",
"774 1363 OFFCURVE",
"683 1325 OFFCURVE",
"595 1325 CURVE SMOOTH",
"507 1325 OFFCURVE",
"421 1358 OFFCURVE",
"405 1454 CURVE",
"318 1454 LINE"
);
},
{
closed = 1;
nodes = (
"943 261 OFFCURVE",
"785 109 OFFCURVE",
"601 109 CURVE SMOOTH",
"318 109 OFFCURVE",
"251 331 OFFCURVE",
"251 516 CURVE SMOOTH",
"251 704 OFFCURVE",
"352 917 OFFCURVE",
"595 917 CURVE SMOOTH",
"809 917 OFFCURVE",
"943 765 OFFCURVE",
"943 550 CURVE SMOOTH"
);
}
);
width = 1244;
}
);
unicode = 0103;
},
{
glyphname = acircumflex;
layers = (
{
layerId = "F26D4BF5-BF3F-42E5-900E-6C8346FBF199";
name = Regular;
paths = (
{
closed = 1;
nodes = (
"89 267 OFFCURVE",
"240 -23 OFFCURVE",
"584 -23 CURVE SMOOTH",
"748 -23 OFFCURVE",
"881 58 OFFCURVE",
"945 144 CURVE",
"943 0 LINE",
"1108 0 LINE",
"1108 1026 LINE",
"949 1026 LINE",
"943 885 LINE",
"858 989 OFFCURVE",
"749 1051 OFFCURVE",
"582 1051 CURVE SMOOTH",
"251 1051 OFFCURVE",
"89 789 OFFCURVE",
"89 524 CURVE SMOOTH"
);
},
{
closed = 1;
nodes = (
"315 1170 LINE",
"441 1170 LINE",
"619 1386 LINE",
"797 1170 LINE",
"929 1170 LINE",
"700 1494 LINE",
"543 1494 LINE"
);
},
{
closed = 1;
nodes = (
"943 261 OFFCURVE",
"785 109 OFFCURVE",
"601 109 CURVE SMOOTH",
"318 109 OFFCURVE",
"251 331 OFFCURVE",
"251 516 CURVE SMOOTH",
"251 704 OFFCURVE",
"352 917 OFFCURVE",
"595 917 CURVE SMOOTH",
"809 917 OFFCURVE",
"943 765 OFFCURVE",
"943 550 CURVE SMOOTH"
);
}
);
width = 1244;
}
);
unicode = 00E2;
},
{
glyphname = adieresis;
layers = (
{
layerId = "F26D4BF5-BF3F-42E5-900E-6C8346FBF199";
name = Regular;
paths = (
{
closed = 1;
nodes = (
"89 267 OFFCURVE",
"240 -23 OFFCURVE",
"584 -23 CURVE SMOOTH",
"748 -23 OFFCURVE",
"881 58 OFFCURVE",
"945 144 CURVE",
"943 0 LINE",
"1108 0 LINE",
"1108 1026 LINE",
"949 1026 LINE",
"943 885 LINE",
"858 989 OFFCURVE",
"749 1051 OFFCURVE",
"582 1051 CURVE SMOOTH",
"251 1051 OFFCURVE",
"89 789 OFFCURVE",
"89 524 CURVE SMOOTH"
);
},
{
closed = 1;
nodes = (
"351 1183 LINE",
"515 1183 LINE",
"515 1346 LINE",
"351 1346 LINE"
);
},
{
closed = 1;
nodes = (
"943 261 OFFCURVE",
"785 109 OFFCURVE",
"601 109 CURVE SMOOTH",
"318 109 OFFCURVE",
"251 331 OFFCURVE",
"251 516 CURVE SMOOTH",
"251 704 OFFCURVE",
"352 917 OFFCURVE",
"595 917 CURVE SMOOTH",
"809 917 OFFCURVE",
"943 765 OFFCURVE",
"943 550 CURVE SMOOTH"
);
},
{
closed = 1;
nodes = (
"683 1183 LINE",
"847 1183 LINE",
"847 1346 LINE",
"683 1346 LINE"
);
}
);
width = 1244;
}
);
unicode = 00E4;
},
{
glyphname = agrave;
layers = (
{
layerId = "F26D4BF5-BF3F-42E5-900E-6C8346FBF199";
name = Regular;
paths = (
{
closed = 1;
nodes = (
"89 267 OFFCURVE",
"240 -23 OFFCURVE",
"584 -23 CURVE SMOOTH",
"748 -23 OFFCURVE",
"881 58 OFFCURVE",
"945 144 CURVE",
"943 0 LINE",
"1108 0 LINE",
"1108 1026 LINE",
"949 1026 LINE",
"943 885 LINE",
"858 989 OFFCURVE",
"749 1051 OFFCURVE",
"582 1051 CURVE SMOOTH",
"251 1051 OFFCURVE",
"89 789 OFFCURVE",
"89 524 CURVE SMOOTH"
);
},
{
closed = 1;
nodes = (
"943 261 OFFCURVE",
"785 109 OFFCURVE",
"601 109 CURVE SMOOTH",
"318 109 OFFCURVE",
"251 331 OFFCURVE",
"251 516 CURVE SMOOTH",
"251 704 OFFCURVE",
"352 917 OFFCURVE",
"595 917 CURVE SMOOTH",
"809 917 OFFCURVE",
"943 765 OFFCURVE",
"943 550 CURVE SMOOTH"
);
},
{
closed = 1;
nodes = (
"723 1172 LINE",
"852 1172 LINE",
"605 1492 LINE",
"391 1492 LINE"
);
}
);
width = 1244;
}
);
unicode = 00E0;
},
{
glyphname = amacron;
layers = (
{
layerId = "F26D4BF5-BF3F-42E5-900E-6C8346FBF199";
name = Regular;
paths = (
{
closed = 1;
nodes = (
"89 267 OFFCURVE",
"240 -23 OFFCURVE",
"584 -23 CURVE SMOOTH",
"748 -23 OFFCURVE",
"881 58 OFFCURVE",
"945 144 CURVE",
"943 0 LINE",
"1108 0 LINE",
"1108 1026 LINE",
"949 1026 LINE",
"943 885 LINE",
"858 989 OFFCURVE",
"749 1051 OFFCURVE",
"582 1051 CURVE SMOOTH",
"251 1051 OFFCURVE",
"89 789 OFFCURVE",
"89 524 CURVE SMOOTH"
);
},
{
closed = 1;
nodes = (
"943 261 OFFCURVE",
"785 109 OFFCURVE",
"601 109 CURVE SMOOTH",
"318 109 OFFCURVE",
"251 331 OFFCURVE",
"251 516 CURVE SMOOTH",
"251 704 OFFCURVE",
"352 917 OFFCURVE",
"595 917 CURVE SMOOTH",
"809 917 OFFCURVE",
"943 765 OFFCURVE",
"943 550 CURVE SMOOTH"
);
},
{
closed = 1;
nodes = (
"315 1183 LINE",
"886 1183 LINE",
"885 1317 LINE",
"314 1317 LINE"
);
}
);
width = 1244;
}
);
unicode = 0101;
},
{
glyphname = aogonek;
layers = (
{
layerId = "F26D4BF5-BF3F-42E5-900E-6C8346FBF199";
name = Regular;
paths = (
{
closed = 1;
nodes = (
"89 267 OFFCURVE",
"240 -23 OFFCURVE",
"584 -23 CURVE SMOOTH",
"748 -23 OFFCURVE",
"881 58 OFFCURVE",
"945 144 CURVE",
"943 0 LINE",
"1108 0 LINE",
"1108 1026 LINE",
"949 1026 LINE",
"943 885 LINE",
"858 989 OFFCURVE",
"749 1051 OFFCURVE",
"582 1051 CURVE SMOOTH",
"251 1051 OFFCURVE",
"89 789 OFFCURVE",
"89 524 CURVE SMOOTH"
);
},
{
closed = 1;
nodes = (
"803 -331 OFFCURVE",
"899 -390 OFFCURVE",
"1021 -390 CURVE SMOOTH",
"1081 -390 OFFCURVE",
"1158 -377 OFFCURVE",
"1198 -361 CURVE",
"1198 -250 LINE",
"1143 -271 OFFCURVE",
"1105 -281 OFFCURVE",
"1044 -281 CURVE SMOOTH",
"996 -281 OFFCURVE",
"944 -249 OFFCURVE",
"944 -199 CURVE SMOOTH",
"944 -136 OFFCURVE",
"1030 -71 OFFCURVE",
"1147 0 CURVE",
"1018 12 LINE",
"909 -42 OFFCURVE",
"803 -123 OFFCURVE",
"803 -225 CURVE SMOOTH"
);
},
{
closed = 1;
nodes = (
"943 261 OFFCURVE",
"785 109 OFFCURVE",
"601 109 CURVE SMOOTH",
"318 109 OFFCURVE",
"251 331 OFFCURVE",
"251 516 CURVE SMOOTH",
"251 704 OFFCURVE",
"352 917 OFFCURVE",
"595 917 CURVE SMOOTH",
"809 917 OFFCURVE",
"943 765 OFFCURVE",
"943 550 CURVE SMOOTH"
);
}
);
width = 1244;
}
);
unicode = 0105;
},
{
glyphname = aring;
layers = (
{
layerId = "F26D4BF5-BF3F-42E5-900E-6C8346FBF199";
name = Regular;
paths = (
{
closed = 1;
nodes = (
"89 267 OFFCURVE",
"240 -23 OFFCURVE",
"584 -23 CURVE SMOOTH",
"748 -23 OFFCURVE",
"881 58 OFFCURVE",
"945 144 CURVE",
"943 0 LINE",
"1108 0 LINE",
"1108 1026 LINE",
"949 1026 LINE",
"943 885 LINE",
"858 989 OFFCURVE",
"749 1051 OFFCURVE",
"582 1051 CURVE SMOOTH",
"251 1051 OFFCURVE",
"89 789 OFFCURVE",
"89 524 CURVE SMOOTH"
);
},
{
closed = 1;
nodes = (
"943 261 OFFCURVE",
"785 109 OFFCURVE",
"601 109 CURVE SMOOTH",
"318 109 OFFCURVE",
"251 331 OFFCURVE",
"251 516 CURVE SMOOTH",
"251 704 OFFCURVE",
"352 917 OFFCURVE",
"595 917 CURVE SMOOTH",
"809 917 OFFCURVE",
"943 765 OFFCURVE",
"943 550 CURVE SMOOTH"
);
},
{
closed = 1;
nodes = (
"732 1283 OFFCURVE",
"679 1235 OFFCURVE",
"621 1235 CURVE SMOOTH",
"553 1235 OFFCURVE",
"511 1279 OFFCURVE",
"511 1340 CURVE SMOOTH",
"511 1397 OFFCURVE",
"563 1445 OFFCURVE",
"621 1445 CURVE SMOOTH",
"683 1445 OFFCURVE",
"732 1398 OFFCURVE",
"732 1340 CURVE SMOOTH"
);
},
{
closed = 1;
nodes = (
"412 1232 OFFCURVE",
"506 1149 OFFCURVE",
"623 1149 CURVE SMOOTH",
"736 1149 OFFCURVE",
"832 1234 OFFCURVE",
"832 1340 CURVE SMOOTH",
"832 1445 OFFCURVE",
"740 1530 OFFCURVE",
"622 1530 CURVE SMOOTH",
"507 1530 OFFCURVE",
"412 1449 OFFCURVE",
"412 1339 CURVE SMOOTH"
);
}
);
width = 1244;
}
);
unicode = 00E5;
},
{
glyphname = atilde;
layers = (
{
layerId = "F26D4BF5-BF3F-42E5-900E-6C8346FBF199";
name = Regular;
paths = (
{
closed = 1;
nodes = (
"89 267 OFFCURVE",
"240 -23 OFFCURVE",
"584 -23 CURVE SMOOTH",
"748 -23 OFFCURVE",
"881 58 OFFCURVE",
"945 144 CURVE",
"943 0 LINE",
"1108 0 LINE",
"1108 1026 LINE",
"949 1026 LINE",
"943 885 LINE",
"858 989 OFFCURVE",
"749 1051 OFFCURVE",
"582 1051 CURVE SMOOTH",
"251 1051 OFFCURVE",
"89 789 OFFCURVE",
"89 524 CURVE SMOOTH"
);
},
{
closed = 1;
nodes = (
"387 1413 OFFCURVE",
"311 1328 OFFCURVE",
"300 1203 CURVE",
"405 1203 LINE",
"412 1260 OFFCURVE",
"443 1288 OFFCURVE",
"496 1288 CURVE SMOOTH",
"571 1288 OFFCURVE",
"670 1220 OFFCURVE",
"749 1220 CURVE SMOOTH",
"864 1220 OFFCURVE",
"932 1315 OFFCURVE",
"944 1435 CURVE",
"836 1435 LINE",
"828 1376 OFFCURVE",
"794 1345 OFFCURVE",
"749 1345 CURVE SMOOTH",
"672 1345 OFFCURVE",
"592 1413 OFFCURVE",
"499 1413 CURVE SMOOTH"
);
},
{
closed = 1;
nodes = (
"943 261 OFFCURVE",
"785 109 OFFCURVE",
"601 109 CURVE SMOOTH",
"318 109 OFFCURVE",
"251 331 OFFCURVE",
"251 516 CURVE SMOOTH",
"251 704 OFFCURVE",
"352 917 OFFCURVE",
"595 917 CURVE SMOOTH",
"809 917 OFFCURVE",
"943 765 OFFCURVE",
"943 550 CURVE SMOOTH"
);
}
);
width = 1244;
}
);
unicode = 00E3;
},
{
glyphname = ae;
layers = (
{
anchors = (
{
name = top;
position = "{904, 0}";
}
);
layerId = "F26D4BF5-BF3F-42E5-900E-6C8346FBF199";
name = Regular;
paths = (
{
closed = 1;
nodes = (
"81 90 OFFCURVE",
"230 -28 OFFCURVE",
"441 -28 CURVE SMOOTH",
"617 -28 OFFCURVE",
"768 59 OFFCURVE",
"854 197 CURVE",
"928 54 OFFCURVE",
"1071 -25 OFFCURVE",
"1232 -25 CURVE SMOOTH",
"1425 -25 OFFCURVE",
"1575 54 OFFCURVE",
"1664 206 CURVE",
"1577 292 LINE",
"1501 180 OFFCURVE",
"1379 113 OFFCURVE",
"1242 113 CURVE SMOOTH",
"1007 113 OFFCURVE",
"941 285 OFFCURVE",
"941 463 CURVE SMOOTH",
"941 468 OFFCURVE",
"942 475 OFFCURVE",
"942 479 CURVE",
"1697 479 LINE",
"1697 524 LINE SMOOTH",
"1697 839 OFFCURVE",
"1553 1053 OFFCURVE",
"1231 1053 CURVE SMOOTH",
"1086 1053 OFFCURVE",
"953 987 OFFCURVE",
"878 856 CURVE",
"844 992 OFFCURVE",
"672 1053 OFFCURVE",
"550 1053 CURVE SMOOTH",
"372 1053 OFFCURVE",
"223 996 OFFCURVE",
"148 856 CURVE",
"238 763 LINE",
"304 876 OFFCURVE",
"414 917 OFFCURVE",
"540 917 CURVE SMOOTH",
"712 917 OFFCURVE",
"771 782 OFFCURVE",
"771 628 CURVE SMOOTH",
"771 615 LINE",
"410 615 OFFCURVE",
"81 594 OFFCURVE",
"81 282 CURVE SMOOTH"
);
},
{
closed = 1;
nodes = (
"773 284 OFFCURVE",
"707 109 OFFCURVE",
"474 109 CURVE SMOOTH",
"356 109 OFFCURVE",
"250 159 OFFCURVE",
"250 290 CURVE SMOOTH",
"250 453 OFFCURVE",
"431 472 OFFCURVE",
"627 476 CURVE SMOOTH",
"773 479 LINE"
);
},
{
closed = 1;
nodes = (
"943 616 LINE",
"957 776 OFFCURVE",
"1066 917 OFFCURVE",
"1250 917 CURVE SMOOTH",
"1429 917 OFFCURVE",
"1507 798 OFFCURVE",
"1523 626 CURVE SMOOTH",
"1524 616 LINE"
);
}
);
width = 1807;
}
);
unicode = 00E6;
},
{
glyphname = b;
lastChange = "2012-12-23 15:42:38 +0000";
layers = (
{
layerId = "F26D4BF5-BF3F-42E5-900E-6C8346FBF199";
name = Regular;
paths = (
{
closed = 1;
nodes = (
"427 41 OFFCURVE",
"552 -23 OFFCURVE",
"694 -23 CURVE SMOOTH",
"986 -23 OFFCURVE",
"1169 196 OFFCURVE",
"1169 545 CURVE SMOOTH",
"1169 868 OFFCURVE",
"980 1051 OFFCURVE",
"705 1051 CURVE SMOOTH",
"556 1051 OFFCURVE",
"422 993 OFFCURVE",
"348 877 CURVE",
"348 1492 LINE",
"183 1492 LINE",
"183 270 LINE SMOOTH",
"183 237 OFFCURVE",
"176 0 OFFCURVE",
"176 0 CURVE",
"344 0 LINE",
"348 139 LINE"
);
},
{
closed = 1;
nodes = (
"995 279 OFFCURVE",
"877 109 OFFCURVE",
"690 109 CURVE SMOOTH",
"480 109 OFFCURVE",
"348 266 OFFCURVE",
"348 515 CURVE SMOOTH",
"348 762 OFFCURVE",
"477 917 OFFCURVE",
"683 917 CURVE SMOOTH",
"875 917 OFFCURVE",
"995 775 OFFCURVE",
"995 550 CURVE SMOOTH"
);
}
);
width = 1258;
}
);
unicode = 0062;
},
{
glyphname = c;
lastChange = "2012-12-23 18:08:39 +0000";
layers = (
{
anchors = (
{
name = bottom;
position = "{492, 0}";
},
{
name = top;
position = "{492, 0}";
}
);
layerId = "F26D4BF5-BF3F-42E5-900E-6C8346FBF199";
name = Regular;
paths = (
{
closed = 1;
nodes = (
"96 180 OFFCURVE",
"300 -23 OFFCURVE",
"603 -23 CURVE SMOOTH",
"745 -23 OFFCURVE",
"871 19 OFFCURVE",
"951 87 CURVE",
"899 202 LINE",
"825 145 OFFCURVE",
"714 109 OFFCURVE",
"609 109 CURVE SMOOTH",
"405 109 OFFCURVE",
"270 263 OFFCURVE",
"270 508 CURVE SMOOTH",
"270 759 OFFCURVE",
"404 917 OFFCURVE",
"617 917 CURVE SMOOTH",
"719 917 OFFCURVE",
"823 874 OFFCURVE",
"888 805 CURVE",
"936 922 LINE",
"869 1001 OFFCURVE",
"748 1051 OFFCURVE",
"622 1051 CURVE SMOOTH",
"299 1051 OFFCURVE",
"96 840 OFFCURVE",
"96 503 CURVE SMOOTH"
);
}
);
width = 979;
}
);
unicode = 0063;
},
{
glyphname = cacute;
layers = (
{
layerId = "F26D4BF5-BF3F-42E5-900E-6C8346FBF199";
name = Regular;
paths = (
{
closed = 1;
nodes = (
"92 214 OFFCURVE",
"264 -23 OFFCURVE",
"602 -23 CURVE SMOOTH",
"747 -23 OFFCURVE",
"867 10 OFFCURVE",
"964 87 CURVE",
"918 225 LINE",
"829 148 OFFCURVE",
"729 109 OFFCURVE",
"615 109 CURVE SMOOTH",
"375 109 OFFCURVE",
"265 283 OFFCURVE",
"265 508 CURVE SMOOTH",
"265 734 OFFCURVE",
"397 917 OFFCURVE",
"617 917 CURVE SMOOTH",
"721 917 OFFCURVE",
"818 880 OFFCURVE",
"881 801 CURVE",
"956 908 LINE",
"888 997 OFFCURVE",
"763 1051 OFFCURVE",
"602 1051 CURVE SMOOTH",
"276 1051 OFFCURVE",
"92 803 OFFCURVE",
"92 503 CURVE SMOOTH"
);
},
{
closed = 1;
nodes = (
"309 1172 LINE",
"439 1172 LINE",
"747 1492 LINE",
"535 1492 LINE"
);
}
);
width = 1046;
}
);
unicode = 0107;
},
{
glyphname = ccaron;
layers = (
{
layerId = "F26D4BF5-BF3F-42E5-900E-6C8346FBF199";
name = Regular;
paths = (
{
closed = 1;
nodes = (
"92 214 OFFCURVE",
"264 -23 OFFCURVE",
"602 -23 CURVE SMOOTH",
"747 -23 OFFCURVE",
"867 10 OFFCURVE",
"964 87 CURVE",
"918 225 LINE",
"829 148 OFFCURVE",
"729 109 OFFCURVE",
"615 109 CURVE SMOOTH",
"375 109 OFFCURVE",
"265 283 OFFCURVE",
"265 508 CURVE SMOOTH",
"265 734 OFFCURVE",
"397 917 OFFCURVE",
"617 917 CURVE SMOOTH",
"721 917 OFFCURVE",
"818 880 OFFCURVE",
"881 801 CURVE",
"956 908 LINE",
"888 997 OFFCURVE",
"763 1051 OFFCURVE",
"602 1051 CURVE SMOOTH",
"276 1051 OFFCURVE",
"92 803 OFFCURVE",
"92 503 CURVE SMOOTH"
);
},
{
closed = 1;
nodes = (
"445 1170 LINE",
"601 1170 LINE",
"839 1493 LINE",
"685 1493 LINE",
"517 1278 LINE",
"353 1493 LINE",
"206 1493 LINE"
);
}
);
width = 1046;
}
);
unicode = 010D;
},
{
glyphname = ccedilla;
layers = (
{
layerId = "F26D4BF5-BF3F-42E5-900E-6C8346FBF199";
name = Regular;
paths = (
{
closed = 1;
nodes = (
"497 -386 OFFCURVE",
"559 -396 OFFCURVE",
"611 -396 CURVE SMOOTH",
"747 -396 OFFCURVE",
"852 -346 OFFCURVE",
"852 -239 CURVE SMOOTH",
"852 -136 OFFCURVE",
"760 -95 OFFCURVE",
"652 -90 CURVE SMOOTH",
"643 -90 LINE",
"661 17 LINE",
"564 17 LINE",
"531 -173 LINE",
"531 -173 OFFCURVE",
"593 -168 OFFCURVE",
"600 -168 CURVE SMOOTH",
"664 -168 OFFCURVE",
"709 -187 OFFCURVE",
"709 -241 CURVE SMOOTH",
"709 -284 OFFCURVE",
"678 -313 OFFCURVE",
"595 -313 CURVE SMOOTH",
"554 -313 OFFCURVE",
"502 -304 OFFCURVE",
"444 -289 CURVE",
"436 -374 LINE"
);
},
{
closed = 1;
nodes = (
"92 214 OFFCURVE",
"264 -23 OFFCURVE",
"602 -23 CURVE SMOOTH",
"747 -23 OFFCURVE",
"867 10 OFFCURVE",
"964 87 CURVE",
"918 225 LINE",
"829 148 OFFCURVE",
"729 109 OFFCURVE",
"615 109 CURVE SMOOTH",
"375 109 OFFCURVE",
"265 283 OFFCURVE",
"265 508 CURVE SMOOTH",
"265 734 OFFCURVE",
"397 917 OFFCURVE",
"617 917 CURVE SMOOTH",
"721 917 OFFCURVE",
"818 880 OFFCURVE",
"881 801 CURVE",
"956 908 LINE",
"888 997 OFFCURVE",
"763 1051 OFFCURVE",
"602 1051 CURVE SMOOTH",
"276 1051 OFFCURVE",
"92 803 OFFCURVE",
"92 503 CURVE SMOOTH"
);
}
);
width = 1046;
}
);
unicode = 00E7;
},
{
glyphname = d;
lastChange = "2012-12-23 15:46:14 +0000";
layers = (
{
anchors = (
{
name = center;
position = "{632, 0}";
}
);
layerId = "F26D4BF5-BF3F-42E5-900E-6C8346FBF199";
name = Regular;
paths = (
{
closed = 1;
nodes = (
"96 181 OFFCURVE",
"275 -23 OFFCURVE",
"561 -23 CURVE SMOOTH",
"705 -23 OFFCURVE",
"841 43 OFFCURVE",
"915 147 CURVE",
"919 0 LINE",
"1086 0 LINE",
"1083 77 OFFCURVE",
"1081 176 OFFCURVE",
"1080 256 CURVE SMOOTH",
"1080 1492 LINE",
"915 1492 LINE",
"915 888 LINE",
"842 988 OFFCURVE",
"708 1051 OFFCURVE",
"569 1051 CURVE SMOOTH",
"278 1051 OFFCURVE",
"96 841 OFFCURVE",
"96 506 CURVE SMOOTH"
);
},
{
closed = 1;
nodes = (
"916 278 OFFCURVE",
"789 109 OFFCURVE",
"587 109 CURVE SMOOTH",
"392 109 OFFCURVE",
"270 263 OFFCURVE",
"270 507 CURVE SMOOTH",
"270 759 OFFCURVE",
"396 917 OFFCURVE",
"596 917 CURVE SMOOTH",
"793 917 OFFCURVE",
"916 775 OFFCURVE",
"916 548 CURVE SMOOTH"
);
}
);
width = 1262;
}
);
unicode = 0064;
},
{
glyphname = eth;
layers = (
{
layerId = "F26D4BF5-BF3F-42E5-900E-6C8346FBF199";
name = Regular;
paths = (
{
closed = 1;
nodes = (
"88 181 OFFCURVE",
"279 -23 OFFCURVE",
"581 -23 CURVE SMOOTH",
"907 -23 OFFCURVE",
"1093 224 OFFCURVE",
"1093 672 CURVE SMOOTH",
"1093 801 OFFCURVE",
"1076 920 OFFCURVE",
"1045 1026 CURVE",
"1190 1026 LINE",
"1190 1163 LINE",
"993 1163 LINE",
"918 1318 OFFCURVE",
"803 1432 OFFCURVE",
"653 1490 CURVE",
"574 1406 LINE",
"686 1344 OFFCURVE",
"769 1266 OFFCURVE",
"826 1163 CURVE",
"620 1163 LINE",
"620 1026 LINE",
"882 1026 LINE",
"905 942 OFFCURVE",
"917 847 OFFCURVE",
"918 733 CURVE SMOOTH",
"918 723 LINE",
"842 842 OFFCURVE",
"710 897 OFFCURVE",
"545 897 CURVE SMOOTH",
"266 897 OFFCURVE",
"88 710 OFFCURVE",
"88 446 CURVE SMOOTH"
);
},
{
closed = 1;
nodes = (
"911 339 OFFCURVE",
"822 118 OFFCURVE",
"573 118 CURVE SMOOTH",
"387 118 OFFCURVE",
"264 258 OFFCURVE",
"264 441 CURVE SMOOTH",
"264 620 OFFCURVE",
"361 757 OFFCURVE",
"572 757 CURVE SMOOTH",
"732 757 OFFCURVE",
"857 667 OFFCURVE",
"903 536 CURVE"
);
}
);
width = 1190;
}
);
unicode = 00F0;
},
{
glyphname = e;
lastChange = "2012-12-23 15:46:43 +0000";
layers = (
{
anchors = (
{
name = bottom;
position = "{569, 0}";
},
{
name = ogonek;
position = "{1035, 10}";
},
{
name = top;
position = "{569, 0}";
}
);
layerId = "F26D4BF5-BF3F-42E5-900E-6C8346FBF199";
name = Regular;
paths = (
{
closed = 1;
nodes = (
"96 183 OFFCURVE",
"295 -23 OFFCURVE",
"613 -23 CURVE SMOOTH",
"762 -23 OFFCURVE",
"916 30 OFFCURVE",
"1013 115 CURVE",
"961 238 LINE",
"872 159 OFFCURVE",
"741 109 OFFCURVE",
"621 109 CURVE SMOOTH",
"410 109 OFFCURVE",
"275 257 OFFCURVE",
"271 492 CURVE",
"1051 492 LINE",
"1052 530 OFFCURVE",
"1053 550 OFFCURVE",
"1053 544 CURVE SMOOTH",
"1053 855 OFFCURVE",
"879 1051 OFFCURVE",
"601 1051 CURVE SMOOTH",
"291 1051 OFFCURVE",
"96 842 OFFCURVE",
"96 510 CURVE SMOOTH"
);
},
{
closed = 1;
nodes = (
"278 609 LINE",
"305 798 OFFCURVE",
"429 917 OFFCURVE",
"600 917 CURVE SMOOTH",
"759 917 OFFCURVE",
"867 798 OFFCURVE",
"880 609 CURVE"
);
}
);
width = 1152;
}
);
unicode = 0065;
},
{
glyphname = eacute;
layers = (
{
layerId = "F26D4BF5-BF3F-42E5-900E-6C8346FBF199";
name = Regular;
paths = (
{
closed = 1;
nodes = (
"115 198 OFFCURVE",
"304 -23 OFFCURVE",
"626 -23 CURVE SMOOTH",
"795 -23 OFFCURVE",
"929 19 OFFCURVE",
"1039 115 CURVE",
"988 252 LINE",
"895 160 OFFCURVE",
"776 109 OFFCURVE",
"636 109 CURVE SMOOTH",
"425 109 OFFCURVE",
"294 247 OFFCURVE",
"290 492 CURVE",
"1077 492 LINE",
"1078 508 OFFCURVE",
"1079 530 OFFCURVE",
"1079 544 CURVE SMOOTH",
"1079 835 OFFCURVE",
"936 1051 OFFCURVE",
"620 1051 CURVE SMOOTH",
"301 1051 OFFCURVE",
"115 805 OFFCURVE",
"115 510 CURVE SMOOTH"
);
},
{
closed = 1;
nodes = (
"367 1172 LINE",
"497 1172 LINE",
"805 1492 LINE",
"593 1492 LINE"
);
},
{
closed = 1;
nodes = (
"297 609 LINE",
"321 777 OFFCURVE",
"432 917 OFFCURVE",
"619 917 CURVE SMOOTH",
"793 917 OFFCURVE",
"893 796 OFFCURVE",
"906 609 CURVE"
);
}
);
width = 1173;
}
);
unicode = 00E9;
},
{
glyphname = ecircumflex;
layers = (
{
layerId = "F26D4BF5-BF3F-42E5-900E-6C8346FBF199";
name = Regular;
paths = (
{
closed = 1;
nodes = (
"115 198 OFFCURVE",
"304 -23 OFFCURVE",
"626 -23 CURVE SMOOTH",
"795 -23 OFFCURVE",
"929 19 OFFCURVE",
"1039 115 CURVE",
"988 252 LINE",
"895 160 OFFCURVE",
"776 109 OFFCURVE",
"636 109 CURVE SMOOTH",
"425 109 OFFCURVE",
"294 247 OFFCURVE",
"290 492 CURVE",
"1077 492 LINE",
"1078 508 OFFCURVE",
"1079 530 OFFCURVE",
"1079 544 CURVE SMOOTH",
"1079 835 OFFCURVE",
"936 1051 OFFCURVE",
"620 1051 CURVE SMOOTH",
"301 1051 OFFCURVE",
"115 805 OFFCURVE",
"115 510 CURVE SMOOTH"
);
},
{
closed = 1;
nodes = (
"279 1170 LINE",
"405 1170 LINE",
"583 1386 LINE",
"761 1170 LINE",
"893 1170 LINE",
"664 1494 LINE",
"507 1494 LINE"
);
},
{
closed = 1;
nodes = (
"297 609 LINE",
"321 777 OFFCURVE",
"432 917 OFFCURVE",
"619 917 CURVE SMOOTH",
"793 917 OFFCURVE",
"893 796 OFFCURVE",
"906 609 CURVE"
);
}
);
width = 1173;
}
);
unicode = 00EA;
},
{
glyphname = edieresis;
layers = (
{
layerId = "F26D4BF5-BF3F-42E5-900E-6C8346FBF199";
name = Regular;
paths = (
{
closed = 1;
nodes = (
"115 198 OFFCURVE",
"304 -23 OFFCURVE",
"626 -23 CURVE SMOOTH",
"795 -23 OFFCURVE",
"929 19 OFFCURVE",
"1039 115 CURVE",
"988 252 LINE",
"895 160 OFFCURVE",
"776 109 OFFCURVE",
"636 109 CURVE SMOOTH",
"425 109 OFFCURVE",
"294 247 OFFCURVE",
"290 492 CURVE",
"1077 492 LINE",
"1078 508 OFFCURVE",
"1079 530 OFFCURVE",
"1079 544 CURVE SMOOTH",
"1079 835 OFFCURVE",
"936 1051 OFFCURVE",
"620 1051 CURVE SMOOTH",
"301 1051 OFFCURVE",
"115 805 OFFCURVE",
"115 510 CURVE SMOOTH"
);
},
{
closed = 1;
nodes = (
"348 1183 LINE",
"512 1183 LINE",
"512 1346 LINE",
"348 1346 LINE"
);
},
{
closed = 1;
nodes = (
"680 1183 LINE",
"844 1183 LINE",
"844 1346 LINE",
"680 1346 LINE"
);
},
{
closed = 1;
nodes = (
"297 609 LINE",
"321 777 OFFCURVE",
"432 917 OFFCURVE",
"619 917 CURVE SMOOTH",
"793 917 OFFCURVE",
"893 796 OFFCURVE",
"906 609 CURVE"
);
}
);
width = 1173;
}
);
unicode = 00EB;
},
{
glyphname = egrave;
layers = (
{
layerId = "F26D4BF5-BF3F-42E5-900E-6C8346FBF199";
name = Regular;
paths = (
{
closed = 1;
nodes = (
"115 198 OFFCURVE",
"304 -23 OFFCURVE",
"626 -23 CURVE SMOOTH",
"795 -23 OFFCURVE",
"929 19 OFFCURVE",
"1039 115 CURVE",
"988 252 LINE",
"895 160 OFFCURVE",
"776 109 OFFCURVE",
"636 109 CURVE SMOOTH",
"425 109 OFFCURVE",
"294 247 OFFCURVE",
"290 492 CURVE",
"1077 492 LINE",
"1078 508 OFFCURVE",
"1079 530 OFFCURVE",
"1079 544 CURVE SMOOTH",
"1079 835 OFFCURVE",
"936 1051 OFFCURVE",
"620 1051 CURVE SMOOTH",
"301 1051 OFFCURVE",
"115 805 OFFCURVE",
"115 510 CURVE SMOOTH"
);
},
{
closed = 1;
nodes = (
"688 1172 LINE",
"817 1172 LINE",
"570 1492 LINE",
"356 1492 LINE"
);
},
{
closed = 1;
nodes = (
"297 609 LINE",
"321 777 OFFCURVE",
"432 917 OFFCURVE",
"619 917 CURVE SMOOTH",
"793 917 OFFCURVE",
"893 796 OFFCURVE",
"906 609 CURVE"
);
}
);
width = 1173;
}
);
unicode = 00E8;
},
{
glyphname = emacron;
layers = (
{
layerId = "F26D4BF5-BF3F-42E5-900E-6C8346FBF199";
name = Regular;
paths = (
{
closed = 1;
nodes = (
"115 198 OFFCURVE",
"304 -23 OFFCURVE",
"626 -23 CURVE SMOOTH",
"795 -23 OFFCURVE",
"929 19 OFFCURVE",
"1039 115 CURVE",
"988 252 LINE",
"895 160 OFFCURVE",
"776 109 OFFCURVE",
"636 109 CURVE SMOOTH",
"425 109 OFFCURVE",
"294 247 OFFCURVE",
"290 492 CURVE",
"1077 492 LINE",
"1078 508 OFFCURVE",
"1079 530 OFFCURVE",
"1079 544 CURVE SMOOTH",
"1079 835 OFFCURVE",
"936 1051 OFFCURVE",
"620 1051 CURVE SMOOTH",
"301 1051 OFFCURVE",
"115 805 OFFCURVE",
"115 510 CURVE SMOOTH"
);
},
{
closed = 1;
nodes = (
"312 1183 LINE",
"883 1183 LINE",
"882 1317 LINE",
"311 1317 LINE"
);
},
{
closed = 1;
nodes = (
"297 609 LINE",
"321 777 OFFCURVE",
"432 917 OFFCURVE",
"619 917 CURVE SMOOTH",
"793 917 OFFCURVE",
"893 796 OFFCURVE",
"906 609 CURVE"
);
}
);
width = 1173;
}
);
unicode = 0113;
},
{
glyphname = eogonek;
layers = (
{
layerId = "F26D4BF5-BF3F-42E5-900E-6C8346FBF199";
name = Regular;
paths = (
{
closed = 1;
nodes = (
"115 198 OFFCURVE",
"304 -23 OFFCURVE",
"626 -23 CURVE SMOOTH",
"795 -23 OFFCURVE",
"929 19 OFFCURVE",
"1039 115 CURVE",
"988 252 LINE",
"895 160 OFFCURVE",
"776 109 OFFCURVE",
"636 109 CURVE SMOOTH",
"425 109 OFFCURVE",
"294 247 OFFCURVE",
"290 492 CURVE",
"1077 492 LINE",
"1078 508 OFFCURVE",
"1079 530 OFFCURVE",
"1079 544 CURVE SMOOTH",
"1079 835 OFFCURVE",
"936 1051 OFFCURVE",
"620 1051 CURVE SMOOTH",
"301 1051 OFFCURVE",
"115 805 OFFCURVE",
"115 510 CURVE SMOOTH"
);
},
{
closed = 1;
nodes = (
"400 -331 OFFCURVE",
"496 -390 OFFCURVE",
"618 -390 CURVE SMOOTH",
"678 -390 OFFCURVE",
"755 -377 OFFCURVE",
"795 -361 CURVE",
"795 -250 LINE",
"740 -271 OFFCURVE",
"702 -281 OFFCURVE",
"641 -281 CURVE SMOOTH",
"593 -281 OFFCURVE",
"541 -249 OFFCURVE",
"541 -199 CURVE SMOOTH",
"541 -136 OFFCURVE",
"627 -71 OFFCURVE",
"744 0 CURVE",
"615 12 LINE",
"506 -42 OFFCURVE",
"400 -123 OFFCURVE",
"400 -225 CURVE SMOOTH"
);
},
{
closed = 1;
nodes = (
"297 609 LINE",
"321 777 OFFCURVE",
"432 917 OFFCURVE",
"619 917 CURVE SMOOTH",
"793 917 OFFCURVE",
"893 796 OFFCURVE",
"906 609 CURVE"
);
}
);
width = 1173;
}
);
unicode = 0119;
},
{
glyphname = f;
lastChange = "2012-12-23 15:47:31 +0000";
layers = (
{
layerId = "F26D4BF5-BF3F-42E5-900E-6C8346FBF199";
name = Regular;
paths = (
{
closed = 1;
nodes = (
"249 0 LINE",
"414 0 LINE",
"414 919 LINE",
"662 919 LINE",
"662 1026 LINE",
"414 1026 LINE",
"414 1163 LINE SMOOTH",
"414 1324 OFFCURVE",
"416 1364 OFFCURVE",
"676 1364 CURVE",
"676 1492 LINE",
"668 1492 OFFCURVE",
"659 1492 OFFCURVE",
"651 1492 CURVE SMOOTH",
"283 1488 OFFCURVE",
"249 1391 OFFCURVE",
"249 1140 CURVE SMOOTH",
"249 1026 LINE",
"68 1026 LINE",
"68 919 LINE",
"249 919 LINE"
);
}
);
width = 696;
}
);
unicode = 0066;
},
{
glyphname = g;
lastChange = "2012-12-23 15:49:20 +0000";
layers = (
{
anchors = (
{
name = top;
position = "{626, 0}";
}
);
layerId = "F26D4BF5-BF3F-42E5-900E-6C8346FBF199";
name = Regular;
paths = (
{
closed = 1;
nodes = (
"287 -390 OFFCURVE",
"429 -422 OFFCURVE",
"555 -422 CURVE SMOOTH",
"924 -422 OFFCURVE",
"1082 -251 OFFCURVE",
"1082 147 CURVE SMOOTH",
"1082 773 LINE SMOOTH",
"1082 857 OFFCURVE",
"1088 1026 OFFCURVE",
"1088 1026 CURVE",
"923 1026 LINE",
"923 1029 OFFCURVE",
"921 974 OFFCURVE",
"917 885 CURVE",
"842 987 OFFCURVE",
"711 1051 OFFCURVE",
"577 1051 CURVE SMOOTH",
"282 1051 OFFCURVE",
"96 843 OFFCURVE",
"96 511 CURVE SMOOTH",
"96 197 OFFCURVE",
"277 0 OFFCURVE",
"565 0 CURVE SMOOTH",
"707 0 OFFCURVE",
"843 68 OFFCURVE",
"917 176 CURVE",
"917 49 LINE SMOOTH",
"917 -183 OFFCURVE",
"805 -282 OFFCURVE",
"543 -282 CURVE SMOOTH",
"431 -282 OFFCURVE",
"301 -245 OFFCURVE",
"206 -187 CURVE",
"187 -340 LINE"
);
},
{
closed = 1;
nodes = (
"917 295 OFFCURVE",
"785 135 OFFCURVE",
"574 135 CURVE SMOOTH",
"387 135 OFFCURVE",
"270 282 OFFCURVE",
"270 515 CURVE SMOOTH",
"270 762 OFFCURVE",
"397 917 OFFCURVE",
"598 917 CURVE SMOOTH",
"794 917 OFFCURVE",
"917 775 OFFCURVE",
"917 550 CURVE SMOOTH"
);
}
);
width = 1252;
}
);
unicode = 0067;
},
{
glyphname = gcedilla;
layers = (
{
layerId = "F26D4BF5-BF3F-42E5-900E-6C8346FBF199";
name = Regular;
paths = (
{
closed = 1;
nodes = (
"292 -396 OFFCURVE",
"418 -422 OFFCURVE",
"550 -422 CURVE SMOOTH",
"999 -422 OFFCURVE",
"1077 -124 OFFCURVE",
"1077 147 CURVE SMOOTH",
"1077 773 LINE SMOOTH",
"1077 857 OFFCURVE",
"1083 1026 OFFCURVE",
"1083 1026 CURVE",
"918 1026 LINE",
"918 1026 OFFCURVE",
"913 932 OFFCURVE",
"912 885 CURVE",
"833 992 OFFCURVE",
"727 1051 OFFCURVE",
"572 1051 CURVE SMOOTH",
"251 1051 OFFCURVE",
"91 803 OFFCURVE",
"91 511 CURVE SMOOTH",
"91 205 OFFCURVE",
"265 0 OFFCURVE",
"560 0 CURVE SMOOTH",
"705 0 OFFCURVE",
"833 60 OFFCURVE",
"912 176 CURVE",
"912 49 LINE SMOOTH",
"912 -180 OFFCURVE",
"773 -282 OFFCURVE",
"538 -282 CURVE SMOOTH",
"427 -282 OFFCURVE",
"306 -252 OFFCURVE",
"201 -187 CURVE",
"182 -340 LINE"
);
},
{
closed = 1;
nodes = (
"912 340 OFFCURVE",
"831 135 OFFCURVE",
"590 135 CURVE SMOOTH",
"348 135 OFFCURVE",
"265 284 OFFCURVE",
"265 515 CURVE SMOOTH",
"265 729 OFFCURVE",
"376 917 OFFCURVE",
"593 917 CURVE SMOOTH",
"790 917 OFFCURVE",
"912 753 OFFCURVE",
"912 550 CURVE SMOOTH"
);
},
{
closed = 1;
nodes = (
"480 1162 LINE",
"667 1162 LINE",
"774 1625 LINE",
"643 1625 LINE"
);
}
);
width = 1241;
}
);
unicode = 0123;
},
{
glyphname = h;
lastChange = "2012-12-23 15:49:45 +0000";
layers = (
{
anchors = (
{
name = center;
position = "{623, 0}";
},
{
name = top;
position = "{623, 0}";
}
);
layerId = "F26D4BF5-BF3F-42E5-900E-6C8346FBF199";
name = Regular;
paths = (
{
closed = 1;
nodes = (
"176 0 LINE",
"341 0 LINE",
"341 585 LINE SMOOTH",
"341 789 OFFCURVE",
"461 917 OFFCURVE",
"653 917 CURVE SMOOTH",
"818 917 OFFCURVE",
"921 805 OFFCURVE",
"921 626 CURVE SMOOTH",
"921 0 LINE",
"1086 0 LINE",
"1086 636 LINE SMOOTH",
"1086 891 OFFCURVE",
"937 1051 OFFCURVE",
"699 1051 CURVE SMOOTH",
"553 1051 OFFCURVE",
"415 989 OFFCURVE",
"341 890 CURVE",
"341 1492 LINE",
"176 1492 LINE"
);
}
);
width = 1250;
}
);
unicode = 0068;
},
{
glyphname = hbar;
layers = (
{
layerId = "F26D4BF5-BF3F-42E5-900E-6C8346FBF199";
name = Regular;
paths = (
{
closed = 1;
nodes = (
"169 0 LINE",
"334 0 LINE",
"334 585 LINE SMOOTH",
"334 765 OFFCURVE",
"445 917 OFFCURVE",
"633 917 CURVE SMOOTH",
"829 917 OFFCURVE",
"889 796 OFFCURVE",
"889 626 CURVE SMOOTH",
"889 0 LINE",
"1054 0 LINE",
"1054 636 LINE SMOOTH",
"1054 838 OFFCURVE",
"978 1051 OFFCURVE",
"679 1051 CURVE SMOOTH",
"528 1051 OFFCURVE",
"418 1002 OFFCURVE",
"334 890 CURVE",
"334 1492 LINE",
"169 1492 LINE"
);
},
{
closed = 1;
nodes = (
"1 1183 LINE",
"572 1183 LINE",
"571 1317 LINE",
"0 1317 LINE"
);
}
);
width = 1217;
}
);
unicode = 0127;
},
{
glyphname = i;
layers = (
{
layerId = "F26D4BF5-BF3F-42E5-900E-6C8346FBF199";
name = Regular;
paths = (
{
closed = 1;
nodes = (
"177 0 LINE",
"342 0 LINE",
"342 1026 LINE",
"177 1026 LINE"
);
},
{
closed = 1;
nodes = (
"185 1307 LINE",
"338 1307 LINE",
"338 1462 LINE",
"185 1462 LINE"
);
}
);
width = 519;
}
);
unicode = 0069;
},
{
glyphname = dotlessi;
layers = (
{
anchors = (
{
name = ogonek;
position = "{453, 10}";
},
{
name = top;
position = "{252, 0}";
}
);
layerId = "F26D4BF5-BF3F-42E5-900E-6C8346FBF199";
name = Regular;
paths = (
{
closed = 1;
nodes = (
"168 0 LINE",
"333 0 LINE",
"332 1026 LINE",
"167 1026 LINE"
);
}
);
width = 503;
}
);
unicode = 0131;
},
{
glyphname = iacute;
layers = (
{
layerId = "F26D4BF5-BF3F-42E5-900E-6C8346FBF199";
name = Regular;
paths = (
{
closed = 1;
nodes = (
"168 0 LINE",
"333 0 LINE",
"332 1026 LINE",
"167 1026 LINE"
);
},
{
closed = 1;
nodes = (
"33 1172 LINE",
"163 1172 LINE",
"471 1492 LINE",
"259 1492 LINE"
);
}
);
width = 503;
}
);
unicode = 00ED;
},
{
glyphname = icircumflex;
layers = (
{
layerId = "F26D4BF5-BF3F-42E5-900E-6C8346FBF199";
name = Regular;
paths = (
{
closed = 1;
nodes = (
"-55 1170 LINE",
"71 1170 LINE",
"249 1386 LINE",
"427 1170 LINE",
"559 1170 LINE",
"330 1494 LINE",
"173 1494 LINE"
);
},
{
closed = 1;
nodes = (
"168 0 LINE",
"333 0 LINE",
"332 1026 LINE",
"167 1026 LINE"
);
}
);
width = 503;
}
);
unicode = 00EE;
},
{
glyphname = idieresis;
layers = (
{
layerId = "F26D4BF5-BF3F-42E5-900E-6C8346FBF199";
name = Regular;
paths = (
{
closed = 1;
nodes = (
"3 1183 LINE",
"167 1183 LINE",
"167 1346 LINE",
"3 1346 LINE"
);
},
{
closed = 1;
nodes = (
"168 0 LINE",
"333 0 LINE",
"332 1026 LINE",
"167 1026 LINE"
);
},
{
closed = 1;
nodes = (
"335 1183 LINE",
"499 1183 LINE",
"499 1346 LINE",
"335 1346 LINE"
);
}
);
width = 503;
}
);
unicode = 00EF;
},
{
glyphname = igrave;
layers = (
{
layerId = "F26D4BF5-BF3F-42E5-900E-6C8346FBF199";
name = Regular;
paths = (
{
closed = 1;
nodes = (
"168 0 LINE",
"333 0 LINE",
"332 1026 LINE",
"167 1026 LINE"
);
},
{
closed = 1;
nodes = (
"353 1172 LINE",
"482 1172 LINE",
"235 1492 LINE",
"21 1492 LINE"
);
}
);
width = 503;
}
);
unicode = 00EC;
},
{
glyphname = ij;
layers = (
{
layerId = "F26D4BF5-BF3F-42E5-900E-6C8346FBF199";
name = Regular;
paths = (
{
closed = 1;
nodes = (
"446 -425 OFFCURVE",
"487 -429 OFFCURVE",
"524 -429 CURVE SMOOTH",
"817 -429 OFFCURVE",
"845 -119 OFFCURVE",
"843 106 CURVE SMOOTH",
"843 1026 LINE",
"678 1026 LINE",
"678 31 LINE SMOOTH",
"678 -186 OFFCURVE",
"615 -283 OFFCURVE",
"485 -283 CURVE SMOOTH",
"464 -283 OFFCURVE",
"437 -280 OFFCURVE",
"401 -273 CURVE",
"402 -416 LINE"
);
},
{
closed = 1;
nodes = (
"167 0 LINE",
"332 0 LINE",
"332 1026 LINE",
"167 1026 LINE"
);
},
{
closed = 1;
nodes = (
"175 1307 LINE",
"328 1307 LINE",
"328 1462 LINE",
"175 1462 LINE"
);
},
{
closed = 1;
nodes = (
"677 1307 LINE",
"830 1307 LINE",
"830 1462 LINE",
"677 1462 LINE"
);
}
);
width = 1006;
}
);
unicode = 0133;
},
{
glyphname = imacron;
layers = (
{
layerId = "F26D4BF5-BF3F-42E5-900E-6C8346FBF199";
name = Regular;
paths = (
{
closed = 1;
nodes = (
"168 0 LINE",
"333 0 LINE",
"332 1026 LINE",
"167 1026 LINE"
);
},
{
closed = 1;
nodes = (
"-33 1183 LINE",
"538 1183 LINE",
"537 1317 LINE",
"-34 1317 LINE"
);
}
);
width = 503;
}
);
unicode = 012B;
},
{
glyphname = iogonek;
layers = (
{
layerId = "F26D4BF5-BF3F-42E5-900E-6C8346FBF199";
name = Regular;
paths = (
{
closed = 1;
nodes = (
"52 -331 OFFCURVE",
"148 -390 OFFCURVE",
"270 -390 CURVE SMOOTH",
"330 -390 OFFCURVE",
"407 -377 OFFCURVE",
"447 -361 CURVE",
"447 -250 LINE",
"392 -271 OFFCURVE",
"354 -281 OFFCURVE",
"293 -281 CURVE SMOOTH",
"245 -281 OFFCURVE",
"193 -249 OFFCURVE",
"193 -199 CURVE SMOOTH",
"193 -136 OFFCURVE",
"279 -71 OFFCURVE",
"396 0 CURVE",
"267 12 LINE",
"158 -42 OFFCURVE",
"52 -123 OFFCURVE",
"52 -225 CURVE SMOOTH"
);
},
{
closed = 1;
nodes = (
"167 0 LINE",
"332 0 LINE",
"332 1026 LINE",
"167 1026 LINE"
);
},
{
closed = 1;
nodes = (
"175 1307 LINE",
"328 1307 LINE",
"328 1462 LINE",
"175 1462 LINE"
);
}
);
width = 503;
}
);
unicode = 012F;
},
{
glyphname = itilde;
layers = (
{
layerId = "F26D4BF5-BF3F-42E5-900E-6C8346FBF199";
name = Regular;
paths = (
{
closed = 1;
nodes = (
"17 1413 OFFCURVE",
"-59 1328 OFFCURVE",
"-70 1203 CURVE",
"35 1203 LINE",
"42 1260 OFFCURVE",
"73 1288 OFFCURVE",
"126 1288 CURVE SMOOTH",
"201 1288 OFFCURVE",
"300 1220 OFFCURVE",
"379 1220 CURVE SMOOTH",
"494 1220 OFFCURVE",
"562 1315 OFFCURVE",
"574 1435 CURVE",
"466 1435 LINE",
"458 1376 OFFCURVE",
"424 1345 OFFCURVE",
"379 1345 CURVE SMOOTH",
"302 1345 OFFCURVE",
"222 1413 OFFCURVE",
"129 1413 CURVE SMOOTH"
);
},
{
closed = 1;
nodes = (
"168 0 LINE",
"333 0 LINE",
"332 1026 LINE",
"167 1026 LINE"
);
}
);
width = 503;
}
);
unicode = 0129;
},
{
glyphname = j;
layers = (
{
layerId = "F26D4BF5-BF3F-42E5-900E-6C8346FBF199";
name = Regular;
paths = (
{
closed = 1;
nodes = (
"-56 -419 OFFCURVE",
"-3 -428 OFFCURVE",
"45 -428 CURVE SMOOTH",
"256 -428 OFFCURVE",
"341 -257 OFFCURVE",
"341 -14 CURVE SMOOTH",
"341 1026 LINE",
"176 1026 LINE",
"176 31 LINE SMOOTH",
"176 -175 OFFCURVE",
"153 -292 OFFCURVE",
"19 -292 CURVE SMOOTH",
"-14 -292 OFFCURVE",
"-53 -285 OFFCURVE",
"-100 -271 CURVE",
"-117 -401 LINE"
);
},
{
closed = 1;
nodes = (
"175 1307 LINE",
"328 1307 LINE",
"328 1462 LINE",
"175 1462 LINE"
);
}
);
width = 518;
}
);
unicode = 006A;
},
{
glyphname = dotlessj;
layers = (
{
anchors = (
{
name = top;
position = "{252, 0}";
}
);
layerId = "F26D4BF5-BF3F-42E5-900E-6C8346FBF199";
name = Regular;
paths = (
{
closed = 1;
nodes = (
"-57 -425 OFFCURVE",
"-16 -429 OFFCURVE",
"21 -429 CURVE SMOOTH",
"314 -429 OFFCURVE",
"342 -119 OFFCURVE",
"340 106 CURVE SMOOTH",
"340 1026 LINE",
"175 1026 LINE",
"175 31 LINE SMOOTH",
"175 -186 OFFCURVE",
"112 -283 OFFCURVE",
"-18 -283 CURVE SMOOTH",
"-39 -283 OFFCURVE",
"-66 -280 OFFCURVE",
"-102 -273 CURVE",
"-101 -416 LINE"
);
}
);
width = 503;
}
);
unicode = 0237;
},
{
glyphname = jcircumflex;
layers = (
{
layerId = "F26D4BF5-BF3F-42E5-900E-6C8346FBF199";
name = Regular;
paths = (
{
closed = 1;
nodes = (
"-57 -425 OFFCURVE",
"-16 -429 OFFCURVE",
"21 -429 CURVE SMOOTH",
"314 -429 OFFCURVE",
"342 -119 OFFCURVE",
"340 106 CURVE SMOOTH",
"340 1026 LINE",
"175 1026 LINE",
"175 31 LINE SMOOTH",
"175 -186 OFFCURVE",
"112 -283 OFFCURVE",
"-18 -283 CURVE SMOOTH",
"-39 -283 OFFCURVE",
"-66 -280 OFFCURVE",
"-102 -273 CURVE",
"-101 -416 LINE"
);
},
{
closed = 1;
nodes = (
"-55 1170 LINE",
"71 1170 LINE",
"249 1386 LINE",
"427 1170 LINE",
"559 1170 LINE",
"330 1494 LINE",
"173 1494 LINE"
);
}
);
width = 503;
}
);
unicode = 0135;
},
{
glyphname = k;
lastChange = "2012-12-23 15:50:13 +0000";
layers = (
{
anchors = (
{
name = bottom;
position = "{533, 0}";
}
);
layerId = "F26D4BF5-BF3F-42E5-900E-6C8346FBF199";
name = Regular;
paths = (
{
closed = 1;
nodes = (
"176 0 LINE",
"341 0 LINE",
"341 501 LINE",
"851 0 LINE",
"1070 0 LINE",
"883 179 OFFCURVE",
"689 363 OFFCURVE",
"502 542 CURVE",
"1032 1026 LINE",
"807 1026 LINE",
"341 587 LINE",
"341 1492 LINE",
"176 1492 LINE"
);
}
);
width = 1070;
}
);
unicode = 006B;
},
{
glyphname = kcommaaccent;
layers = (
{
layerId = "F26D4BF5-BF3F-42E5-900E-6C8346FBF199";
name = Regular;
paths = (
{
closed = 1;
nodes = (
"178 0 LINE",
"343 0 LINE",
"343 501 LINE",
"853 0 LINE",
"1072 0 LINE",
"885 179 OFFCURVE",
"691 363 OFFCURVE",
"504 542 CURVE",
"1034 1026 LINE",
"809 1026 LINE",
"343 587 LINE",
"343 1492 LINE",
"178 1492 LINE"
);
},
{
closed = 1;
nodes = (
"436 -603 LINE",
"567 -603 LINE",
"730 -140 LINE",
"543 -140 LINE"
);
}
);
width = 1082;
}
);
unicode = 0137;
},
{
glyphname = kgreenlandic;
layers = (
{
layerId = "F26D4BF5-BF3F-42E5-900E-6C8346FBF199";
name = Regular;
paths = (
{
closed = 1;
nodes = (
"178 0 LINE",
"343 0 LINE",
"343 471 LINE",
"853 0 LINE",
"1072 0 LINE",
"885 170 OFFCURVE",
"691 342 OFFCURVE",
"504 512 CURVE",
"1034 1026 LINE",
"809 1026 LINE",
"343 557 LINE",
"343 1026 LINE",
"178 1026 LINE"
);
}
);
width = 1082;
}
);
unicode = 0138;
},
{
glyphname = l;
layers = (
{
anchors = (
{
name = bottom;
position = "{260, 0}";
},
{
name = top;
position = "{260, 0}";
},
{
name = topright;
position = "{499, 0}";
}
);
layerId = "F26D4BF5-BF3F-42E5-900E-6C8346FBF199";
name = Regular;
paths = (
{
closed = 1;
nodes = (
"177 0 LINE",
"342 0 LINE",
"342 1492 LINE",
"177 1492 LINE"
);
}
);
width = 519;
}
);
unicode = 006C;
},
{
glyphname = ldot;
layers = (
{
layerId = "F26D4BF5-BF3F-42E5-900E-6C8346FBF199";
name = Regular;
paths = (
{
closed = 1;
nodes = (
"168 0 LINE",
"333 0 LINE",
"333 1492 LINE",
"168 1492 LINE"
);
},
{
closed = 1;
nodes = (
"579 513 LINE",
"796 513 LINE",
"796 723 LINE",
"579 723 LINE"
);
}
);
width = 947;
}
);
unicode = 0140;
},
{
glyphname = lslash;
layers = (
{
layerId = "F26D4BF5-BF3F-42E5-900E-6C8346FBF199";
name = Regular;
paths = (
{
closed = 1;
nodes = (
"168 0 LINE",
"333 0 LINE",
"333 788 LINE",
"504 890 LINE",
"504 1027 LINE",
"333 925 LINE",
"333 1492 LINE",
"168 1492 LINE",
"168 826 LINE",
"0 726 LINE",
"0 589 LINE",
"168 689 LINE"
);
}
);
width = 503;
}
);
unicode = 0142;
},
{
glyphname = m;
lastChange = "2012-12-23 15:51:18 +0000";
layers = (
{
layerId = "F26D4BF5-BF3F-42E5-900E-6C8346FBF199";
name = Regular;
paths = (
{
closed = 1;
nodes = (
"189 0 LINE",
"354 0 LINE",
"354 587 LINE SMOOTH",
"354 790 OFFCURVE",
"463 917 OFFCURVE",
"636 917 CURVE SMOOTH",
"787 917 OFFCURVE",
"882 808 OFFCURVE",
"882 635 CURVE SMOOTH",
"882 0 LINE",
"1047 0 LINE",
"1047 587 LINE SMOOTH",
"1047 790 OFFCURVE",
"1148 917 OFFCURVE",
"1347 917 CURVE SMOOTH",
"1536 917 OFFCURVE",
"1566 779 OFFCURVE",
"1567 558 CURVE SMOOTH",
"1567 0 LINE",
"1732 0 LINE",
"1732 636 LINE SMOOTH",
"1732 891 OFFCURVE",
"1593 1051 OFFCURVE",
"1371 1051 CURVE SMOOTH",
"1216 1051 OFFCURVE",
"1076 973 OFFCURVE",
"1007 849 CURVE",
"957 973 OFFCURVE",
"832 1051 OFFCURVE",
"685 1051 CURVE SMOOTH",
"553 1051 OFFCURVE",
"425 988 OFFCURVE",
"354 888 CURVE",
"350 1026 LINE",
"183 1026 LINE",
"187 950 OFFCURVE",
"189 847 OFFCURVE",
"189 761 CURVE SMOOTH"
);
}
);
width = 1889;
}
);
unicode = 006D;
},
{
glyphname = n;
lastChange = "2012-12-23 15:35:49 +0000";
layers = (
{
anchors = (
{
name = bottom;
position = "{623, 0}";
},
{
name = top;
position = "{623, 0}";
}
);
layerId = "F26D4BF5-BF3F-42E5-900E-6C8346FBF199";
name = Regular;
paths = (
{
closed = 1;
nodes = (
"182 0 LINE",
"347 0 LINE",
"347 652 LINE SMOOTH",
"348 742 OFFCURVE",
"475 917 OFFCURVE",
"674 917 CURVE SMOOTH",
"890 917 OFFCURVE",
"921 764 OFFCURVE",
"921 531 CURVE SMOOTH",
"921 0 LINE",
"1086 0 LINE",
"1086 550 LINE SMOOTH",
"1086 844 OFFCURVE",
"1003 1051 OFFCURVE",
"704 1051 CURVE SMOOTH",
"552 1051 OFFCURVE",
"427 996 OFFCURVE",
"347 884 CURVE",
"343 1026 LINE",
"176 1026 LINE",
"176 1026 OFFCURVE",
"182 902 OFFCURVE",
"182 779 CURVE SMOOTH"
);
}
);
width = 1250;
}
);
unicode = 006E;
},
{
glyphname = nacute;
layers = (
{
layerId = "F26D4BF5-BF3F-42E5-900E-6C8346FBF199";
name = Regular;
paths = (
{
closed = 1;
nodes = (
"168 0 LINE",
"333 0 LINE",
"333 652 LINE SMOOTH",
"334 742 OFFCURVE",
"448 917 OFFCURVE",
"647 917 CURVE SMOOTH",
"863 917 OFFCURVE",
"888 764 OFFCURVE",
"888 531 CURVE SMOOTH",
"888 0 LINE",
"1053 0 LINE",
"1053 550 LINE SMOOTH",
"1053 844 OFFCURVE",
"976 1051 OFFCURVE",
"677 1051 CURVE SMOOTH",
"525 1051 OFFCURVE",
"413 996 OFFCURVE",
"333 884 CURVE",
"329 1026 LINE",
"162 1026 LINE",
"162 1026 OFFCURVE",
"168 902 OFFCURVE",
"168 779 CURVE SMOOTH"
);
},
{
closed = 1;
nodes = (
"388 1172 LINE",
"518 1172 LINE",
"826 1492 LINE",
"614 1492 LINE"
);
}
);
width = 1217;
}
);
unicode = 0144;
},
{
glyphname = ntilde;
layers = (
{
layerId = "F26D4BF5-BF3F-42E5-900E-6C8346FBF199";
name = Regular;
paths = (
{
closed = 1;
nodes = (
"168 0 LINE",
"333 0 LINE",
"333 652 LINE SMOOTH",
"334 742 OFFCURVE",
"448 917 OFFCURVE",
"647 917 CURVE SMOOTH",
"863 917 OFFCURVE",
"888 764 OFFCURVE",
"888 531 CURVE SMOOTH",
"888 0 LINE",
"1053 0 LINE",
"1053 550 LINE SMOOTH",
"1053 844 OFFCURVE",
"976 1051 OFFCURVE",
"677 1051 CURVE SMOOTH",
"525 1051 OFFCURVE",
"413 996 OFFCURVE",
"333 884 CURVE",
"329 1026 LINE",
"162 1026 LINE",
"162 1026 OFFCURVE",
"168 902 OFFCURVE",
"168 779 CURVE SMOOTH"
);
},
{
closed = 1;
nodes = (
"373 1413 OFFCURVE",
"297 1328 OFFCURVE",
"286 1203 CURVE",
"391 1203 LINE",
"398 1260 OFFCURVE",
"429 1288 OFFCURVE",
"482 1288 CURVE SMOOTH",
"557 1288 OFFCURVE",
"656 1220 OFFCURVE",
"735 1220 CURVE SMOOTH",
"850 1220 OFFCURVE",
"918 1315 OFFCURVE",
"930 1435 CURVE",
"822 1435 LINE",
"814 1376 OFFCURVE",
"780 1345 OFFCURVE",
"735 1345 CURVE SMOOTH",
"658 1345 OFFCURVE",
"578 1413 OFFCURVE",
"485 1413 CURVE SMOOTH"
);
}
);
width = 1217;
}
);
unicode = 00F1;
},
{
glyphname = o;
lastChange = "2012-12-23 15:43:43 +0000";
layers = (
{
anchors = (
{
name = top;
position = "{623, 0}";
}
);
layerId = "F26D4BF5-BF3F-42E5-900E-6C8346FBF199";
name = Regular;
paths = (
{
closed = 1;
nodes = (
"974 264 OFFCURVE",
"841 109 OFFCURVE",
"628 109 CURVE SMOOTH",
"408 109 OFFCURVE",
"270 263 OFFCURVE",
"270 509 CURVE SMOOTH",
"270 760 OFFCURVE",
"407 917 OFFCURVE",
"624 917 CURVE SMOOTH",
"839 917 OFFCURVE",
"974 760 OFFCURVE",
"974 511 CURVE SMOOTH"
);
},
{
closed = 1;
nodes = (
"96 183 OFFCURVE",
"300 -23 OFFCURVE",
"624 -23 CURVE SMOOTH",
"946 -23 OFFCURVE",
"1148 184 OFFCURVE",
"1148 513 CURVE SMOOTH",
"1148 843 OFFCURVE",
"947 1051 OFFCURVE",
"628 1051 CURVE SMOOTH",
"301 1051 OFFCURVE",
"96 843 OFFCURVE",
"96 511 CURVE SMOOTH"
);
}
);
width = 1244;
}
);
unicode = 006F;
},
{
glyphname = oacute;
layers = (
{
layerId = "F26D4BF5-BF3F-42E5-900E-6C8346FBF199";
name = Regular;
paths = (
{
closed = 1;
nodes = (
"966 298 OFFCURVE",
"854 109 OFFCURVE",
"620 109 CURVE SMOOTH",
"383 109 OFFCURVE",
"263 297 OFFCURVE",
"263 509 CURVE SMOOTH",
"263 723 OFFCURVE",
"384 917 OFFCURVE",
"616 917 CURVE SMOOTH",
"856 917 OFFCURVE",
"966 731 OFFCURVE",
"966 511 CURVE SMOOTH"
);
},
{
closed = 1;
nodes = (
"90 215 OFFCURVE",
"276 -23 OFFCURVE",
"616 -23 CURVE SMOOTH",
"953 -23 OFFCURVE",
"1140 224 OFFCURVE",
"1140 513 CURVE SMOOTH",
"1140 812 OFFCURVE",
"964 1051 OFFCURVE",
"620 1051 CURVE SMOOTH",
"279 1051 OFFCURVE",
"90 808 OFFCURVE",
"90 511 CURVE SMOOTH"
);
},
{
closed = 1;
nodes = (
"400 1172 LINE",
"530 1172 LINE",
"838 1492 LINE",
"626 1492 LINE"
);
}
);
width = 1238;
}
);
unicode = 00F3;
},
{
glyphname = ocircumflex;
layers = (
{
layerId = "F26D4BF5-BF3F-42E5-900E-6C8346FBF199";
name = Regular;
paths = (
{
closed = 1;
nodes = (
"312 1170 LINE",
"438 1170 LINE",
"616 1386 LINE",
"794 1170 LINE",
"926 1170 LINE",
"697 1494 LINE",
"540 1494 LINE"
);
},
{
closed = 1;
nodes = (
"966 298 OFFCURVE",
"854 109 OFFCURVE",
"620 109 CURVE SMOOTH",
"383 109 OFFCURVE",
"263 297 OFFCURVE",
"263 509 CURVE SMOOTH",
"263 723 OFFCURVE",
"384 917 OFFCURVE",
"616 917 CURVE SMOOTH",
"856 917 OFFCURVE",
"966 731 OFFCURVE",
"966 511 CURVE SMOOTH"
);
},
{
closed = 1;
nodes = (
"90 215 OFFCURVE",
"276 -23 OFFCURVE",
"616 -23 CURVE SMOOTH",
"953 -23 OFFCURVE",
"1140 224 OFFCURVE",
"1140 513 CURVE SMOOTH",
"1140 812 OFFCURVE",
"964 1051 OFFCURVE",
"620 1051 CURVE SMOOTH",
"279 1051 OFFCURVE",
"90 808 OFFCURVE",
"90 511 CURVE SMOOTH"
);
}
);
width = 1238;
}
);
unicode = 00F4;
},
{
glyphname = odieresis;
layers = (
{
layerId = "F26D4BF5-BF3F-42E5-900E-6C8346FBF199";
name = Regular;
paths = (
{
closed = 1;
nodes = (
"366 1183 LINE",
"530 1183 LINE",
"530 1346 LINE",
"366 1346 LINE"
);
},
{
closed = 1;
nodes = (
"966 298 OFFCURVE",
"854 109 OFFCURVE",
"620 109 CURVE SMOOTH",
"383 109 OFFCURVE",
"263 297 OFFCURVE",
"263 509 CURVE SMOOTH",
"263 723 OFFCURVE",
"384 917 OFFCURVE",
"616 917 CURVE SMOOTH",
"856 917 OFFCURVE",
"966 731 OFFCURVE",
"966 511 CURVE SMOOTH"
);
},
{
closed = 1;
nodes = (
"90 215 OFFCURVE",
"276 -23 OFFCURVE",
"616 -23 CURVE SMOOTH",
"953 -23 OFFCURVE",
"1140 224 OFFCURVE",
"1140 513 CURVE SMOOTH",
"1140 812 OFFCURVE",
"964 1051 OFFCURVE",
"620 1051 CURVE SMOOTH",
"279 1051 OFFCURVE",
"90 808 OFFCURVE",
"90 511 CURVE SMOOTH"
);
},
{
closed = 1;
nodes = (
"698 1183 LINE",
"862 1183 LINE",
"862 1346 LINE",
"698 1346 LINE"
);
}
);
width = 1238;
}
);
unicode = 00F6;
},
{
glyphname = ograve;
layers = (
{
layerId = "F26D4BF5-BF3F-42E5-900E-6C8346FBF199";
name = Regular;
paths = (
{
closed = 1;
nodes = (
"966 298 OFFCURVE",
"854 109 OFFCURVE",
"620 109 CURVE SMOOTH",
"383 109 OFFCURVE",
"263 297 OFFCURVE",
"263 509 CURVE SMOOTH",
"263 723 OFFCURVE",
"384 917 OFFCURVE",
"616 917 CURVE SMOOTH",
"856 917 OFFCURVE",
"966 731 OFFCURVE",
"966 511 CURVE SMOOTH"
);
},
{
closed = 1;
nodes = (
"90 215 OFFCURVE",
"276 -23 OFFCURVE",
"616 -23 CURVE SMOOTH",
"953 -23 OFFCURVE",
"1140 224 OFFCURVE",
"1140 513 CURVE SMOOTH",
"1140 812 OFFCURVE",
"964 1051 OFFCURVE",
"620 1051 CURVE SMOOTH",
"279 1051 OFFCURVE",
"90 808 OFFCURVE",
"90 511 CURVE SMOOTH"
);
},
{
closed = 1;
nodes = (
"720 1172 LINE",
"849 1172 LINE",
"602 1492 LINE",
"388 1492 LINE"
);
}
);
width = 1238;
}
);
unicode = 00F2;
},
{
glyphname = oslash;
layers = (
{
anchors = (
{
name = top;
position = "{619, 0}";
}
);
layerId = "F26D4BF5-BF3F-42E5-900E-6C8346FBF199";
name = Regular;
paths = (
{
closed = 1;
nodes = (
"346 -261 LINE",
"456 -3 LINE",
"505 -16 OFFCURVE",
"558 -23 OFFCURVE",
"616 -23 CURVE SMOOTH",
"953 -23 OFFCURVE",
"1140 224 OFFCURVE",
"1140 513 CURVE SMOOTH",
"1140 724 OFFCURVE",
"1052 905 OFFCURVE",
"880 993 CURVE",
"987 1245 LINE",
"884 1277 LINE",
"780 1031 LINE",
"731 1044 OFFCURVE",
"678 1051 OFFCURVE",
"620 1051 CURVE SMOOTH",
"279 1051 OFFCURVE",
"90 808 OFFCURVE",
"90 511 CURVE SMOOTH",
"90 301 OFFCURVE",
"183 121 OFFCURVE",
"358 34 CURVE",
"247 -229 LINE"
);
},
{
closed = 1;
nodes = (
"415 170 LINE",
"314 242 OFFCURVE",
"263 370 OFFCURVE",
"263 509 CURVE SMOOTH",
"263 723 OFFCURVE",
"384 917 OFFCURVE",
"616 917 CURVE SMOOTH",
"656 917 OFFCURVE",
"692 911 OFFCURVE",
"725 902 CURVE"
);
},
{
closed = 1;
nodes = (
"966 298 OFFCURVE",
"854 109 OFFCURVE",
"620 109 CURVE SMOOTH",
"580 109 OFFCURVE",
"543 114 OFFCURVE",
"510 124 CURVE",
"821 855 LINE",
"919 782 OFFCURVE",
"966 654 OFFCURVE",
"966 511 CURVE SMOOTH"
);
}
);
width = 1238;
}
);
unicode = 00F8;
},
{
glyphname = otilde;
layers = (
{
layerId = "F26D4BF5-BF3F-42E5-900E-6C8346FBF199";
name = Regular;
paths = (
{
closed = 1;
nodes = (
"384 1413 OFFCURVE",
"308 1328 OFFCURVE",
"297 1203 CURVE",
"402 1203 LINE",
"409 1260 OFFCURVE",
"440 1288 OFFCURVE",
"493 1288 CURVE SMOOTH",
"568 1288 OFFCURVE",
"667 1220 OFFCURVE",
"746 1220 CURVE SMOOTH",
"861 1220 OFFCURVE",
"929 1315 OFFCURVE",
"941 1435 CURVE",
"833 1435 LINE",
"825 1376 OFFCURVE",
"791 1345 OFFCURVE",
"746 1345 CURVE SMOOTH",
"669 1345 OFFCURVE",
"589 1413 OFFCURVE",
"496 1413 CURVE SMOOTH"
);
},
{
closed = 1;
nodes = (
"966 298 OFFCURVE",
"854 109 OFFCURVE",
"620 109 CURVE SMOOTH",
"383 109 OFFCURVE",
"263 297 OFFCURVE",
"263 509 CURVE SMOOTH",
"263 723 OFFCURVE",
"384 917 OFFCURVE",
"616 917 CURVE SMOOTH",
"856 917 OFFCURVE",
"966 731 OFFCURVE",
"966 511 CURVE SMOOTH"
);
},
{
closed = 1;
nodes = (
"90 215 OFFCURVE",
"276 -23 OFFCURVE",
"616 -23 CURVE SMOOTH",
"953 -23 OFFCURVE",
"1140 224 OFFCURVE",
"1140 513 CURVE SMOOTH",
"1140 812 OFFCURVE",
"964 1051 OFFCURVE",
"620 1051 CURVE SMOOTH",
"279 1051 OFFCURVE",
"90 808 OFFCURVE",
"90 511 CURVE SMOOTH"
);
}
);
width = 1238;
}
);
unicode = 00F5;
},
{
glyphname = oe;
layers = (
{
anchors = (
{
name = top;
position = "{985, 0}";
}
);
layerId = "F26D4BF5-BF3F-42E5-900E-6C8346FBF199";
name = Regular;
paths = (
{
closed = 1;
nodes = (
"92 212 OFFCURVE",
"282 -28 OFFCURVE",
"610 -28 CURVE SMOOTH",
"797 -28 OFFCURVE",
"956 43 OFFCURVE",
"1022 209 CURVE",
"1087 49 OFFCURVE",
"1229 -28 OFFCURVE",
"1410 -28 CURVE SMOOTH",
"1591 -28 OFFCURVE",
"1747 45 OFFCURVE",
"1836 206 CURVE",
"1748 292 LINE",
"1678 180 OFFCURVE",
"1558 109 OFFCURVE",
"1421 109 CURVE SMOOTH",
"1221 109 OFFCURVE",
"1119 255 OFFCURVE",
"1113 450 CURVE SMOOTH",
"1113 470 LINE",
"1868 472 LINE",
"1868 525 LINE SMOOTH",
"1868 842 OFFCURVE",
"1711 1053 OFFCURVE",
"1417 1053 CURVE SMOOTH",
"1234 1053 OFFCURVE",
"1100 974 OFFCURVE",
"1027 821 CURVE",
"947 973 OFFCURVE",
"816 1053 OFFCURVE",
"620 1053 CURVE SMOOTH",
"284 1053 OFFCURVE",
"92 806 OFFCURVE",
"92 509 CURVE SMOOTH"
);
},
{
closed = 1;
nodes = (
"945 299 OFFCURVE",
"845 109 OFFCURVE",
"620 109 CURVE SMOOTH",
"378 109 OFFCURVE",
"265 292 OFFCURVE",
"265 507 CURVE SMOOTH",
"265 725 OFFCURVE",
"386 917 OFFCURVE",
"612 917 CURVE SMOOTH",
"844 917 OFFCURVE",
"945 741 OFFCURVE",
"945 511 CURVE SMOOTH"
);
},
{
closed = 1;
nodes = (
"1113 609 LINE",
"1124 770 OFFCURVE",
"1239 917 OFFCURVE",
"1423 917 CURVE SMOOTH",
"1596 917 OFFCURVE",
"1686 801 OFFCURVE",
"1694 639 CURVE SMOOTH",
"1694 629 OFFCURVE",
"1695 619 OFFCURVE",
"1695 609 CURVE"
);
}
);
width = 1970;
}
);
unicode = 0153;
},
{
glyphname = p;
lastChange = "2012-12-23 15:51:46 +0000";
layers = (
{
layerId = "F26D4BF5-BF3F-42E5-900E-6C8346FBF199";
name = Regular;
paths = (
{
closed = 1;
nodes = (
"184 -427 LINE",
"348 -427 LINE",
"348 135 LINE",
"427 38 OFFCURVE",
"560 -23 OFFCURVE",
"693 -23 CURVE SMOOTH",
"978 -23 OFFCURVE",
"1157 189 OFFCURVE",
"1157 527 CURVE SMOOTH",
"1157 849 OFFCURVE",
"978 1051 OFFCURVE",
"693 1051 CURVE SMOOTH",
"559 1051 OFFCURVE",
"426 985 OFFCURVE",
"348 880 CURVE",
"343 1026 LINE",
"176 1026 LINE",
"181 927 OFFCURVE",
"184 814 OFFCURVE",
"184 758 CURVE SMOOTH"
);
},
{
closed = 1;
nodes = (
"981 268 OFFCURVE",
"861 109 OFFCURVE",
"669 109 CURVE SMOOTH",
"472 109 OFFCURVE",
"348 258 OFFCURVE",
"348 494 CURVE SMOOTH",
"348 754 OFFCURVE",
"474 917 OFFCURVE",
"675 917 CURVE SMOOTH",
"863 917 OFFCURVE",
"981 764 OFFCURVE",
"981 521 CURVE SMOOTH"
);
}
);
width = 1253;
}
);
unicode = 0070;
},
{
glyphname = thorn;
layers = (
{
layerId = "F26D4BF5-BF3F-42E5-900E-6C8346FBF199";
name = Regular;
paths = (
{
closed = 1;
nodes = (
"158 -427 LINE",
"323 -427 LINE",
"323 135 LINE",
"408 31 OFFCURVE",
"524 -23 OFFCURVE",
"668 -23 CURVE SMOOTH",
"983 -23 OFFCURVE",
"1139 239 OFFCURVE",
"1139 527 CURVE SMOOTH",
"1139 812 OFFCURVE",
"990 1051 OFFCURVE",
"668 1051 CURVE SMOOTH",
"530 1051 OFFCURVE",
"408 993 OFFCURVE",
"325 882 CURVE",
"325 1455 LINE",
"158 1455 LINE",
"158 917 LINE"
);
},
{
closed = 1;
nodes = (
"963 304 OFFCURVE",
"868 109 OFFCURVE",
"644 109 CURVE SMOOTH",
"435 109 OFFCURVE",
"323 273 OFFCURVE",
"323 494 CURVE SMOOTH",
"323 715 OFFCURVE",
"405 917 OFFCURVE",
"650 917 CURVE SMOOTH",
"885 917 OFFCURVE",
"963 725 OFFCURVE",
"963 521 CURVE SMOOTH"
);
}
);
width = 1239;
}
);
unicode = 00FE;
},
{
glyphname = q;
lastChange = "2012-12-23 15:52:10 +0000";
layers = (
{
layerId = "F26D4BF5-BF3F-42E5-900E-6C8346FBF199";
name = Regular;
paths = (
{
closed = 1;
nodes = (
"905 -426 LINE",
"1070 -426 LINE",
"1070 813 LINE SMOOTH",
"1070 865 OFFCURVE",
"1072 949 OFFCURVE",
"1077 1026 CURVE",
"910 1026 LINE",
"905 898 LINE",
"832 992 OFFCURVE",
"703 1051 OFFCURVE",
"569 1051 CURVE SMOOTH",
"278 1051 OFFCURVE",
"96 841 OFFCURVE",
"96 506 CURVE SMOOTH",
"96 181 OFFCURVE",
"270 -23 OFFCURVE",
"547 -23 CURVE SMOOTH",
"689 -23 OFFCURVE",
"827 43 OFFCURVE",
"905 148 CURVE"
);
},
{
closed = 1;
nodes = (
"905 276 OFFCURVE",
"781 109 OFFCURVE",
"584 109 CURVE SMOOTH",
"391 109 OFFCURVE",
"269 263 OFFCURVE",
"269 507 CURVE SMOOTH",
"269 759 OFFCURVE",
"395 917 OFFCURVE",
"595 917 CURVE SMOOTH",
"785 917 OFFCURVE",
"905 773 OFFCURVE",
"905 543 CURVE SMOOTH"
);
}
);
width = 1253;
}
);
unicode = 0071;
},
{
glyphname = r;
lastChange = "2012-12-23 15:52:21 +0000";
layers = (
{
anchors = (
{
name = bottom;
position = "{413, 0}";
},
{
name = top;
position = "{413, 0}";
}
);
layerId = "F26D4BF5-BF3F-42E5-900E-6C8346FBF199";
name = Regular;
paths = (
{
closed = 1;
nodes = (
"182 0 LINE",
"347 0 LINE",
"347 568 LINE SMOOTH",
"347 777 OFFCURVE",
"455 907 OFFCURVE",
"616 907 CURVE SMOOTH",
"661 907 OFFCURVE",
"703 898 OFFCURVE",
"731 883 CURVE",
"729 1038 LINE",
"696 1046 OFFCURVE",
"660 1050 OFFCURVE",
"621 1050 CURVE SMOOTH",
"504 1050 OFFCURVE",
"402 984 OFFCURVE",
"347 871 CURVE",
"341 1026 LINE",
"176 1026 LINE",
"179 949 OFFCURVE",
"182 862 OFFCURVE",
"182 779 CURVE SMOOTH"
);
}
);
width = 831;
}
);
unicode = 0072;
},
{
glyphname = rcaron;
layers = (
{
layerId = "F26D4BF5-BF3F-42E5-900E-6C8346FBF199";
name = Regular;
paths = (
{
closed = 1;
nodes = (
"167 0 LINE",
"332 0 LINE",
"332 568 LINE SMOOTH",
"332 777 OFFCURVE",
"440 907 OFFCURVE",
"601 907 CURVE SMOOTH",
"646 907 OFFCURVE",
"688 898 OFFCURVE",
"716 883 CURVE",
"714 1038 LINE",
"681 1046 OFFCURVE",
"645 1050 OFFCURVE",
"606 1050 CURVE SMOOTH",
"489 1050 OFFCURVE",
"387 984 OFFCURVE",
"332 871 CURVE",
"326 1026 LINE",
"161 1026 LINE",
"164 949 OFFCURVE",
"167 862 OFFCURVE",
"167 779 CURVE SMOOTH"
);
},
{
closed = 1;
nodes = (
"291 1170 LINE",
"447 1170 LINE",
"685 1493 LINE",
"531 1493 LINE",
"363 1278 LINE",
"199 1493 LINE",
"52 1493 LINE"
);
}
);
width = 737;
}
);
unicode = 0159;
},
{
glyphname = rcommaaccent;
layers = (
{
layerId = "F26D4BF5-BF3F-42E5-900E-6C8346FBF199";
name = Regular;
paths = (
{
closed = 1;
nodes = (
"167 0 LINE",
"332 0 LINE",
"332 568 LINE SMOOTH",
"332 777 OFFCURVE",
"440 907 OFFCURVE",
"601 907 CURVE SMOOTH",
"646 907 OFFCURVE",
"688 898 OFFCURVE",
"716 883 CURVE",
"714 1038 LINE",
"681 1046 OFFCURVE",
"645 1050 OFFCURVE",
"606 1050 CURVE SMOOTH",
"489 1050 OFFCURVE",
"387 984 OFFCURVE",
"332 871 CURVE",
"326 1026 LINE",
"161 1026 LINE",
"164 949 OFFCURVE",
"167 862 OFFCURVE",
"167 779 CURVE SMOOTH"
);
},
{
closed = 1;
nodes = (
"249 -603 LINE",
"380 -603 LINE",
"543 -140 LINE",
"356 -140 LINE"
);
}
);
width = 737;
}
);
unicode = 0157;
},
{
glyphname = s;
lastChange = "2012-12-23 15:54:00 +0000";
layers = (
{
anchors = (
{
name = bottom;
position = "{484, 0}";
},
{
name = top;
position = "{484, 0}";
}
);
layerId = "F26D4BF5-BF3F-42E5-900E-6C8346FBF199";
name = Regular;
paths = (
{
closed = 1;
nodes = (
"145 70 OFFCURVE",
"282 -23 OFFCURVE",
"498 -23 CURVE SMOOTH",
"685 -23 OFFCURVE",
"881 62 OFFCURVE",
"881 284 CURVE SMOOTH",
"881 468 OFFCURVE",
"732 533 OFFCURVE",
"582 581 CURVE SMOOTH",
"433 629 OFFCURVE",
"283 660 OFFCURVE",
"283 774 CURVE SMOOTH",
"283 882 OFFCURVE",
"355 917 OFFCURVE",
"504 917 CURVE SMOOTH",
"667 917 OFFCURVE",
"772 858 OFFCURVE",
"785 851 CURVE",
"832 966 LINE",
"792 991 OFFCURVE",
"715 1051 OFFCURVE",
"488 1051 CURVE SMOOTH",
"318 1051 OFFCURVE",
"112 970 OFFCURVE",
"112 771 CURVE SMOOTH",
"112 585 OFFCURVE",
"262 521 OFFCURVE",
"412 474 CURVE SMOOTH",
"561 426 OFFCURVE",
"711 395 OFFCURVE",
"711 272 CURVE SMOOTH",
"711 141 OFFCURVE",
"589 109 OFFCURVE",
"484 109 CURVE SMOOTH",
"348 109 OFFCURVE",
"208 189 OFFCURVE",
"160 222 CURVE",
"116 94 LINE"
);
}
);
width = 967;
}
);
unicode = 0073;
},
{
glyphname = sacute;
layers = (
{
layerId = "F26D4BF5-BF3F-42E5-900E-6C8346FBF199";
name = Regular;
paths = (
{
closed = 1;
nodes = (
"208 -2 OFFCURVE",
"361 -23 OFFCURVE",
"483 -23 CURVE SMOOTH",
"670 -23 OFFCURVE",
"905 62 OFFCURVE",
"905 284 CURVE SMOOTH",
"905 651 OFFCURVE",
"288 545 OFFCURVE",
"288 774 CURVE SMOOTH",
"288 882 OFFCURVE",
"415 917 OFFCURVE",
"502 917 CURVE SMOOTH",
"599 917 OFFCURVE",
"708 900 OFFCURVE",
"790 844 CURVE",
"837 966 LINE",
"743 1039 OFFCURVE",
"608 1051 OFFCURVE",
"493 1051 CURVE SMOOTH",
"323 1051 OFFCURVE",
"117 970 OFFCURVE",
"117 771 CURVE SMOOTH",
"117 398 OFFCURVE",
"735 517 OFFCURVE",
"735 272 CURVE SMOOTH",
"735 141 OFFCURVE",
"594 109 OFFCURVE",
"489 109 CURVE SMOOTH",
"377 109 OFFCURVE",
"240 140 OFFCURVE",
"165 229 CURVE",
"121 94 LINE"
);
},
{
closed = 1;
nodes = (
"292 1172 LINE",
"422 1172 LINE",
"730 1492 LINE",
"518 1492 LINE"
);
}
);
width = 1007;
}
);
unicode = 015B;
},
{
glyphname = scaron;
layers = (
{
layerId = "F26D4BF5-BF3F-42E5-900E-6C8346FBF199";
name = Regular;
paths = (
{
closed = 1;
nodes = (
"208 -2 OFFCURVE",
"361 -23 OFFCURVE",
"483 -23 CURVE SMOOTH",
"670 -23 OFFCURVE",
"905 62 OFFCURVE",
"905 284 CURVE SMOOTH",
"905 651 OFFCURVE",
"288 545 OFFCURVE",
"288 774 CURVE SMOOTH",
"288 882 OFFCURVE",
"415 917 OFFCURVE",
"502 917 CURVE SMOOTH",
"599 917 OFFCURVE",
"708 900 OFFCURVE",
"790 844 CURVE",
"837 966 LINE",
"743 1039 OFFCURVE",
"608 1051 OFFCURVE",
"493 1051 CURVE SMOOTH",
"323 1051 OFFCURVE",
"117 970 OFFCURVE",
"117 771 CURVE SMOOTH",
"117 398 OFFCURVE",
"735 517 OFFCURVE",
"735 272 CURVE SMOOTH",
"735 141 OFFCURVE",
"594 109 OFFCURVE",
"489 109 CURVE SMOOTH",
"377 109 OFFCURVE",
"240 140 OFFCURVE",
"165 229 CURVE",
"121 94 LINE"
);
},
{
closed = 1;
nodes = (
"426 1170 LINE",
"582 1170 LINE",
"820 1493 LINE",
"666 1493 LINE",
"498 1278 LINE",
"334 1493 LINE",
"187 1493 LINE"
);
}
);
width = 1007;
}
);
unicode = 0161;
},
{
glyphname = scommaaccent;
layers = (
{
layerId = "F26D4BF5-BF3F-42E5-900E-6C8346FBF199";
name = Regular;
paths = (
{
closed = 1;
nodes = (
"208 -2 OFFCURVE",
"361 -23 OFFCURVE",
"483 -23 CURVE SMOOTH",
"670 -23 OFFCURVE",
"905 62 OFFCURVE",
"905 284 CURVE SMOOTH",
"905 651 OFFCURVE",
"288 545 OFFCURVE",
"288 774 CURVE SMOOTH",
"288 882 OFFCURVE",
"415 917 OFFCURVE",
"502 917 CURVE SMOOTH",
"599 917 OFFCURVE",
"708 900 OFFCURVE",
"790 844 CURVE",
"837 966 LINE",
"743 1039 OFFCURVE",
"608 1051 OFFCURVE",
"493 1051 CURVE SMOOTH",
"323 1051 OFFCURVE",
"117 970 OFFCURVE",
"117 771 CURVE SMOOTH",
"117 398 OFFCURVE",
"735 517 OFFCURVE",
"735 272 CURVE SMOOTH",
"735 141 OFFCURVE",
"594 109 OFFCURVE",
"489 109 CURVE SMOOTH",
"377 109 OFFCURVE",
"240 140 OFFCURVE",
"165 229 CURVE",
"121 94 LINE"
);
},
{
closed = 1;
nodes = (
"356 -625 LINE",
"487 -625 LINE",
"650 -162 LINE",
"463 -162 LINE"
);
}
);
width = 1007;
}
);
unicode = 0219;
},
{
glyphname = germandbls;
layers = (
{
layerId = "F26D4BF5-BF3F-42E5-900E-6C8346FBF199";
name = Regular;
paths = (
{
closed = 1;
nodes = (
"559 26 OFFCURVE",
"677 -23 OFFCURVE",
"792 -23 CURVE SMOOTH",
"987 -23 OFFCURVE",
"1173 120 OFFCURVE",
"1173 341 CURVE SMOOTH",
"1173 604 OFFCURVE",
"938 733 OFFCURVE",
"722 798 CURVE SMOOTH",
"702 804 OFFCURVE",
"693 810 OFFCURVE",
"693 816 CURVE SMOOTH",
"693 824 OFFCURVE",
"704 831 OFFCURVE",
"719 838 CURVE SMOOTH",
"819 884 OFFCURVE",
"1011 1023 OFFCURVE",
"1011 1192 CURVE SMOOTH",
"1011 1367 OFFCURVE",
"859 1511 OFFCURVE",
"604 1511 CURVE SMOOTH",
"331 1511 OFFCURVE",
"173 1337 OFFCURVE",
"174 1071 CURVE SMOOTH",
"176 0 LINE",
"341 0 LINE",
"341 257 OFFCURVE",
"337 779 OFFCURVE",
"337 1038 CURVE SMOOTH",
"337 1226 OFFCURVE",
"416 1382 OFFCURVE",
"603 1382 CURVE SMOOTH",
"735 1382 OFFCURVE",
"823 1310 OFFCURVE",
"823 1191 CURVE SMOOTH",
"823 1056 OFFCURVE",
"711 947 OFFCURVE",
"588 892 CURVE",
"572 756 LINE",
"782 636 OFFCURVE",
"986 525 OFFCURVE",
"986 322 CURVE SMOOTH",
"986 185 OFFCURVE",
"896 109 OFFCURVE",
"788 109 CURVE SMOOTH",
"708 109 OFFCURVE",
"614 151 OFFCURVE",
"536 243 CURVE",
"471 138 LINE"
);
}
);
width = 1257;
}
);
unicode = 00DF;
},
{
glyphname = t;
lastChange = "2012-12-23 15:54:38 +0000";
layers = (
{
anchors = (
{
name = bottom;
position = "{356, 0}";
},
{
name = center;
position = "{356, 0}";
}
);
layerId = "F26D4BF5-BF3F-42E5-900E-6C8346FBF199";
name = Regular;
paths = (
{
closed = 1;
nodes = (
"237 96 OFFCURVE",
"272 0 OFFCURVE",
"664 0 CURVE",
"664 128 LINE",
"404 128 OFFCURVE",
"402 168 OFFCURVE",
"402 329 CURVE SMOOTH",
"402 919 LINE",
"658 919 LINE",
"658 1026 LINE",
"402 1026 LINE",
"402 1345 LINE",
"242 1298 LINE",
"242 1026 LINE",
"34 1026 LINE",
"34 919 LINE",
"237 919 LINE",
"237 352 LINE SMOOTH"
);
}
);
width = 726;
}
);
unicode = 0074;
},
{
glyphname = tcommaaccent;
layers = (
{
layerId = "F26D4BF5-BF3F-42E5-900E-6C8346FBF199";
name = Regular;
paths = (
{
closed = 1;
nodes = (
"243 96 OFFCURVE",
"278 0 OFFCURVE",
"670 0 CURVE",
"670 128 LINE",
"410 128 OFFCURVE",
"408 168 OFFCURVE",
"408 329 CURVE SMOOTH",
"408 919 LINE",
"664 919 LINE",
"664 1026 LINE",
"408 1026 LINE",
"408 1345 LINE",
"248 1298 LINE",
"248 1026 LINE",
"40 1026 LINE",
"40 919 LINE",
"243 919 LINE",
"243 352 LINE SMOOTH"
);
},
{
closed = 1;
nodes = (
"166 -603 LINE",
"297 -603 LINE",
"460 -140 LINE",
"273 -140 LINE"
);
}
);
width = 729;
}
);
unicode = 021B;
},
{
glyphname = u;
lastChange = "2012-12-23 16:01:05 +0000";
layers = (
{
anchors = (
{
name = ogonek;
position = "{1128, 10}";
},
{
name = top;
position = "{626, 0}";
}
);
layerId = "F26D4BF5-BF3F-42E5-900E-6C8346FBF199";
name = Regular;
paths = (
{
closed = 1;
nodes = (
"164 199 OFFCURVE",
"250 -23 OFFCURVE",
"554 -23 CURVE SMOOTH",
"701 -23 OFFCURVE",
"823 30 OFFCURVE",
"900 135 CURVE",
"903 0 LINE",
"1073 0 LINE",
"1067 84 OFFCURVE",
"1065 158 OFFCURVE",
"1065 246 CURVE SMOOTH",
"1065 1026 LINE",
"900 1026 LINE",
"900 436 LINE SMOOTH",
"900 259 OFFCURVE",
"783 109 OFFCURVE",
"592 109 CURVE SMOOTH",
"416 109 OFFCURVE",
"328 209 OFFCURVE",
"329 399 CURVE SMOOTH",
"329 1026 LINE",
"164 1026 LINE",
"164 399 LINE SMOOTH"
);
}
);
width = 1249;
}
);
unicode = 0075;
},
{
glyphname = uacute;
layers = (
{
layerId = "F26D4BF5-BF3F-42E5-900E-6C8346FBF199";
name = Regular;
paths = (
{
closed = 1;
nodes = (
"157 199 OFFCURVE",
"236 -23 OFFCURVE",
"540 -23 CURVE SMOOTH",
"687 -23 OFFCURVE",
"801 30 OFFCURVE",
"878 135 CURVE",
"881 0 LINE",
"1051 0 LINE",
"1045 84 OFFCURVE",
"1043 158 OFFCURVE",
"1043 246 CURVE SMOOTH",
"1043 1026 LINE",
"878 1026 LINE",
"878 436 LINE SMOOTH",
"878 259 OFFCURVE",
"769 109 OFFCURVE",
"578 109 CURVE SMOOTH",
"402 109 OFFCURVE",
"321 209 OFFCURVE",
"322 399 CURVE SMOOTH",
"322 1026 LINE",
"157 1026 LINE",
"157 399 LINE SMOOTH"
);
},
{
closed = 1;
nodes = (
"389 1172 LINE",
"519 1172 LINE",
"827 1492 LINE",
"615 1492 LINE"
);
}
);
width = 1217;
}
);
unicode = 00FA;
},
{
glyphname = ucircumflex;
layers = (
{
layerId = "F26D4BF5-BF3F-42E5-900E-6C8346FBF199";
name = Regular;
paths = (
{
closed = 1;
nodes = (
"157 199 OFFCURVE",
"236 -23 OFFCURVE",
"540 -23 CURVE SMOOTH",
"687 -23 OFFCURVE",
"801 30 OFFCURVE",
"878 135 CURVE",
"881 0 LINE",
"1051 0 LINE",
"1045 84 OFFCURVE",
"1043 158 OFFCURVE",
"1043 246 CURVE SMOOTH",
"1043 1026 LINE",
"878 1026 LINE",
"878 436 LINE SMOOTH",
"878 259 OFFCURVE",
"769 109 OFFCURVE",
"578 109 CURVE SMOOTH",
"402 109 OFFCURVE",
"321 209 OFFCURVE",
"322 399 CURVE SMOOTH",
"322 1026 LINE",
"157 1026 LINE",
"157 399 LINE SMOOTH"
);
},
{
closed = 1;
nodes = (
"301 1170 LINE",
"427 1170 LINE",
"605 1386 LINE",
"783 1170 LINE",
"915 1170 LINE",
"686 1494 LINE",
"529 1494 LINE"
);
}
);
width = 1217;
}
);
unicode = 00FB;
},
{
glyphname = udieresis;
layers = (
{
layerId = "F26D4BF5-BF3F-42E5-900E-6C8346FBF199";
name = Regular;
paths = (
{
closed = 1;
nodes = (
"157 199 OFFCURVE",
"236 -23 OFFCURVE",
"540 -23 CURVE SMOOTH",
"687 -23 OFFCURVE",
"801 30 OFFCURVE",
"878 135 CURVE",
"881 0 LINE",
"1051 0 LINE",
"1045 84 OFFCURVE",
"1043 158 OFFCURVE",
"1043 246 CURVE SMOOTH",
"1043 1026 LINE",
"878 1026 LINE",
"878 436 LINE SMOOTH",
"878 259 OFFCURVE",
"769 109 OFFCURVE",
"578 109 CURVE SMOOTH",
"402 109 OFFCURVE",
"321 209 OFFCURVE",
"322 399 CURVE SMOOTH",
"322 1026 LINE",
"157 1026 LINE",
"157 399 LINE SMOOTH"
);
},
{
closed = 1;
nodes = (
"355 1183 LINE",
"519 1183 LINE",
"519 1346 LINE",
"355 1346 LINE"
);
},
{
closed = 1;
nodes = (
"687 1183 LINE",
"851 1183 LINE",
"851 1346 LINE",
"687 1346 LINE"
);
}
);
width = 1217;
}
);
unicode = 00FC;
},
{
glyphname = ugrave;
layers = (
{
layerId = "F26D4BF5-BF3F-42E5-900E-6C8346FBF199";
name = Regular;
paths = (
{
closed = 1;
nodes = (
"157 199 OFFCURVE",
"236 -23 OFFCURVE",
"540 -23 CURVE SMOOTH",
"687 -23 OFFCURVE",
"801 30 OFFCURVE",
"878 135 CURVE",
"881 0 LINE",
"1051 0 LINE",
"1045 84 OFFCURVE",
"1043 158 OFFCURVE",
"1043 246 CURVE SMOOTH",
"1043 1026 LINE",
"878 1026 LINE",
"878 436 LINE SMOOTH",
"878 259 OFFCURVE",
"769 109 OFFCURVE",
"578 109 CURVE SMOOTH",
"402 109 OFFCURVE",
"321 209 OFFCURVE",
"322 399 CURVE SMOOTH",
"322 1026 LINE",
"157 1026 LINE",
"157 399 LINE SMOOTH"
);
},
{
closed = 1;
nodes = (
"710 1172 LINE",
"839 1172 LINE",
"592 1492 LINE",
"378 1492 LINE"
);
}
);
width = 1217;
}
);
unicode = 00F9;
},
{
glyphname = uni0201;
layers = (
{
layerId = "F26D4BF5-BF3F-42E5-900E-6C8346FBF199";
name = Regular;
paths = (
{
closed = 1;
nodes = (
"89 267 OFFCURVE",
"240 -23 OFFCURVE",
"584 -23 CURVE SMOOTH",
"748 -23 OFFCURVE",
"881 58 OFFCURVE",
"945 144 CURVE",
"943 0 LINE",
"1108 0 LINE",
"1108 1026 LINE",
"949 1026 LINE",
"943 885 LINE",
"858 989 OFFCURVE",
"749 1051 OFFCURVE",
"582 1051 CURVE SMOOTH",
"251 1051 OFFCURVE",
"89 789 OFFCURVE",
"89 524 CURVE SMOOTH"
);
},
{
closed = 1;
nodes = (
"566 1174 LINE",
"686 1174 LINE",
"466 1487 LINE",
"290 1487 LINE"
);
},
{
closed = 1;
nodes = (
"943 261 OFFCURVE",
"785 109 OFFCURVE",
"601 109 CURVE SMOOTH",
"318 109 OFFCURVE",
"251 331 OFFCURVE",
"251 516 CURVE SMOOTH",
"251 704 OFFCURVE",
"352 917 OFFCURVE",
"595 917 CURVE SMOOTH",
"809 917 OFFCURVE",
"943 765 OFFCURVE",
"943 550 CURVE SMOOTH"
);
},
{
closed = 1;
nodes = (
"835 1174 LINE",
"953 1174 LINE",
"736 1487 LINE",
"560 1487 LINE"
);
}
);
width = 1244;
}
);
unicode = 0201;
},
{
glyphname = uni0203;
layers = (
{
layerId = "F26D4BF5-BF3F-42E5-900E-6C8346FBF199";
name = Regular;
paths = (
{
closed = 1;
nodes = (
"89 267 OFFCURVE",
"240 -23 OFFCURVE",
"584 -23 CURVE SMOOTH",
"748 -23 OFFCURVE",
"881 58 OFFCURVE",
"945 144 CURVE",
"943 0 LINE",
"1108 0 LINE",
"1108 1026 LINE",
"949 1026 LINE",
"943 885 LINE",
"858 989 OFFCURVE",
"749 1051 OFFCURVE",
"582 1051 CURVE SMOOTH",
"251 1051 OFFCURVE",
"89 789 OFFCURVE",
"89 524 CURVE SMOOTH"
);
},
{
closed = 1;
nodes = (
"459 1454 OFFCURVE",
"353 1379 OFFCURVE",
"340 1218 CURVE",
"427 1218 LINE",
"443 1314 OFFCURVE",
"529 1347 OFFCURVE",
"617 1347 CURVE SMOOTH",
"705 1347 OFFCURVE",
"796 1309 OFFCURVE",
"818 1218 CURVE",
"904 1218 LINE",
"892 1376 OFFCURVE",
"781 1454 OFFCURVE",
"624 1454 CURVE SMOOTH"
);
},
{
closed = 1;
nodes = (
"943 261 OFFCURVE",
"785 109 OFFCURVE",
"601 109 CURVE SMOOTH",
"318 109 OFFCURVE",
"251 331 OFFCURVE",
"251 516 CURVE SMOOTH",
"251 704 OFFCURVE",
"352 917 OFFCURVE",
"595 917 CURVE SMOOTH",
"809 917 OFFCURVE",
"943 765 OFFCURVE",
"943 550 CURVE SMOOTH"
);
}
);
width = 1244;
}
);
unicode = 0203;
},
{
glyphname = uni0205;
layers = (
{
layerId = "F26D4BF5-BF3F-42E5-900E-6C8346FBF199";
name = Regular;
paths = (
{
closed = 1;
nodes = (
"115 198 OFFCURVE",
"304 -23 OFFCURVE",
"626 -23 CURVE SMOOTH",
"795 -23 OFFCURVE",
"929 19 OFFCURVE",
"1039 115 CURVE",
"988 252 LINE",
"895 160 OFFCURVE",
"776 109 OFFCURVE",
"636 109 CURVE SMOOTH",
"425 109 OFFCURVE",
"294 247 OFFCURVE",
"290 492 CURVE",
"1077 492 LINE",
"1078 508 OFFCURVE",
"1079 530 OFFCURVE",
"1079 544 CURVE SMOOTH",
"1079 835 OFFCURVE",
"936 1051 OFFCURVE",
"620 1051 CURVE SMOOTH",
"301 1051 OFFCURVE",
"115 805 OFFCURVE",
"115 510 CURVE SMOOTH"
);
},
{
closed = 1;
nodes = (
"531 1174 LINE",
"651 1174 LINE",
"431 1487 LINE",
"255 1487 LINE"
);
},
{
closed = 1;
nodes = (
"800 1174 LINE",
"918 1174 LINE",
"701 1487 LINE",
"525 1487 LINE"
);
},
{
closed = 1;
nodes = (
"297 609 LINE",
"321 777 OFFCURVE",
"432 917 OFFCURVE",
"619 917 CURVE SMOOTH",
"793 917 OFFCURVE",
"893 796 OFFCURVE",
"906 609 CURVE"
);
}
);
width = 1173;
}
);
unicode = 0205;
},
{
glyphname = uni0207;
layers = (
{
layerId = "F26D4BF5-BF3F-42E5-900E-6C8346FBF199";
name = Regular;
paths = (
{
closed = 1;
nodes = (
"115 198 OFFCURVE",
"304 -23 OFFCURVE",
"626 -23 CURVE SMOOTH",
"795 -23 OFFCURVE",
"929 19 OFFCURVE",
"1039 115 CURVE",
"988 252 LINE",
"895 160 OFFCURVE",
"776 109 OFFCURVE",
"636 109 CURVE SMOOTH",
"425 109 OFFCURVE",
"294 247 OFFCURVE",
"290 492 CURVE",
"1077 492 LINE",
"1078 508 OFFCURVE",
"1079 530 OFFCURVE",
"1079 544 CURVE SMOOTH",
"1079 835 OFFCURVE",
"936 1051 OFFCURVE",
"620 1051 CURVE SMOOTH",
"301 1051 OFFCURVE",
"115 805 OFFCURVE",
"115 510 CURVE SMOOTH"
);
},
{
closed = 1;
nodes = (
"423 1454 OFFCURVE",
"317 1379 OFFCURVE",
"304 1218 CURVE",
"391 1218 LINE",
"407 1314 OFFCURVE",
"493 1347 OFFCURVE",
"581 1347 CURVE SMOOTH",
"669 1347 OFFCURVE",
"760 1309 OFFCURVE",
"782 1218 CURVE",
"868 1218 LINE",
"856 1376 OFFCURVE",
"745 1454 OFFCURVE",
"588 1454 CURVE SMOOTH"
);
},
{
closed = 1;
nodes = (
"297 609 LINE",
"321 777 OFFCURVE",
"432 917 OFFCURVE",
"619 917 CURVE SMOOTH",
"793 917 OFFCURVE",
"893 796 OFFCURVE",
"906 609 CURVE"
);
}
);
width = 1173;
}
);
unicode = 0207;
},
{
glyphname = uni0209;
layers = (
{
layerId = "F26D4BF5-BF3F-42E5-900E-6C8346FBF199";
name = Regular;
paths = (
{
closed = 1;
nodes = (
"196 1174 LINE",
"316 1174 LINE",
"96 1487 LINE",
"-80 1487 LINE"
);
},
{
closed = 1;
nodes = (
"168 0 LINE",
"333 0 LINE",
"332 1026 LINE",
"167 1026 LINE"
);
},
{
closed = 1;
nodes = (
"465 1174 LINE",
"583 1174 LINE",
"366 1487 LINE",
"190 1487 LINE"
);
}
);
width = 503;
}
);
unicode = 0209;
},
{
glyphname = uni020B;
layers = (
{
layerId = "F26D4BF5-BF3F-42E5-900E-6C8346FBF199";
name = Regular;
paths = (
{
closed = 1;
nodes = (
"89 1454 OFFCURVE",
"-17 1379 OFFCURVE",
"-30 1218 CURVE",
"57 1218 LINE",
"73 1314 OFFCURVE",
"159 1347 OFFCURVE",
"247 1347 CURVE SMOOTH",
"335 1347 OFFCURVE",
"426 1309 OFFCURVE",
"448 1218 CURVE",
"534 1218 LINE",
"522 1376 OFFCURVE",
"411 1454 OFFCURVE",
"254 1454 CURVE SMOOTH"
);
},
{
closed = 1;
nodes = (
"168 0 LINE",
"333 0 LINE",
"332 1026 LINE",
"167 1026 LINE"
);
}
);
width = 503;
}
);
unicode = 020B;
},
{
glyphname = uni020D;
layers = (
{
layerId = "F26D4BF5-BF3F-42E5-900E-6C8346FBF199";
name = Regular;
paths = (
{
closed = 1;
nodes = (
"563 1174 LINE",
"683 1174 LINE",
"463 1487 LINE",
"287 1487 LINE"
);
},
{
closed = 1;
nodes = (
"966 298 OFFCURVE",
"854 109 OFFCURVE",
"620 109 CURVE SMOOTH",
"383 109 OFFCURVE",
"263 297 OFFCURVE",
"263 509 CURVE SMOOTH",
"263 723 OFFCURVE",
"384 917 OFFCURVE",
"616 917 CURVE SMOOTH",
"856 917 OFFCURVE",
"966 731 OFFCURVE",
"966 511 CURVE SMOOTH"
);
},
{
closed = 1;
nodes = (
"90 215 OFFCURVE",
"276 -23 OFFCURVE",
"616 -23 CURVE SMOOTH",
"953 -23 OFFCURVE",
"1140 224 OFFCURVE",
"1140 513 CURVE SMOOTH",
"1140 812 OFFCURVE",
"964 1051 OFFCURVE",
"620 1051 CURVE SMOOTH",
"279 1051 OFFCURVE",
"90 808 OFFCURVE",
"90 511 CURVE SMOOTH"
);
},
{
closed = 1;
nodes = (
"832 1174 LINE",
"950 1174 LINE",
"733 1487 LINE",
"557 1487 LINE"
);
}
);
width = 1238;
}
);
unicode = 020D;
},
{
glyphname = uni020F;
layers = (
{
layerId = "F26D4BF5-BF3F-42E5-900E-6C8346FBF199";
name = Regular;
paths = (
{
closed = 1;
nodes = (
"456 1454 OFFCURVE",
"350 1379 OFFCURVE",
"337 1218 CURVE",
"424 1218 LINE",
"440 1314 OFFCURVE",
"526 1347 OFFCURVE",
"614 1347 CURVE SMOOTH",
"702 1347 OFFCURVE",
"793 1309 OFFCURVE",
"815 1218 CURVE",
"901 1218 LINE",
"889 1376 OFFCURVE",
"778 1454 OFFCURVE",
"621 1454 CURVE SMOOTH"
);
},
{
closed = 1;
nodes = (
"966 298 OFFCURVE",
"854 109 OFFCURVE",
"620 109 CURVE SMOOTH",
"383 109 OFFCURVE",
"263 297 OFFCURVE",
"263 509 CURVE SMOOTH",
"263 723 OFFCURVE",
"384 917 OFFCURVE",
"616 917 CURVE SMOOTH",
"856 917 OFFCURVE",
"966 731 OFFCURVE",
"966 511 CURVE SMOOTH"
);
},
{
closed = 1;
nodes = (
"90 215 OFFCURVE",
"276 -23 OFFCURVE",
"616 -23 CURVE SMOOTH",
"953 -23 OFFCURVE",
"1140 224 OFFCURVE",
"1140 513 CURVE SMOOTH",
"1140 812 OFFCURVE",
"964 1051 OFFCURVE",
"620 1051 CURVE SMOOTH",
"279 1051 OFFCURVE",
"90 808 OFFCURVE",
"90 511 CURVE SMOOTH"
);
}
);
width = 1238;
}
);
unicode = 020F;
},
{
glyphname = uni0211;
layers = (
{
layerId = "F26D4BF5-BF3F-42E5-900E-6C8346FBF199";
name = Regular;
paths = (
{
closed = 1;
nodes = (
"167 0 LINE",
"332 0 LINE",
"332 568 LINE SMOOTH",
"332 777 OFFCURVE",
"440 907 OFFCURVE",
"601 907 CURVE SMOOTH",
"646 907 OFFCURVE",
"688 898 OFFCURVE",
"716 883 CURVE",
"714 1038 LINE",
"681 1046 OFFCURVE",
"645 1050 OFFCURVE",
"606 1050 CURVE SMOOTH",
"489 1050 OFFCURVE",
"387 984 OFFCURVE",
"332 871 CURVE",
"326 1026 LINE",
"161 1026 LINE",
"164 949 OFFCURVE",
"167 862 OFFCURVE",
"167 779 CURVE SMOOTH"
);
},
{
closed = 1;
nodes = (
"313 1174 LINE",
"433 1174 LINE",
"213 1487 LINE",
"37 1487 LINE"
);
},
{
closed = 1;
nodes = (
"582 1174 LINE",
"700 1174 LINE",
"483 1487 LINE",
"307 1487 LINE"
);
}
);
width = 737;
}
);
unicode = 0211;
},
{
glyphname = uni0213;
layers = (
{
layerId = "F26D4BF5-BF3F-42E5-900E-6C8346FBF199";
name = Regular;
paths = (
{
closed = 1;
nodes = (
"167 0 LINE",
"332 0 LINE",
"332 568 LINE SMOOTH",
"332 777 OFFCURVE",
"440 907 OFFCURVE",
"601 907 CURVE SMOOTH",
"646 907 OFFCURVE",
"688 898 OFFCURVE",
"716 883 CURVE",
"714 1038 LINE",
"681 1046 OFFCURVE",
"645 1050 OFFCURVE",
"606 1050 CURVE SMOOTH",
"489 1050 OFFCURVE",
"387 984 OFFCURVE",
"332 871 CURVE",
"326 1026 LINE",
"161 1026 LINE",
"164 949 OFFCURVE",
"167 862 OFFCURVE",
"167 779 CURVE SMOOTH"
);
},
{
closed = 1;
nodes = (
"205 1454 OFFCURVE",
"99 1379 OFFCURVE",
"86 1218 CURVE",
"173 1218 LINE",
"189 1314 OFFCURVE",
"275 1347 OFFCURVE",
"363 1347 CURVE SMOOTH",
"451 1347 OFFCURVE",
"542 1309 OFFCURVE",
"564 1218 CURVE",
"650 1218 LINE",
"638 1376 OFFCURVE",
"527 1454 OFFCURVE",
"370 1454 CURVE SMOOTH"
);
}
);
width = 737;
}
);
unicode = 0213;
},
{
glyphname = uni0215;
layers = (
{
layerId = "F26D4BF5-BF3F-42E5-900E-6C8346FBF199";
name = Regular;
paths = (
{
closed = 1;
nodes = (
"157 199 OFFCURVE",
"236 -23 OFFCURVE",
"540 -23 CURVE SMOOTH",
"687 -23 OFFCURVE",
"801 30 OFFCURVE",
"878 135 CURVE",
"881 0 LINE",
"1051 0 LINE",
"1045 84 OFFCURVE",
"1043 158 OFFCURVE",
"1043 246 CURVE SMOOTH",
"1043 1026 LINE",
"878 1026 LINE",
"878 436 LINE SMOOTH",
"878 259 OFFCURVE",
"769 109 OFFCURVE",
"578 109 CURVE SMOOTH",
"402 109 OFFCURVE",
"321 209 OFFCURVE",
"322 399 CURVE SMOOTH",
"322 1026 LINE",
"157 1026 LINE",
"157 399 LINE SMOOTH"
);
},
{
closed = 1;
nodes = (
"553 1174 LINE",
"673 1174 LINE",
"453 1487 LINE",
"277 1487 LINE"
);
},
{
closed = 1;
nodes = (
"822 1174 LINE",
"940 1174 LINE",
"723 1487 LINE",
"547 1487 LINE"
);
}
);
width = 1217;
}
);
unicode = 0215;
},
{
glyphname = uni0217;
layers = (
{
layerId = "F26D4BF5-BF3F-42E5-900E-6C8346FBF199";
name = Regular;
paths = (
{
closed = 1;
nodes = (
"157 199 OFFCURVE",
"236 -23 OFFCURVE",
"540 -23 CURVE SMOOTH",
"687 -23 OFFCURVE",
"801 30 OFFCURVE",
"878 135 CURVE",
"881 0 LINE",
"1051 0 LINE",
"1045 84 OFFCURVE",
"1043 158 OFFCURVE",
"1043 246 CURVE SMOOTH",
"1043 1026 LINE",
"878 1026 LINE",
"878 436 LINE SMOOTH",
"878 259 OFFCURVE",
"769 109 OFFCURVE",
"578 109 CURVE SMOOTH",
"402 109 OFFCURVE",
"321 209 OFFCURVE",
"322 399 CURVE SMOOTH",
"322 1026 LINE",
"157 1026 LINE",
"157 399 LINE SMOOTH"
);
},
{
closed = 1;
nodes = (
"445 1454 OFFCURVE",
"339 1379 OFFCURVE",
"326 1218 CURVE",
"413 1218 LINE",
"429 1314 OFFCURVE",
"515 1347 OFFCURVE",
"603 1347 CURVE SMOOTH",
"691 1347 OFFCURVE",
"782 1309 OFFCURVE",
"804 1218 CURVE",
"890 1218 LINE",
"878 1376 OFFCURVE",
"767 1454 OFFCURVE",
"610 1454 CURVE SMOOTH"
);
}
);
width = 1217;
}
);
unicode = 0217;
},
{
glyphname = uni0219;
layers = (
{
layerId = "F26D4BF5-BF3F-42E5-900E-6C8346FBF199";
name = Regular;
paths = (
{
closed = 1;
nodes = (
"208 -2 OFFCURVE",
"361 -23 OFFCURVE",
"483 -23 CURVE SMOOTH",
"670 -23 OFFCURVE",
"905 62 OFFCURVE",
"905 284 CURVE SMOOTH",
"905 651 OFFCURVE",
"288 545 OFFCURVE",
"288 774 CURVE SMOOTH",
"288 882 OFFCURVE",
"415 917 OFFCURVE",
"502 917 CURVE SMOOTH",
"599 917 OFFCURVE",
"708 900 OFFCURVE",
"790 844 CURVE",
"837 966 LINE",
"743 1039 OFFCURVE",
"608 1051 OFFCURVE",
"493 1051 CURVE SMOOTH",
"323 1051 OFFCURVE",
"117 970 OFFCURVE",
"117 771 CURVE SMOOTH",
"117 398 OFFCURVE",
"735 517 OFFCURVE",
"735 272 CURVE SMOOTH",
"735 141 OFFCURVE",
"594 109 OFFCURVE",
"489 109 CURVE SMOOTH",
"377 109 OFFCURVE",
"240 140 OFFCURVE",
"165 229 CURVE",
"121 94 LINE"
);
},
{
closed = 1;
nodes = (
"217 -625 LINE",
"348 -625 LINE",
"511 -162 LINE",
"324 -162 LINE"
);
}
);
width = 729;
}
);
unicode = 0219;
},
{
glyphname = uni021B;
layers = (
{
layerId = "F26D4BF5-BF3F-42E5-900E-6C8346FBF199";
name = Regular;
paths = (
{
closed = 1;
nodes = (
"243 96 OFFCURVE",
"278 0 OFFCURVE",
"670 0 CURVE",
"670 128 LINE",
"410 128 OFFCURVE",
"408 168 OFFCURVE",
"408 329 CURVE SMOOTH",
"408 919 LINE",
"664 919 LINE",
"664 1026 LINE",
"408 1026 LINE",
"408 1345 LINE",
"248 1298 LINE",
"248 1026 LINE",
"40 1026 LINE",
"40 919 LINE",
"243 919 LINE",
"243 352 LINE SMOOTH"
);
},
{
closed = 1;
nodes = (
"217 -625 LINE",
"348 -625 LINE",
"511 -162 LINE",
"324 -162 LINE"
);
}
);
width = 729;
}
);
unicode = 021B;
},
{
glyphname = v;
layers = (
{
layerId = "F26D4BF5-BF3F-42E5-900E-6C8346FBF199";
name = Regular;
paths = (
{
closed = 1;
nodes = (
"427 0 LINE",
"595 0 LINE",
"1026 1026 LINE",
"849 1026 LINE",
"575 336 LINE SMOOTH",
"556 289 OFFCURVE",
"519 163 OFFCURVE",
"519 163 CURVE",
"519 163 OFFCURVE",
"480 291 OFFCURVE",
"461 336 CURVE SMOOTH",
"182 1026 LINE",
"0 1026 LINE"
);
}
);
width = 1026;
}
);
unicode = 0076;
},
{
glyphname = w;
layers = (
{
anchors = (
{
name = top;
position = "{796, 0}";
}
);
layerId = "F26D4BF5-BF3F-42E5-900E-6C8346FBF199";
name = Regular;
paths = (
{
closed = 1;
nodes = (
"347 0 LINE",
"509 0 LINE",
"758 702 LINE",
"805 831 LINE",
"850 699 LINE",
"1082 0 LINE",
"1242 0 LINE",
"1570 1026 LINE",
"1401 1026 LINE",
"1201 287 LINE SMOOTH",
"1190 252 OFFCURVE",
"1167 189 OFFCURVE",
"1167 189 CURVE",
"1167 189 OFFCURVE",
"1148 255 OFFCURVE",
"1138 286 CURVE SMOOTH",
"894 1026 LINE",
"728 1026 LINE",
"467 276 LINE SMOOTH",
"456 245 OFFCURVE",
"436 186 OFFCURVE",
"436 186 CURVE",
"436 186 OFFCURVE",
"417 253 OFFCURVE",
"407 284 CURVE SMOOTH",
"198 1026 LINE",
"22 1026 LINE"
);
}
);
width = 1592;
}
);
unicode = 0077;
},
{
glyphname = x;
layers = (
{
layerId = "F26D4BF5-BF3F-42E5-900E-6C8346FBF199";
name = Regular;
paths = (
{
closed = 1;
nodes = (
"532 428 LINE",
"831 0 LINE",
"1032 0 LINE",
"621 540 LINE",
"557 594 LINE",
"263 1026 LINE",
"60 1026 LINE",
"451 494 LINE"
);
},
{
closed = 1;
nodes = (
"41 0 LINE",
"231 0 LINE",
"1019 1026 LINE",
"840 1026 LINE"
);
}
);
width = 1073;
}
);
unicode = 0078;
},
{
glyphname = y;
lastChange = "2012-12-23 16:02:08 +0000";
layers = (
{
anchors = (
{
name = top;
position = "{517, 0}";
}
);
layerId = "F26D4BF5-BF3F-42E5-900E-6C8346FBF199";
name = Regular;
paths = (
{
closed = 1;
nodes = (
"174 -432 LINE",
"363 -397 OFFCURVE",
"504 -248 OFFCURVE",
"577 -72 CURVE SMOOTH",
"1031 1026 LINE",
"856 1026 LINE",
"515 171 LINE",
"183 1026 LINE",
"2 1026 LINE",
"427 6 LINE",
"410 -43 LINE SMOOTH",
"376 -140 OFFCURVE",
"330 -254 OFFCURVE",
"107 -314 CURVE"
);
}
);
width = 1033;
}
);
unicode = 0079;
},
{
glyphname = yacute;
layers = (
{
layerId = "F26D4BF5-BF3F-42E5-900E-6C8346FBF199";
name = Regular;
paths = (
{
closed = 1;
nodes = (
"201 -427 LINE",
"390 -392 OFFCURVE",
"519 -248 OFFCURVE",
"592 -72 CURVE SMOOTH",
"1046 1026 LINE",
"871 1026 LINE",
"530 171 LINE",
"198 1026 LINE",
"17 1026 LINE",
"442 6 LINE",
"425 -43 LINE SMOOTH",
"391 -140 OFFCURVE",
"332 -254 OFFCURVE",
"109 -314 CURVE"
);
},
{
closed = 1;
nodes = (
"315 1172 LINE",
"445 1172 LINE",
"753 1492 LINE",
"541 1492 LINE"
);
}
);
width = 1069;
}
);
unicode = 00FD;
},
{
glyphname = ydieresis;
layers = (
{
layerId = "F26D4BF5-BF3F-42E5-900E-6C8346FBF199";
name = Regular;
paths = (
{
closed = 1;
nodes = (
"201 -427 LINE",
"390 -392 OFFCURVE",
"519 -248 OFFCURVE",
"592 -72 CURVE SMOOTH",
"1046 1026 LINE",
"871 1026 LINE",
"530 171 LINE",
"198 1026 LINE",
"17 1026 LINE",
"442 6 LINE",
"425 -43 LINE SMOOTH",
"391 -140 OFFCURVE",
"332 -254 OFFCURVE",
"109 -314 CURVE"
);
},
{
closed = 1;
nodes = (
"282 1183 LINE",
"446 1183 LINE",
"446 1346 LINE",
"282 1346 LINE"
);
},
{
closed = 1;
nodes = (
"614 1183 LINE",
"778 1183 LINE",
"778 1346 LINE",
"614 1346 LINE"
);
}
);
width = 1069;
}
);
unicode = 00FF;
},
{
glyphname = z;
lastChange = "2012-12-23 16:03:02 +0000";
layers = (
{
anchors = (
{
name = top;
position = "{479, 0}";
}
);
layerId = "F26D4BF5-BF3F-42E5-900E-6C8346FBF199";
name = Regular;
paths = (
{
closed = 1;
nodes = (
"82 0 LINE",
"877 0 LINE",
"877 134 LINE",
"305 134 LINE",
"862 939 LINE",
"862 1026 LINE",
"84 1026 LINE",
"84 891 LINE",
"643 891 LINE",
"82 89 LINE"
);
}
);
width = 949;
}
);
unicode = 007A;
},
{
glyphname = zacute;
layers = (
{
layerId = "F26D4BF5-BF3F-42E5-900E-6C8346FBF199";
name = Regular;
paths = (
{
closed = 1;
nodes = (
"58 0 LINE",
"898 0 LINE",
"896 134 LINE",
"283 134 LINE",
"881 939 LINE",
"881 1026 LINE",
"84 1026 LINE",
"84 891 LINE",
"658 891 LINE",
"58 89 LINE"
);
},
{
closed = 1;
nodes = (
"259 1172 LINE",
"389 1172 LINE",
"697 1492 LINE",
"485 1492 LINE"
);
}
);
width = 958;
}
);
unicode = 017A;
},
{
glyphname = zcaron;
layers = (
{
layerId = "F26D4BF5-BF3F-42E5-900E-6C8346FBF199";
name = Regular;
paths = (
{
closed = 1;
nodes = (
"58 0 LINE",
"898 0 LINE",
"896 134 LINE",
"283 134 LINE",
"881 939 LINE",
"881 1026 LINE",
"84 1026 LINE",
"84 891 LINE",
"658 891 LINE",
"58 89 LINE"
);
},
{
closed = 1;
nodes = (
"401 1170 LINE",
"557 1170 LINE",
"795 1493 LINE",
"641 1493 LINE",
"473 1278 LINE",
"309 1493 LINE",
"162 1493 LINE"
);
}
);
width = 958;
}
);
unicode = 017E;
},
{
glyphname = zdotaccent;
layers = (
{
layerId = "F26D4BF5-BF3F-42E5-900E-6C8346FBF199";
name = Regular;
paths = (
{
closed = 1;
nodes = (
"58 0 LINE",
"898 0 LINE",
"896 134 LINE",
"283 134 LINE",
"881 939 LINE",
"881 1026 LINE",
"84 1026 LINE",
"84 891 LINE",
"658 891 LINE",
"58 89 LINE"
);
},
{
closed = 1;
nodes = (
"400 1246 LINE",
"558 1246 LINE",
"555 1409 LINE",
"398 1409 LINE"
);
}
);
width = 958;
}
);
unicode = 017C;
},
{
glyphname = fi;
layers = (
{
layerId = "F26D4BF5-BF3F-42E5-900E-6C8346FBF199";
name = Regular;
paths = (
{
closed = 1;
nodes = (
"246 0 LINE",
"411 0 LINE",
"411 919 LINE",
"869 919 LINE",
"869 0 LINE",
"1034 0 LINE",
"1034 1026 LINE",
"411 1026 LINE",
"412 1162 LINE SMOOTH",
"413 1303 OFFCURVE",
"437 1379 OFFCURVE",
"573 1379 CURVE SMOOTH",
"612 1379 OFFCURVE",
"656 1375 OFFCURVE",
"683 1364 CURVE",
"681 1493 LINE",
"632 1505 OFFCURVE",
"601 1514 OFFCURVE",
"545 1514 CURVE SMOOTH",
"318 1514 OFFCURVE",
"252 1354 OFFCURVE",
"248 1138 CURVE SMOOTH",
"246 1026 LINE",
"45 1026 LINE",
"45 919 LINE",
"246 919 LINE"
);
},
{
closed = 1;
nodes = (
"877 1307 LINE",
"1030 1307 LINE",
"1030 1462 LINE",
"877 1462 LINE"
);
}
);
width = 1205;
}
);
unicode = FB01;
},
{
glyphname = fl;
layers = (
{
layerId = "F26D4BF5-BF3F-42E5-900E-6C8346FBF199";
name = Regular;
paths = (
{
closed = 1;
nodes = (
"246 0 LINE",
"411 0 LINE",
"411 919 LINE",
"659 919 LINE",
"659 1026 LINE",
"411 1026 LINE",
"411 1163 LINE SMOOTH",
"411 1324 OFFCURVE",
"413 1364 OFFCURVE",
"673 1364 CURVE",
"673 1492 LINE",
"281 1492 OFFCURVE",
"246 1396 OFFCURVE",
"246 1140 CURVE SMOOTH",
"246 1026 LINE",
"45 1026 LINE",
"45 919 LINE",
"246 919 LINE"
);
},
{
closed = 1;
nodes = (
"870 0 LINE",
"1035 0 LINE",
"1035 1492 LINE",
"870 1492 LINE"
);
}
);
width = 1205;
}
);
unicode = FB02;
},
{
glyphname = Omega;
layers = (
{
anchors = (
{
name = topleft;
position = "{20, 0}";
}
);
layerId = "F26D4BF5-BF3F-42E5-900E-6C8346FBF199";
name = Regular;
paths = (
{
closed = 1;
nodes = (
"104 0 LINE",
"645 0 LINE",
"642 121 LINE",
"434 256 OFFCURVE",
"293 489 OFFCURVE",
"293 759 CURVE SMOOTH",
"293 1085 OFFCURVE",
"502 1309 OFFCURVE",
"804 1309 CURVE SMOOTH",
"1135 1309 OFFCURVE",
"1303 1050 OFFCURVE",
"1303 754 CURVE SMOOTH",
"1303 484 OFFCURVE",
"1153 258 OFFCURVE",
"949 121 CURVE",
"953 0 LINE",
"1474 0 LINE",
"1483 138 LINE",
"1155 137 LINE",
"1323 271 OFFCURVE",
"1481 487 OFFCURVE",
"1481 772 CURVE SMOOTH",
"1481 1156 OFFCURVE",
"1222 1449 OFFCURVE",
"809 1449 CURVE SMOOTH",
"411 1449 OFFCURVE",
"114 1186 OFFCURVE",
"114 776 CURVE SMOOTH",
"114 498 OFFCURVE",
"245 276 OFFCURVE",
"435 137 CURVE",
"93 138 LINE"
);
}
);
width = 1603;
}
);
unicode = 03A9;
},
{
glyphname = mu;
layers = (
{
layerId = "F26D4BF5-BF3F-42E5-900E-6C8346FBF199";
name = Regular;
paths = (
{
closed = 1;
nodes = (
"157 -202 LINE",
"322 -202 LINE",
"322 31 LINE",
"377 -2 OFFCURVE",
"448 -23 OFFCURVE",
"540 -23 CURVE SMOOTH",
"687 -23 OFFCURVE",
"801 30 OFFCURVE",
"878 135 CURVE",
"881 0 LINE",
"1051 0 LINE",
"1045 84 OFFCURVE",
"1043 158 OFFCURVE",
"1043 246 CURVE SMOOTH",
"1043 1026 LINE",
"878 1026 LINE",
"878 436 LINE SMOOTH",
"878 259 OFFCURVE",
"769 109 OFFCURVE",
"578 109 CURVE SMOOTH",
"401 109 OFFCURVE",
"322 209 OFFCURVE",
"322 399 CURVE SMOOTH",
"322 1026 LINE",
"157 1026 LINE"
);
}
);
width = 1217;
}
);
unicode = 03BC;
},
{
glyphname = pi;
layers = (
{
layerId = "F26D4BF5-BF3F-42E5-900E-6C8346FBF199";
name = Regular;
paths = (
{
closed = 1;
nodes = (
"851 73 OFFCURVE",
"905 -8 OFFCURVE",
"1061 -8 CURVE SMOOTH",
"1100 -8 OFFCURVE",
"1146 -3 OFFCURVE",
"1198 6 CURVE",
"1188 38 OFFCURVE",
"1185 69 OFFCURVE",
"1185 100 CURVE SMOOTH",
"1185 120 OFFCURVE",
"1187 140 OFFCURVE",
"1188 160 CURVE",
"1156 151 OFFCURVE",
"1129 147 OFFCURVE",
"1108 147 CURVE SMOOTH",
"1011 147 OFFCURVE",
"1010 228 OFFCURVE",
"1010 288 CURVE SMOOTH",
"1010 907 LINE",
"1214 907 LINE",
"1214 1040 LINE",
"369 1040 LINE SMOOTH",
"189 1040 OFFCURVE",
"84 1029 OFFCURVE",
"17 977 CURVE",
"34 846 LINE",
"108 885 OFFCURVE",
"191 904 OFFCURVE",
"311 907 CURVE",
"302 616 OFFCURVE",
"272 177 OFFCURVE",
"172 0 CURVE",
"341 0 LINE",
"434 169 OFFCURVE",
"480 907 OFFCURVE",
"480 907 CURVE",
"851 907 LINE",
"851 279 LINE SMOOTH"
);
}
);
width = 1288;
}
);
unicode = 03C0;
},
{
glyphname = ordfeminine;
layers = (
{
layerId = "F26D4BF5-BF3F-42E5-900E-6C8346FBF199";
name = Regular;
paths = (
{
closed = 1;
nodes = (
"66 849 OFFCURVE",
"173 768 OFFCURVE",
"317 768 CURVE SMOOTH",
"417 768 OFFCURVE",
"492 804 OFFCURVE",
"537 860 CURVE",
"543 786 LINE",
"674 786 LINE",
"668 869 OFFCURVE",
"667 899 OFFCURVE",
"667 914 CURVE SMOOTH",
"669 1235 LINE SMOOTH",
"669 1409 OFFCURVE",
"544 1477 OFFCURVE",
"394 1477 CURVE SMOOTH",
"269 1477 OFFCURVE",
"164 1441 OFFCURVE",
"111 1350 CURVE",
"178 1275 LINE",
"228 1350 OFFCURVE",
"307 1369 OFFCURVE",
"388 1369 CURVE SMOOTH",
"499 1369 OFFCURVE",
"536 1334 OFFCURVE",
"536 1219 CURVE SMOOTH",
"536 1217 OFFCURVE",
"536 1212 OFFCURVE",
"536 1211 CURVE",
"464 1202 OFFCURVE",
"384 1204 OFFCURVE",
"309 1192 CURVE SMOOTH",
"168 1170 OFFCURVE",
"66 1090 OFFCURVE",
"66 975 CURVE SMOOTH"
);
},
{
closed = 1;
nodes = (
"532 973 OFFCURVE",
"473 871 OFFCURVE",
"338 871 CURVE SMOOTH",
"258 871 OFFCURVE",
"202 903 OFFCURVE",
"202 977 CURVE SMOOTH",
"202 1106 OFFCURVE",
"396 1083 OFFCURVE",
"536 1110 CURVE",
"536 1085 LINE"
);
}
);
width = 745;
}
);
unicode = 00AA;
},
{
glyphname = ordmasculine;
layers = (
{
layerId = "F26D4BF5-BF3F-42E5-900E-6C8346FBF199";
name = Regular;
paths = (
{
closed = 1;
nodes = (
"636 988 OFFCURVE",
"558 875 OFFCURVE",
"416 875 CURVE SMOOTH",
"266 875 OFFCURVE",
"193 986 OFFCURVE",
"193 1123 CURVE SMOOTH",
"193 1256 OFFCURVE",
"272 1369 OFFCURVE",
"413 1369 CURVE SMOOTH",
"558 1369 OFFCURVE",
"636 1257 OFFCURVE",
"636 1119 CURVE SMOOTH"
);
},
{
closed = 1;
nodes = (
"53 923 OFFCURVE",
"177 767 OFFCURVE",
"416 767 CURVE SMOOTH",
"647 767 OFFCURVE",
"774 927 OFFCURVE",
"774 1121 CURVE SMOOTH",
"774 1320 OFFCURVE",
"649 1476 OFFCURVE",
"415 1476 CURVE SMOOTH",
"184 1476 OFFCURVE",
"53 1321 OFFCURVE",
"53 1124 CURVE SMOOTH"
);
}
);
width = 824;
}
);
unicode = 00BA;
},
{
glyphname = zero;
layers = (
{
layerId = "F26D4BF5-BF3F-42E5-900E-6C8346FBF199";
name = Regular;
paths = (
{
closed = 1;
nodes = (
"887 356 OFFCURVE",
"805 119 OFFCURVE",
"586 119 CURVE SMOOTH",
"311 119 OFFCURVE",
"278 449 OFFCURVE",
"278 727 CURVE SMOOTH",
"278 1071 OFFCURVE",
"364 1312 OFFCURVE",
"584 1312 CURVE SMOOTH",
"861 1312 OFFCURVE",
"887 964 OFFCURVE",
"887 693 CURVE SMOOTH"
);
},
{
closed = 1;
nodes = (
"100 284 OFFCURVE",
"223 -23 OFFCURVE",
"578 -23 CURVE SMOOTH",
"913 -23 OFFCURVE",
"1071 262 OFFCURVE",
"1071 694 CURVE SMOOTH",
"1071 1135 OFFCURVE",
"968 1453 OFFCURVE",
"588 1453 CURVE SMOOTH",
"256 1453 OFFCURVE",
"100 1172 OFFCURVE",
"100 715 CURVE SMOOTH"
);
}
);
width = 1171;
}
);
unicode = 0030;
},
{
glyphname = one;
layers = (
{
layerId = "F26D4BF5-BF3F-42E5-900E-6C8346FBF199";
name = Regular;
paths = (
{
closed = 1;
nodes = (
"293 0 LINE",
"969 0 LINE",
"969 143 LINE",
"724 143 LINE",
"724 1458 LINE",
"599 1458 LINE",
"510 1403 OFFCURVE",
"375 1325 OFFCURVE",
"273 1289 CURVE",
"273 1133 LINE",
"375 1173 OFFCURVE",
"463 1214 OFFCURVE",
"552 1265 CURVE",
"552 143 LINE",
"293 143 LINE"
);
}
);
width = 1171;
}
);
unicode = 0031;
},
{
glyphname = two;
layers = (
{
layerId = "F26D4BF5-BF3F-42E5-900E-6C8346FBF199";
name = Regular;
paths = (
{
closed = 1;
nodes = (
"189 0 LINE",
"1035 0 LINE",
"1035 145 LINE",
"395 145 LINE",
"686 414 OFFCURVE",
"1062 719 OFFCURVE",
"1032 1078 CURVE SMOOTH",
"1011 1326 OFFCURVE",
"843 1448 OFFCURVE",
"584 1448 CURVE SMOOTH",
"372 1448 OFFCURVE",
"197 1346 OFFCURVE",
"133 1175 CURVE",
"230 1078 LINE",
"291 1219 OFFCURVE",
"418 1307 OFFCURVE",
"573 1307 CURVE SMOOTH",
"745 1307 OFFCURVE",
"849 1210 OFFCURVE",
"857 1071 CURVE SMOOTH",
"877 741 OFFCURVE",
"470 414 OFFCURVE",
"188 147 CURVE"
);
}
);
width = 1171;
}
);
unicode = 0032;
},
{
glyphname = three;
layers = (
{
layerId = "F26D4BF5-BF3F-42E5-900E-6C8346FBF199";
name = Regular;
paths = (
{
closed = 1;
nodes = (
"145 60 OFFCURVE",
"312 -23 OFFCURVE",
"519 -23 CURVE SMOOTH",
"804 -23 OFFCURVE",
"1049 134 OFFCURVE",
"1049 391 CURVE SMOOTH",
"1049 582 OFFCURVE",
"917 707 OFFCURVE",
"721 746 CURVE",
"894 794 OFFCURVE",
"1010 910 OFFCURVE",
"1010 1086 CURVE SMOOTH",
"1010 1322 OFFCURVE",
"785 1449 OFFCURVE",
"550 1449 CURVE SMOOTH",
"352 1449 OFFCURVE",
"181 1361 OFFCURVE",
"121 1217 CURVE",
"219 1128 LINE",
"289 1247 OFFCURVE",
"403 1306 OFFCURVE",
"544 1306 CURVE SMOOTH",
"708 1306 OFFCURVE",
"826 1236 OFFCURVE",
"826 1085 CURVE SMOOTH",
"826 880 OFFCURVE",
"681 813 OFFCURVE",
"446 813 CURVE SMOOTH",
"427 813 OFFCURVE",
"403 813 OFFCURVE",
"383 814 CURVE",
"385 670 LINE",
"408 671 OFFCURVE",
"439 672 OFFCURVE",
"462 672 CURVE SMOOTH",
"714 672 OFFCURVE",
"871 595 OFFCURVE",
"871 394 CURVE SMOOTH",
"871 222 OFFCURVE",
"719 119 OFFCURVE",
"528 119 CURVE SMOOTH",
"373 119 OFFCURVE",
"241 192 OFFCURVE",
"191 324 CURVE",
"108 223 LINE"
);
}
);
width = 1171;
}
);
unicode = 0033;
},
{
glyphname = four;
layers = (
{
layerId = "F26D4BF5-BF3F-42E5-900E-6C8346FBF199";
name = Regular;
paths = (
{
closed = 1;
nodes = (
"726 0 LINE",
"898 0 LINE",
"898 351 LINE",
"1112 351 LINE",
"1112 483 LINE",
"898 483 LINE",
"898 1420 LINE",
"690 1420 LINE",
"25 475 LINE",
"25 351 LINE",
"726 351 LINE"
);
},
{
closed = 1;
nodes = (
"196 483 LINE",
"638 1146 LINE",
"726 1292 LINE",
"726 951 OFFCURVE",
"726 483 OFFCURVE",
"726 483 CURVE"
);
}
);
width = 1171;
}
);
unicode = 0034;
},
{
glyphname = five;
layers = (
{
layerId = "F26D4BF5-BF3F-42E5-900E-6C8346FBF199";
name = Regular;
paths = (
{
closed = 1;
nodes = (
"234 36 OFFCURVE",
"388 -23 OFFCURVE",
"548 -23 CURVE SMOOTH",
"871 -23 OFFCURVE",
"1068 183 OFFCURVE",
"1068 449 CURVE SMOOTH",
"1068 710 OFFCURVE",
"890 905 OFFCURVE",
"599 905 CURVE SMOOTH",
"507 905 OFFCURVE",
"428 883 OFFCURVE",
"352 839 CURVE",
"366 1280 LINE",
"994 1280 LINE",
"994 1425 LINE",
"203 1425 LINE",
"203 652 LINE",
"379 658 LINE",
"421 722 OFFCURVE",
"500 758 OFFCURVE",
"593 758 CURVE SMOOTH",
"786 758 OFFCURVE",
"891 622 OFFCURVE",
"891 452 CURVE SMOOTH",
"891 270 OFFCURVE",
"768 119 OFFCURVE",
"546 119 CURVE SMOOTH",
"422 119 OFFCURVE",
"307 174 OFFCURVE",
"228 289 CURVE",
"147 173 LINE"
);
}
);
width = 1171;
}
);
unicode = 0035;
},
{
glyphname = six;
layers = (
{
layerId = "F26D4BF5-BF3F-42E5-900E-6C8346FBF199";
name = Regular;
paths = (
{
closed = 1;
nodes = (
"112 262 OFFCURVE",
"263 -23 OFFCURVE",
"612 -23 CURVE SMOOTH",
"908 -23 OFFCURVE",
"1098 183 OFFCURVE",
"1098 454 CURVE SMOOTH",
"1098 736 OFFCURVE",
"921 914 OFFCURVE",
"645 914 CURVE SMOOTH",
"482 914 OFFCURVE",
"364 856 OFFCURVE",
"292 724 CURVE",
"292 742 OFFCURVE",
"292 761 OFFCURVE",
"293 779 CURVE SMOOTH",
"308 1055 OFFCURVE",
"414 1312 OFFCURVE",
"675 1312 CURVE SMOOTH",
"786 1312 OFFCURVE",
"878 1273 OFFCURVE",
"944 1201 CURVE",
"999 1313 LINE",
"935 1404 OFFCURVE",
"819 1453 OFFCURVE",
"674 1453 CURVE SMOOTH",
"294 1453 OFFCURVE",
"112 1102 OFFCURVE",
"112 678 CURVE SMOOTH"
);
},
{
closed = 1;
nodes = (
"920 261 OFFCURVE",
"801 119 OFFCURVE",
"614 119 CURVE SMOOTH",
"397 119 OFFCURVE",
"310 302 OFFCURVE",
"310 501 CURVE SMOOTH",
"310 663 OFFCURVE",
"442 778 OFFCURVE",
"620 778 CURVE SMOOTH",
"824 778 OFFCURVE",
"920 634 OFFCURVE",
"920 448 CURVE SMOOTH"
);
}
);
width = 1171;
}
);
unicode = 0036;
},
{
glyphname = seven;
layers = (
{
layerId = "F26D4BF5-BF3F-42E5-900E-6C8346FBF199";
name = Regular;
paths = (
{
closed = 1;
nodes = (
"293 0 LINE",
"479 0 LINE",
"1065 1329 LINE",
"1065 1420 LINE",
"95 1420 LINE",
"95 1275 LINE",
"873 1275 LINE"
);
}
);
width = 1171;
}
);
unicode = 0037;
},
{
glyphname = eight;
layers = (
{
layerId = "F26D4BF5-BF3F-42E5-900E-6C8346FBF199";
name = Regular;
paths = (
{
closed = 1;
nodes = (
"92 116 OFFCURVE",
"326 -23 OFFCURVE",
"586 -23 CURVE SMOOTH",
"846 -23 OFFCURVE",
"1080 116 OFFCURVE",
"1080 367 CURVE SMOOTH",
"1080 548 OFFCURVE",
"968 686 OFFCURVE",
"764 747 CURVE",
"940 803 OFFCURVE",
"1045 923 OFFCURVE",
"1045 1091 CURVE SMOOTH",
"1045 1319 OFFCURVE",
"841 1453 OFFCURVE",
"586 1453 CURVE SMOOTH",
"331 1453 OFFCURVE",
"127 1319 OFFCURVE",
"127 1091 CURVE SMOOTH",
"127 923 OFFCURVE",
"232 803 OFFCURVE",
"408 747 CURVE",
"204 686 OFFCURVE",
"92 548 OFFCURVE",
"92 367 CURVE SMOOTH"
);
},
{
closed = 1;
nodes = (
"903 210 OFFCURVE",
"771 119 OFFCURVE",
"586 119 CURVE SMOOTH",
"401 119 OFFCURVE",
"269 210 OFFCURVE",
"269 380 CURVE SMOOTH",
"269 541 OFFCURVE",
"401 637 OFFCURVE",
"586 673 CURVE",
"771 637 OFFCURVE",
"903 541 OFFCURVE",
"903 380 CURVE SMOOTH"
);
},
{
closed = 1;
nodes = (
"873 942 OFFCURVE",
"769 854 OFFCURVE",
"586 820 CURVE",
"403 854 OFFCURVE",
"299 942 OFFCURVE",
"299 1086 CURVE SMOOTH",
"299 1236 OFFCURVE",
"432 1317 OFFCURVE",
"586 1317 CURVE SMOOTH",
"740 1317 OFFCURVE",
"873 1236 OFFCURVE",
"873 1086 CURVE SMOOTH"
);
}
);
width = 1172;
}
);
unicode = 0038;
},
{
glyphname = nine;
layers = (
{
layerId = "F26D4BF5-BF3F-42E5-900E-6C8346FBF199";
name = Regular;
paths = (
{
closed = 1;
nodes = (
"253 29 OFFCURVE",
"370 -23 OFFCURVE",
"514 -23 CURVE SMOOTH",
"886 -23 OFFCURVE",
"1070 297 OFFCURVE",
"1070 758 CURVE SMOOTH",
"1070 1206 OFFCURVE",
"907 1453 OFFCURVE",
"581 1453 CURVE SMOOTH",
"279 1453 OFFCURVE",
"88 1249 OFFCURVE",
"88 984 CURVE SMOOTH",
"88 720 OFFCURVE",
"266 533 OFFCURVE",
"545 533 CURVE SMOOTH",
"710 533 OFFCURVE",
"819 588 OFFCURVE",
"895 707 CURVE",
"895 683 LINE",
"889 381 OFFCURVE",
"778 119 OFFCURVE",
"517 119 CURVE SMOOTH",
"402 119 OFFCURVE",
"307 159 OFFCURVE",
"237 234 CURVE",
"183 121 LINE"
);
},
{
closed = 1;
nodes = (
"883 787 OFFCURVE",
"752 673 OFFCURVE",
"572 673 CURVE SMOOTH",
"361 673 OFFCURVE",
"264 810 OFFCURVE",
"264 989 CURVE SMOOTH",
"264 1172 OFFCURVE",
"387 1312 OFFCURVE",
"573 1312 CURVE SMOOTH",
"783 1312 OFFCURVE",
"883 1142 OFFCURVE",
"883 971 CURVE SMOOTH"
);
}
);
width = 1171;
}
);
unicode = 0039;
},
{
glyphname = fraction;
layers = (
{
layerId = "F26D4BF5-BF3F-42E5-900E-6C8346FBF199";
name = Regular;
paths = (
{
closed = 1;
nodes = (
"-337 0 LINE",
"-186 0 LINE",
"717 1436 LINE",
"568 1436 LINE"
);
}
);
width = 368;
}
);
unicode = 2044;
},
{
glyphname = onehalf;
layers = (
{
layerId = "F26D4BF5-BF3F-42E5-900E-6C8346FBF199";
name = Regular;
paths = (
{
closed = 1;
nodes = (
"270 604 LINE",
"635 604 LINE",
"635 720 LINE",
"513 720 LINE",
"513 1427 LINE",
"408 1412 LINE",
"362 1384 OFFCURVE",
"310 1356 OFFCURVE",
"240 1333 CURVE",
"239 1203 LINE",
"292 1223 OFFCURVE",
"348 1248 OFFCURVE",
"391 1271 CURVE",
"391 1173 OFFCURVE",
"392 1095 OFFCURVE",
"392 723 CURVE",
"270 723 LINE"
);
},
{
closed = 1;
nodes = (
"1064 -26 LINE",
"1610 -26 LINE",
"1610 92 LINE",
"1246 92 LINE",
"1450 267 OFFCURVE",
"1611 411 OFFCURVE",
"1611 583 CURVE SMOOTH",
"1611 722 OFFCURVE",
"1498 810 OFFCURVE",
"1348 810 CURVE SMOOTH",
"1221 810 OFFCURVE",
"1118 748 OFFCURVE",
"1072 640 CURVE",
"1157 562 LINE",
"1195 643 OFFCURVE",
"1259 693 OFFCURVE",
"1342 693 CURVE SMOOTH",
"1429 693 OFFCURVE",
"1482 648 OFFCURVE",
"1482 581 CURVE SMOOTH",
"1482 470 OFFCURVE",
"1307 309 OFFCURVE",
"1064 85 CURVE"
);
},
{
closed = 1;
nodes = (
"379 0 LINE",
"530 0 LINE",
"1433 1436 LINE",
"1284 1436 LINE"
);
}
);
width = 1858;
}
);
unicode = 00BD;
},
{
glyphname = onequarter;
layers = (
{
layerId = "F26D4BF5-BF3F-42E5-900E-6C8346FBF199";
name = Regular;
paths = (
{
closed = 1;
nodes = (
"270 604 LINE",
"635 604 LINE",
"635 720 LINE",
"513 720 LINE",
"513 1427 LINE",
"408 1412 LINE",
"362 1384 OFFCURVE",
"310 1356 OFFCURVE",
"240 1333 CURVE",
"239 1203 LINE",
"292 1223 OFFCURVE",
"348 1248 OFFCURVE",
"391 1271 CURVE",
"391 1173 OFFCURVE",
"392 1095 OFFCURVE",
"392 723 CURVE",
"270 723 LINE"
);
},
{
closed = 1;
nodes = (
"1442 36 LINE",
"1562 36 LINE",
"1562 224 LINE",
"1683 224 LINE",
"1673 331 LINE",
"1564 331 LINE",
"1564 833 LINE",
"1430 833 LINE",
"1064 315 LINE",
"1064 224 LINE",
"1442 224 LINE"
);
},
{
closed = 1;
nodes = (
"437 0 LINE",
"588 0 LINE",
"1491 1436 LINE",
"1342 1436 LINE"
);
},
{
closed = 1;
nodes = (
"1203 331 LINE",
"1440 665 LINE",
"1440 611 OFFCURVE",
"1440 560 OFFCURVE",
"1440 331 CURVE"
);
}
);
width = 1986;
}
);
unicode = 00BC;
},
{
glyphname = threequarters;
layers = (
{
layerId = "F26D4BF5-BF3F-42E5-900E-6C8346FBF199";
name = Regular;
paths = (
{
closed = 1;
nodes = (
"243 619 OFFCURVE",
"329 586 OFFCURVE",
"425 586 CURVE SMOOTH",
"586 586 OFFCURVE",
"724 681 OFFCURVE",
"724 834 CURVE SMOOTH",
"724 930 OFFCURVE",
"675 996 OFFCURVE",
"596 1032 CURVE",
"665 1069 OFFCURVE",
"703 1135 OFFCURVE",
"703 1213 CURVE SMOOTH",
"703 1359 OFFCURVE",
"571 1441 OFFCURVE",
"431 1441 CURVE SMOOTH",
"336 1441 OFFCURVE",
"240 1400 OFFCURVE",
"179 1340 CURVE",
"237 1244 LINE",
"294 1291 OFFCURVE",
"358 1322 OFFCURVE",
"429 1322 CURVE SMOOTH",
"511 1322 OFFCURVE",
"570 1288 OFFCURVE",
"570 1210 CURVE SMOOTH",
"570 1119 OFFCURVE",
"488 1089 OFFCURVE",
"373 1089 CURVE SMOOTH",
"324 1089 LINE",
"324 970 LINE",
"324 970 OFFCURVE",
"375 971 OFFCURVE",
"380 971 CURVE SMOOTH",
"512 971 OFFCURVE",
"595 935 OFFCURVE",
"595 837 CURVE SMOOTH",
"595 751 OFFCURVE",
"516 701 OFFCURVE",
"420 701 CURVE SMOOTH",
"357 701 OFFCURVE",
"294 728 OFFCURVE",
"239 779 CURVE",
"179 683 LINE"
);
},
{
closed = 1;
nodes = (
"1411 40 LINE",
"1531 40 LINE",
"1531 228 LINE",
"1652 228 LINE",
"1642 335 LINE",
"1533 335 LINE",
"1533 837 LINE",
"1399 837 LINE",
"1033 319 LINE",
"1033 228 LINE",
"1411 228 LINE"
);
},
{
closed = 1;
nodes = (
"423 0 LINE",
"574 0 LINE",
"1477 1436 LINE",
"1328 1436 LINE"
);
},
{
closed = 1;
nodes = (
"1172 335 LINE",
"1409 669 LINE",
"1409 615 OFFCURVE",
"1409 564 OFFCURVE",
"1409 335 CURVE"
);
}
);
width = 1921;
}
);
unicode = 00BE;
},
{
glyphname = onesuperior;
layers = (
{
layerId = "F26D4BF5-BF3F-42E5-900E-6C8346FBF199";
name = Regular;
paths = (
{
closed = 1;
nodes = (
"270 604 LINE",
"635 604 LINE",
"635 720 LINE",
"513 720 LINE",
"513 1427 LINE",
"408 1412 LINE",
"362 1384 OFFCURVE",
"310 1356 OFFCURVE",
"240 1333 CURVE",
"239 1203 LINE",
"292 1223 OFFCURVE",
"348 1248 OFFCURVE",
"391 1271 CURVE",
"391 1173 OFFCURVE",
"392 1095 OFFCURVE",
"392 723 CURVE",
"270 723 LINE"
);
}
);
width = 1190;
}
);
unicode = 00B9;
},
{
glyphname = twosuperior;
layers = (
{
layerId = "F26D4BF5-BF3F-42E5-900E-6C8346FBF199";
name = Regular;
paths = (
{
closed = 1;
nodes = (
"283 604 LINE",
"829 604 LINE",
"829 722 LINE",
"465 722 LINE",
"669 897 OFFCURVE",
"830 1041 OFFCURVE",
"830 1213 CURVE SMOOTH",
"830 1352 OFFCURVE",
"717 1440 OFFCURVE",
"567 1440 CURVE SMOOTH",
"440 1440 OFFCURVE",
"337 1378 OFFCURVE",
"291 1270 CURVE",
"376 1192 LINE",
"414 1273 OFFCURVE",
"478 1323 OFFCURVE",
"561 1323 CURVE SMOOTH",
"648 1323 OFFCURVE",
"701 1278 OFFCURVE",
"701 1211 CURVE SMOOTH",
"701 1100 OFFCURVE",
"526 939 OFFCURVE",
"283 715 CURVE"
);
}
);
width = 1190;
}
);
unicode = 00B2;
},
{
glyphname = threesuperior;
layers = (
{
layerId = "F26D4BF5-BF3F-42E5-900E-6C8346FBF199";
name = Regular;
paths = (
{
closed = 1;
nodes = (
"299 619 OFFCURVE",
"385 586 OFFCURVE",
"481 586 CURVE SMOOTH",
"642 586 OFFCURVE",
"780 681 OFFCURVE",
"780 834 CURVE SMOOTH",
"780 930 OFFCURVE",
"731 996 OFFCURVE",
"652 1032 CURVE",
"721 1069 OFFCURVE",
"759 1135 OFFCURVE",
"759 1213 CURVE SMOOTH",
"759 1359 OFFCURVE",
"627 1441 OFFCURVE",
"487 1441 CURVE SMOOTH",
"392 1441 OFFCURVE",
"296 1400 OFFCURVE",
"235 1340 CURVE",
"293 1244 LINE",
"350 1291 OFFCURVE",
"414 1322 OFFCURVE",
"485 1322 CURVE SMOOTH",
"567 1322 OFFCURVE",
"626 1288 OFFCURVE",
"626 1210 CURVE SMOOTH",
"626 1119 OFFCURVE",
"544 1089 OFFCURVE",
"429 1089 CURVE SMOOTH",
"380 1089 LINE",
"380 970 LINE",
"380 970 OFFCURVE",
"431 971 OFFCURVE",
"436 971 CURVE SMOOTH",
"568 971 OFFCURVE",
"651 935 OFFCURVE",
"651 837 CURVE SMOOTH",
"651 751 OFFCURVE",
"572 701 OFFCURVE",
"476 701 CURVE SMOOTH",
"413 701 OFFCURVE",
"350 728 OFFCURVE",
"295 779 CURVE",
"235 683 LINE"
);
}
);
width = 1190;
}
);
unicode = 00B3;
},
{
glyphname = foursuperior;
layers = (
{
layerId = "F26D4BF5-BF3F-42E5-900E-6C8346FBF199";
name = Regular;
paths = (
{
closed = 1;
nodes = (
"356 615 LINE",
"476 615 LINE",
"476 803 LINE",
"597 803 LINE",
"587 910 LINE",
"478 910 LINE",
"478 1412 LINE",
"344 1412 LINE",
"-22 894 LINE",
"-22 803 LINE",
"356 803 LINE"
);
},
{
closed = 1;
nodes = (
"117 910 LINE",
"354 1244 LINE",
"354 1190 OFFCURVE",
"354 1139 OFFCURVE",
"354 910 CURVE"
);
}
);
width = 897;
}
);
unicode = 2074;
},
{
glyphname = asterisk;
layers = (
{
layerId = "F26D4BF5-BF3F-42E5-900E-6C8346FBF199";
name = Regular;
paths = (
{
closed = 1;
nodes = (
"730 737 LINE",
"856 810 LINE",
"655 1061 LINE",
"918 1149 LINE",
"854 1274 LINE",
"619 1153 LINE",
"633 1456 LINE",
"484 1456 LINE",
"518 1148 LINE",
"234 1271 LINE",
"213 1136 LINE",
"486 1058 LINE",
"295 820 LINE",
"419 745 LINE",
"572 1003 LINE"
);
}
);
width = 1131;
}
);
unicode = 002A;
},
{
glyphname = backslash;
layers = (
{
layerId = "F26D4BF5-BF3F-42E5-900E-6C8346FBF199";
name = Regular;
paths = (
{
closed = 1;
nodes = (
"566 0 LINE",
"732 0 LINE",
"187 1456 LINE",
"19 1456 LINE"
);
}
);
width = 751;
}
);
unicode = 005C;
},
{
glyphname = bullet;
layers = (
{
layerId = "F26D4BF5-BF3F-42E5-900E-6C8346FBF199";
name = Regular;
paths = (
{
closed = 1;
nodes = (
"157 526 OFFCURVE",
"306 385 OFFCURVE",
"493 385 CURVE SMOOTH",
"677 385 OFFCURVE",
"833 529 OFFCURVE",
"833 701 CURVE SMOOTH",
"833 870 OFFCURVE",
"682 1010 OFFCURVE",
"498 1010 CURVE SMOOTH",
"316 1010 OFFCURVE",
"157 866 OFFCURVE",
"157 694 CURVE SMOOTH"
);
}
);
width = 989;
}
);
unicode = 2022;
},
{
glyphname = colon;
layers = (
{
layerId = "F26D4BF5-BF3F-42E5-900E-6C8346FBF199";
name = Regular;
paths = (
{
closed = 1;
nodes = (
"164 0 LINE",
"381 0 LINE",
"381 210 LINE",
"164 210 LINE"
);
},
{
closed = 1;
nodes = (
"164 852 LINE",
"381 852 LINE",
"381 1062 LINE",
"164 1062 LINE"
);
}
);
width = 545;
}
);
unicode = 003A;
},
{
glyphname = comma;
layers = (
{
layerId = "F26D4BF5-BF3F-42E5-900E-6C8346FBF199";
name = Regular;
paths = (
{
closed = 1;
nodes = (
"68 -256 LINE",
"199 -256 LINE",
"362 207 LINE",
"175 207 LINE"
);
}
);
width = 502;
}
);
unicode = 002C;
},
{
glyphname = ellipsis;
layers = (
{
layerId = "F26D4BF5-BF3F-42E5-900E-6C8346FBF199";
name = Regular;
paths = (
{
closed = 1;
nodes = (
"159 -11 LINE",
"376 -11 LINE",
"376 199 LINE",
"159 199 LINE"
);
},
{
closed = 1;
nodes = (
"699 -11 LINE",
"916 -11 LINE",
"916 199 LINE",
"699 199 LINE"
);
},
{
closed = 1;
nodes = (
"1239 -11 LINE",
"1456 -11 LINE",
"1456 199 LINE",
"1239 199 LINE"
);
}
);
width = 1620;
}
);
unicode = 2026;
},
{
glyphname = exclam;
layers = (
{
layerId = "F26D4BF5-BF3F-42E5-900E-6C8346FBF199";
name = Regular;
paths = (
{
closed = 1;
nodes = (
"167 -23 LINE",
"381 -23 LINE",
"381 183 LINE",
"167 183 LINE"
);
},
{
closed = 1;
nodes = (
"228 373 LINE",
"323 373 LINE",
"373 1456 LINE",
"178 1456 LINE"
);
}
);
width = 548;
}
);
unicode = 0021;
},
{
glyphname = middot;
layers = (
{
layerId = "F26D4BF5-BF3F-42E5-900E-6C8346FBF199";
name = Regular;
paths = (
{
closed = 1;
nodes = (
"76 513 LINE",
"293 513 LINE",
"293 723 LINE",
"76 723 LINE"
);
}
);
width = 444;
}
);
unicode = 00B7;
},
{
glyphname = numbersign;
layers = (
{
layerId = "F26D4BF5-BF3F-42E5-900E-6C8346FBF199";
name = Regular;
paths = (
{
closed = 1;
nodes = (
"259 60 LINE",
"405 60 LINE",
"487 485 LINE",
"748 485 LINE",
"668 60 LINE",
"813 60 LINE",
"896 485 LINE",
"1156 485 LINE",
"1170 611 LINE",
"918 611 LINE",
"969 886 LINE",
"1219 886 LINE",
"1233 1010 LINE",
"992 1010 LINE",
"1070 1420 LINE",
"924 1420 LINE",
"848 1010 LINE",
"587 1010 LINE",
"664 1420 LINE",
"518 1420 LINE",
"439 1010 LINE",
"169 1010 LINE",
"156 886 LINE",
"417 886 LINE",
"400 793 OFFCURVE",
"383 704 OFFCURVE",
"367 611 CURVE",
"102 611 LINE",
"91 485 LINE",
"343 485 LINE"
);
},
{
closed = 1;
nodes = (
"509 611 LINE",
"563 886 LINE",
"824 886 LINE",
"773 611 LINE"
);
}
);
width = 1324;
}
);
unicode = 0023;
},
{
glyphname = period;
layers = (
{
layerId = "F26D4BF5-BF3F-42E5-900E-6C8346FBF199";
name = Regular;
paths = (
{
closed = 1;
nodes = (
"164 0 LINE",
"381 0 LINE",
"381 210 LINE",
"164 210 LINE"
);
}
);
width = 545;
}
);
unicode = 002E;
},
{
glyphname = periodcentered;
layers = (
{
layerId = "F26D4BF5-BF3F-42E5-900E-6C8346FBF199";
name = Regular;
paths = (
{
closed = 1;
nodes = (
"76 513 LINE",
"293 513 LINE",
"293 723 LINE",
"76 723 LINE"
);
}
);
width = 444;
}
);
unicode = 00B7;
},
{
glyphname = question;
layers = (
{
layerId = "F26D4BF5-BF3F-42E5-900E-6C8346FBF199";
name = Regular;
paths = (
{
closed = 1;
nodes = (
"286 475 OFFCURVE",
"296 368 OFFCURVE",
"296 368 CURVE",
"432 368 LINE",
"432 513 LINE SMOOTH",
"432 702 OFFCURVE",
"839 879 OFFCURVE",
"839 1133 CURVE SMOOTH",
"839 1364 OFFCURVE",
"649 1478 OFFCURVE",
"404 1478 CURVE SMOOTH",
"320 1478 OFFCURVE",
"218 1460 OFFCURVE",
"123 1413 CURVE",
"123 1267 LINE",
"203 1312 OFFCURVE",
"292 1336 OFFCURVE",
"384 1336 CURVE SMOOTH",
"531 1336 OFFCURVE",
"670 1276 OFFCURVE",
"670 1125 CURVE SMOOTH",
"670 885 OFFCURVE",
"286 773 OFFCURVE",
"286 530 CURVE SMOOTH"
);
},
{
closed = 1;
nodes = (
"269 -11 LINE",
"486 -11 LINE",
"486 199 LINE",
"269 199 LINE"
);
}
);
width = 879;
}
);
unicode = 003F;
},
{
glyphname = questiondown;
layers = (
{
layerId = "F26D4BF5-BF3F-42E5-900E-6C8346FBF199";
name = Regular;
paths = (
{
closed = 1;
nodes = (
"183 103 OFFCURVE",
"373 -11 OFFCURVE",
"618 -11 CURVE SMOOTH",
"702 -11 OFFCURVE",
"804 7 OFFCURVE",
"899 54 CURVE",
"899 200 LINE",
"819 155 OFFCURVE",
"730 131 OFFCURVE",
"638 131 CURVE SMOOTH",
"491 131 OFFCURVE",
"352 191 OFFCURVE",
"352 342 CURVE SMOOTH",
"352 582 OFFCURVE",
"736 694 OFFCURVE",
"736 937 CURVE SMOOTH",
"736 992 OFFCURVE",
"726 1099 OFFCURVE",
"726 1099 CURVE",
"562 1099 LINE",
"562 1099 OFFCURVE",
"579 1015 OFFCURVE",
"579 954 CURVE SMOOTH",
"579 765 OFFCURVE",
"183 588 OFFCURVE",
"183 334 CURVE SMOOTH"
);
},
{
closed = 1;
nodes = (
"536 1268 LINE",
"753 1268 LINE",
"753 1478 LINE",
"536 1478 LINE"
);
}
);
width = 1032;
}
);
unicode = 00BF;
},
{
glyphname = quotedbl;
layers = (
{
layerId = "F26D4BF5-BF3F-42E5-900E-6C8346FBF199";
name = Regular;
paths = (
{
closed = 1;
nodes = (
"230 959 LINE",
"311 959 LINE",
"357 1456 LINE",
"174 1456 LINE"
);
},
{
closed = 1;
nodes = (
"519 959 LINE",
"599 959 LINE",
"647 1456 LINE",
"463 1456 LINE"
);
}
);
width = 821;
}
);
unicode = 0022;
},
{
glyphname = quotesingle;
layers = (
{
layerId = "F26D4BF5-BF3F-42E5-900E-6C8346FBF199";
name = Regular;
paths = (
{
closed = 1;
nodes = (
"212 989 LINE",
"342 989 LINE",
"360 1451 LINE",
"176 1451 LINE"
);
}
);
width = 554;
}
);
unicode = 0027;
},
{
glyphname = semicolon;
layers = (
{
layerId = "F26D4BF5-BF3F-42E5-900E-6C8346FBF199";
name = Regular;
paths = (
{
closed = 1;
nodes = (
"100 -256 LINE",
"231 -256 LINE",
"394 207 LINE",
"206 207 LINE"
);
},
{
closed = 1;
nodes = (
"159 841 LINE",
"376 841 LINE",
"376 1051 LINE",
"159 1051 LINE"
);
}
);
width = 545;
}
);
unicode = 003B;
},
{
glyphname = slash;
layers = (
{
layerId = "F26D4BF5-BF3F-42E5-900E-6C8346FBF199";
name = Regular;
paths = (
{
closed = 1;
nodes = (
"34 -60 LINE",
"197 -60 LINE",
"718 1456 LINE",
"551 1456 LINE"
);
}
);
width = 752;
}
);
unicode = 002F;
},
{
glyphname = underscore;
layers = (
{
layerId = "F26D4BF5-BF3F-42E5-900E-6C8346FBF199";
name = Regular;
paths = (
{
closed = 1;
nodes = (
"-2 -273 LINE",
"920 -273 LINE",
"920 -145 LINE",
"-2 -145 LINE"
);
}
);
width = 918;
}
);
unicode = 005F;
},
{
glyphname = braceleft;
layers = (
{
layerId = "F26D4BF5-BF3F-42E5-900E-6C8346FBF199";
name = Regular;
paths = (
{
closed = 1;
nodes = (
"286 -176 OFFCURVE",
"482 -246 OFFCURVE",
"668 -254 CURVE",
"668 -128 LINE",
"543 -128 OFFCURVE",
"451 -75 OFFCURVE",
"451 112 CURVE",
"451 330 LINE",
"451 420 OFFCURVE",
"364 558 OFFCURVE",
"230 600 CURVE",
"348 632 OFFCURVE",
"451 716 OFFCURVE",
"451 873 CURVE SMOOTH",
"451 1162 LINE SMOOTH",
"451 1289 OFFCURVE",
"564 1327 OFFCURVE",
"668 1330 CURVE",
"668 1456 LINE",
"430 1456 OFFCURVE",
"286 1342 OFFCURVE",
"286 1148 CURVE",
"286 895 LINE",
"285 761 OFFCURVE",
"195 672 OFFCURVE",
"77 661 CURVE",
"77 539 LINE",
"231 522 OFFCURVE",
"286 403 OFFCURVE",
"286 279 CURVE",
"286 16 LINE SMOOTH"
);
}
);
width = 776;
}
);
unicode = 007B;
},
{
glyphname = braceright;
layers = (
{
layerId = "F26D4BF5-BF3F-42E5-900E-6C8346FBF199";
name = Regular;
paths = (
{
closed = 1;
nodes = (
"105 -254 LINE",
"343 -254 OFFCURVE",
"487 -140 OFFCURVE",
"487 54 CURVE",
"487 307 LINE",
"488 441 OFFCURVE",
"578 530 OFFCURVE",
"696 541 CURVE",
"696 663 LINE",
"542 680 OFFCURVE",
"487 799 OFFCURVE",
"487 923 CURVE",
"487 1186 LINE SMOOTH",
"487 1378 OFFCURVE",
"291 1448 OFFCURVE",
"105 1456 CURVE",
"105 1330 LINE",
"230 1330 OFFCURVE",
"322 1277 OFFCURVE",
"322 1090 CURVE",
"322 872 LINE",
"322 782 OFFCURVE",
"409 644 OFFCURVE",
"543 602 CURVE",
"425 570 OFFCURVE",
"322 486 OFFCURVE",
"322 329 CURVE SMOOTH",
"322 40 LINE SMOOTH",
"322 -87 OFFCURVE",
"209 -125 OFFCURVE",
"105 -128 CURVE"
);
}
);
width = 776;
}
);
unicode = 007D;
},
{
glyphname = bracketleft;
layers = (
{
layerId = "F26D4BF5-BF3F-42E5-900E-6C8346FBF199";
name = Regular;
paths = (
{
closed = 1;
nodes = (
"181 -254 LINE",
"589 -254 LINE",
"589 -132 LINE",
"344 -132 LINE",
"344 1334 LINE",
"588 1334 LINE",
"588 1456 LINE",
"181 1456 LINE"
);
}
);
width = 674;
}
);
unicode = 005B;
},
{
glyphname = bracketright;
layers = (
{
layerId = "F26D4BF5-BF3F-42E5-900E-6C8346FBF199";
name = Regular;
paths = (
{
closed = 1;
nodes = (
"138 -254 LINE",
"545 -254 LINE",
"545 1456 LINE",
"137 1456 LINE",
"137 1334 LINE",
"382 1334 LINE",
"382 -132 LINE",
"138 -132 LINE"
);
}
);
width = 674;
}
);
unicode = 005D;
},
{
glyphname = parenleft;
layers = (
{
layerId = "F26D4BF5-BF3F-42E5-900E-6C8346FBF199";
name = Regular;
paths = (
{
closed = 1;
nodes = (
"118 286 OFFCURVE",
"243 -17 OFFCURVE",
"398 -254 CURVE",
"544 -254 LINE",
"384 -3 OFFCURVE",
"281 315 OFFCURVE",
"281 595 CURVE SMOOTH",
"281 897 OFFCURVE",
"376 1190 OFFCURVE",
"543 1456 CURVE",
"395 1456 LINE",
"228 1192 OFFCURVE",
"118 911 OFFCURVE",
"118 592 CURVE SMOOTH"
);
}
);
width = 606;
}
);
unicode = 0028;
},
{
glyphname = parenright;
layers = (
{
layerId = "F26D4BF5-BF3F-42E5-900E-6C8346FBF199";
name = Regular;
paths = (
{
closed = 1;
nodes = (
"337 288 OFFCURVE",
"230 -10 OFFCURVE",
"78 -254 CURVE",
"227 -254 LINE",
"389 3 OFFCURVE",
"501 281 OFFCURVE",
"501 603 CURVE SMOOTH",
"501 909 OFFCURVE",
"379 1211 OFFCURVE",
"221 1456 CURVE",
"74 1456 LINE",
"242 1192 OFFCURVE",
"337 876 OFFCURVE",
"337 609 CURVE SMOOTH"
);
}
);
width = 606;
}
);
unicode = 0029;
},
{
glyphname = emdash;
layers = (
{
layerId = "F26D4BF5-BF3F-42E5-900E-6C8346FBF199";
name = Regular;
paths = (
{
closed = 1;
nodes = (
"-3 489 LINE",
"2160 489 LINE",
"2160 626 LINE",
"-3 626 LINE"
);
}
);
width = 2171;
}
);
unicode = 2014;
},
{
glyphname = endash;
layers = (
{
layerId = "F26D4BF5-BF3F-42E5-900E-6C8346FBF199";
name = Regular;
paths = (
{
closed = 1;
nodes = (
"-6 489 LINE",
"1084 489 LINE",
"1084 626 LINE",
"-6 626 LINE"
);
}
);
width = 1085;
}
);
unicode = 2013;
},
{
glyphname = hyphen;
layers = (
{
layerId = "F26D4BF5-BF3F-42E5-900E-6C8346FBF199";
name = Regular;
paths = (
{
closed = 1;
nodes = (
"64 489 LINE",
"595 489 LINE",
"595 626 LINE",
"64 626 LINE"
);
}
);
width = 659;
}
);
unicode = 002D;
},
{
glyphname = guillemotleft;
layers = (
{
layerId = "F26D4BF5-BF3F-42E5-900E-6C8346FBF199";
name = Regular;
paths = (
{
closed = 1;
nodes = (
"515 171 LINE",
"672 171 LINE",
"416 541 LINE",
"681 914 LINE",
"521 914 LINE",
"246 541 LINE"
);
},
{
closed = 1;
nodes = (
"885 171 LINE",
"1042 171 LINE",
"786 541 LINE",
"1049 914 LINE",
"890 914 LINE",
"616 541 LINE"
);
}
);
width = 1156;
}
);
unicode = 00AB;
},
{
glyphname = guillemotright;
layers = (
{
layerId = "F26D4BF5-BF3F-42E5-900E-6C8346FBF199";
name = Regular;
paths = (
{
closed = 1;
nodes = (
"165 171 LINE",
"325 171 LINE",
"600 542 LINE",
"330 914 LINE",
"172 914 LINE",
"430 542 LINE"
);
},
{
closed = 1;
nodes = (
"563 171 LINE",
"720 171 LINE",
"996 542 LINE",
"726 914 LINE",
"570 914 LINE",
"824 542 LINE"
);
}
);
width = 1156;
}
);
unicode = 00BB;
},
{
glyphname = guilsinglleft;
layers = (
{
layerId = "F26D4BF5-BF3F-42E5-900E-6C8346FBF199";
name = Regular;
paths = (
{
closed = 1;
nodes = (
"374 171 LINE",
"530 171 LINE",
"275 541 LINE",
"538 914 LINE",
"379 914 LINE",
"105 541 LINE"
);
}
);
width = 642;
}
);
unicode = 2039;
},
{
glyphname = guilsinglright;
layers = (
{
layerId = "F26D4BF5-BF3F-42E5-900E-6C8346FBF199";
name = Regular;
paths = (
{
closed = 1;
nodes = (
"103 171 LINE",
"260 171 LINE",
"537 542 LINE",
"266 914 LINE",
"111 914 LINE",
"365 542 LINE"
);
}
);
width = 642;
}
);
unicode = 203A;
},
{
glyphname = quotedblbase;
layers = (
{
layerId = "F26D4BF5-BF3F-42E5-900E-6C8346FBF199";
name = Regular;
paths = (
{
closed = 1;
nodes = (
"178 -238 LINE",
"312 -238 LINE",
"465 201 LINE",
"283 201 LINE"
);
},
{
closed = 1;
nodes = (
"537 -238 LINE",
"670 -238 LINE",
"824 201 LINE",
"641 201 LINE"
);
}
);
width = 1024;
}
);
unicode = 201E;
},
{
glyphname = quotedblleft;
layers = (
{
layerId = "F26D4BF5-BF3F-42E5-900E-6C8346FBF199";
name = Regular;
paths = (
{
closed = 1;
nodes = (
"179 1023 LINE",
"361 1023 LINE",
"466 1463 LINE",
"333 1463 LINE"
);
},
{
closed = 1;
nodes = (
"528 1023 LINE",
"711 1023 LINE",
"815 1463 LINE",
"682 1463 LINE"
);
}
);
width = 1024;
}
);
unicode = 201C;
},
{
glyphname = quotedblright;
layers = (
{
layerId = "F26D4BF5-BF3F-42E5-900E-6C8346FBF199";
name = Regular;
paths = (
{
closed = 1;
nodes = (
"208 1023 LINE",
"341 1023 LINE",
"494 1463 LINE",
"312 1463 LINE"
);
},
{
closed = 1;
nodes = (
"534 1023 LINE",
"667 1023 LINE",
"821 1463 LINE",
"639 1463 LINE"
);
}
);
width = 1024;
}
);
unicode = 201D;
},
{
glyphname = quoteleft;
layers = (
{
layerId = "F26D4BF5-BF3F-42E5-900E-6C8346FBF199";
name = Regular;
paths = (
{
closed = 1;
nodes = (
"738 976 LINE",
"868 976 LINE",
"602 1456 LINE",
"392 1456 LINE"
);
}
);
width = 1182;
}
);
unicode = 2018;
},
{
glyphname = quoteright;
layers = (
{
layerId = "F26D4BF5-BF3F-42E5-900E-6C8346FBF199";
name = Regular;
paths = (
{
closed = 1;
nodes = (
"171 823 LINE",
"283 823 LINE",
"317 1456 LINE",
"136 1456 LINE"
);
}
);
width = 453;
}
);
unicode = 2019;
},
{
glyphname = quotesinglbase;
layers = (
{
layerId = "F26D4BF5-BF3F-42E5-900E-6C8346FBF199";
name = Regular;
paths = (
{
closed = 1;
nodes = (
"125 -238 LINE",
"258 -238 LINE",
"412 201 LINE",
"231 201 LINE"
);
}
);
width = 553;
}
);
unicode = 201A;
},
{
glyphname = florin;
layers = (
{
layerId = "F26D4BF5-BF3F-42E5-900E-6C8346FBF199";
name = Regular;
paths = (
{
closed = 1;
nodes = (
"114 -327 OFFCURVE",
"149 -332 OFFCURVE",
"177 -332 CURVE SMOOTH",
"422 -332 OFFCURVE",
"488 -118 OFFCURVE",
"532 120 CURVE SMOOTH",
"659 803 LINE",
"872 803 LINE",
"882 943 LINE",
"682 943 LINE",
"718 1139 LINE SMOOTH",
"736 1238 OFFCURVE",
"775 1294 OFFCURVE",
"891 1294 CURVE SMOOTH",
"922 1294 OFFCURVE",
"960 1288 OFFCURVE",
"1000 1272 CURVE",
"1008 1417 LINE",
"959 1429 OFFCURVE",
"909 1436 OFFCURVE",
"865 1436 CURVE SMOOTH",
"632 1436 OFFCURVE",
"558 1273 OFFCURVE",
"534 1094 CURVE SMOOTH",
"511 943 LINE",
"342 943 LINE",
"332 803 LINE",
"487 803 LINE",
"436 541 OFFCURVE",
"398 262 OFFCURVE",
"334 7 CURVE SMOOTH",
"307 -102 OFFCURVE",
"261 -194 OFFCURVE",
"163 -194 CURVE SMOOTH",
"141 -194 OFFCURVE",
"115 -189 OFFCURVE",
"85 -178 CURVE",
"73 -316 LINE"
);
}
);
width = 1190;
}
);
unicode = 0192;
},
{
glyphname = cent;
lastChange = "2012-12-24 13:55:34 +0000";
layers = (
{
components = (
{
name = c;
transform = "{1, 0, 0, 1, 61, 249}";
}
);
layerId = "F26D4BF5-BF3F-42E5-900E-6C8346FBF199";
name = Regular;
paths = (
{
closed = 1;
nodes = (
"566 0 LINE",
"695 0 LINE",
"697 1456 LINE",
"568 1456 LINE"
);
}
);
width = 1171;
}
);
unicode = 00A2;
},
{
glyphname = currency;
layers = (
{
layerId = "F26D4BF5-BF3F-42E5-900E-6C8346FBF199";
name = Regular;
paths = (
{
closed = 1;
nodes = (
"354 40 LINE",
"450 287 LINE",
"482 278 OFFCURVE",
"519 274 OFFCURVE",
"560 274 CURVE SMOOTH",
"632 274 OFFCURVE",
"692 289 OFFCURVE",
"747 316 CURVE",
"896 40 LINE",
"931 56 LINE",
"780 336 LINE",
"882 403 OFFCURVE",
"938 529 OFFCURVE",
"938 663 CURVE SMOOTH",
"938 824 OFFCURVE",
"871 955 OFFCURVE",
"732 1018 CURVE",
"835 1285 LINE",
"793 1301 LINE",
"691 1034 LINE",
"651 1045 OFFCURVE",
"609 1051 OFFCURVE",
"566 1051 CURVE SMOOTH",
"507 1051 OFFCURVE",
"455 1042 OFFCURVE",
"411 1023 CURVE",
"261 1301 LINE",
"221 1285 LINE",
"372 1006 LINE",
"252 942 OFFCURVE",
"188 809 OFFCURVE",
"188 659 CURVE SMOOTH",
"188 495 OFFCURVE",
"266 357 OFFCURVE",
"410 301 CURVE",
"317 56 LINE"
);
},
{
closed = 1;
nodes = (
"844 495 OFFCURVE",
"751 345 OFFCURVE",
"565 345 CURVE SMOOTH",
"377 345 OFFCURVE",
"281 492 OFFCURVE",
"281 660 CURVE SMOOTH",
"281 827 OFFCURVE",
"377 979 OFFCURVE",
"561 979 CURVE SMOOTH",
"756 979 OFFCURVE",
"844 832 OFFCURVE",
"844 660 CURVE SMOOTH"
);
}
);
width = 1238;
}
);
unicode = 00A4;
},
{
glyphname = dollar;
layers = (
{
layerId = "F26D4BF5-BF3F-42E5-900E-6C8346FBF199";
name = Regular;
paths = (
{
closed = 1;
nodes = (
"525 -172 LINE",
"648 -172 LINE",
"648 93 LINE",
"867 112 OFFCURVE",
"1026 203 OFFCURVE",
"1026 415 CURVE SMOOTH",
"1026 621 OFFCURVE",
"835 704 OFFCURVE",
"648 774 CURVE",
"648 1229 LINE",
"793 1217 OFFCURVE",
"876 1152 OFFCURVE",
"903 1133 CURVE",
"983 1232 LINE",
"961 1253 OFFCURVE",
"864 1339 OFFCURVE",
"648 1354 CURVE",
"648 1575 LINE",
"525 1575 LINE",
"525 1355 LINE",
"295 1339 OFFCURVE",
"118 1229 OFFCURVE",
"118 1030 CURVE SMOOTH",
"118 815 OFFCURVE",
"329 738 OFFCURVE",
"525 667 CURVE",
"525 215 LINE",
"345 225 OFFCURVE",
"224 315 OFFCURVE",
"190 337 CURVE",
"113 228 LINE",
"130 211 OFFCURVE",
"277 99 OFFCURVE",
"525 90 CURVE"
);
},
{
closed = 1;
nodes = (
"525 822 LINE",
"398 873 OFFCURVE",
"286 931 OFFCURVE",
"286 1038 CURVE SMOOTH",
"286 1155 OFFCURVE",
"399 1211 OFFCURVE",
"525 1227 CURVE"
);
},
{
closed = 1;
nodes = (
"864 303 OFFCURVE",
"783 239 OFFCURVE",
"648 220 CURVE",
"648 620 LINE",
"763 572 OFFCURVE",
"864 514 OFFCURVE",
"864 412 CURVE SMOOTH"
);
}
);
width = 1125;
}
);
unicode = 0024;
},
{
glyphname = sterling;
layers = (
{
layerId = "F26D4BF5-BF3F-42E5-900E-6C8346FBF199";
name = Regular;
paths = (
{
closed = 1;
nodes = (
"95 0 LINE",
"1031 0 LINE",
"1029 141 LINE",
"320 141 LINE",
"440 214 OFFCURVE",
"448 391 OFFCURVE",
"448 569 CURVE SMOOTH",
"448 690 LINE",
"778 690 LINE",
"778 812 LINE",
"446 812 LINE",
"444 997 LINE SMOOTH",
"442 1213 OFFCURVE",
"514 1307 OFFCURVE",
"716 1307 CURVE SMOOTH",
"824 1307 OFFCURVE",
"880 1281 OFFCURVE",
"950 1237 CURVE",
"1002 1357 LINE",
"927 1415 OFFCURVE",
"853 1448 OFFCURVE",
"713 1448 CURVE SMOOTH",
"334 1448 OFFCURVE",
"276 1221 OFFCURVE",
"276 926 CURVE SMOOTH",
"276 812 LINE",
"94 812 LINE",
"94 690 LINE",
"277 690 LINE",
"277 440 LINE SMOOTH",
"277 258 OFFCURVE",
"186 191 OFFCURVE",
"94 138 CURVE"
);
}
);
width = 1171;
}
);
unicode = 00A3;
},
{
glyphname = yen;
layers = (
{
layerId = "F26D4BF5-BF3F-42E5-900E-6C8346FBF199";
name = Regular;
paths = (
{
closed = 1;
nodes = (
"495 0 LINE",
"667 0 LINE",
"667 283 LINE",
"977 283 LINE",
"977 415 LINE",
"667 415 LINE",
"667 582 LINE",
"977 582 LINE",
"977 716 LINE",
"738 716 LINE",
"1139 1456 LINE",
"948 1456 LINE",
"584 727 LINE",
"224 1456 LINE",
"33 1456 LINE",
"424 716 LINE",
"169 716 LINE",
"169 582 LINE",
"495 582 LINE",
"495 415 LINE",
"169 415 LINE",
"169 283 LINE",
"495 283 LINE"
);
}
);
width = 1172;
}
);
unicode = 00A5;
},
{
glyphname = approxequal;
layers = (
{
layerId = "F26D4BF5-BF3F-42E5-900E-6C8346FBF199";
name = Regular;
paths = (
{
closed = 1;
nodes = (
"268 261 LINE",
"297 361 OFFCURVE",
"352 426 OFFCURVE",
"449 426 CURVE SMOOTH",
"505 426 OFFCURVE",
"564 398 OFFCURVE",
"631 359 CURVE SMOOTH",
"741 295 OFFCURVE",
"818 262 OFFCURVE",
"898 262 CURVE SMOOTH",
"1061 262 OFFCURVE",
"1153 365 OFFCURVE",
"1187 518 CURVE",
"1077 546 LINE",
"1038 441 OFFCURVE",
"988 380 OFFCURVE",
"904 380 CURVE SMOOTH",
"847 380 OFFCURVE",
"781 420 OFFCURVE",
"707 460 CURVE SMOOTH",
"629 503 OFFCURVE",
"544 546 OFFCURVE",
"452 546 CURVE SMOOTH",
"299 546 OFFCURVE",
"193 448 OFFCURVE",
"154 289 CURVE"
);
},
{
closed = 1;
nodes = (
"267 634 LINE",
"296 734 OFFCURVE",
"350 799 OFFCURVE",
"446 799 CURVE SMOOTH",
"502 799 OFFCURVE",
"560 770 OFFCURVE",
"627 731 CURVE SMOOTH",
"736 667 OFFCURVE",
"812 634 OFFCURVE",
"896 634 CURVE SMOOTH",
"1058 634 OFFCURVE",
"1152 736 OFFCURVE",
"1185 890 CURVE",
"1075 918 LINE",
"1038 811 OFFCURVE",
"986 752 OFFCURVE",
"902 752 CURVE SMOOTH",
"850 752 OFFCURVE",
"788 778 OFFCURVE",
"700 830 CURVE SMOOTH",
"609 883 OFFCURVE",
"535 917 OFFCURVE",
"450 917 CURVE SMOOTH",
"296 917 OFFCURVE",
"188 819 OFFCURVE",
"152 661 CURVE"
);
}
);
width = 1351;
}
);
unicode = 2248;
},
{
glyphname = asciitilde;
layers = (
{
layerId = "F26D4BF5-BF3F-42E5-900E-6C8346FBF199";
name = Regular;
paths = (
{
closed = 1;
nodes = (
"187 385 LINE",
"209 479 OFFCURVE",
"254 541 OFFCURVE",
"357 541 CURVE SMOOTH",
"483 541 OFFCURVE",
"688 410 OFFCURVE",
"809 410 CURVE SMOOTH",
"967 410 OFFCURVE",
"1063 525 OFFCURVE",
"1099 684 CURVE",
"974 723 LINE",
"952 632 OFFCURVE",
"897 545 OFFCURVE",
"810 545 CURVE SMOOTH",
"715 545 OFFCURVE",
"505 675 OFFCURVE",
"354 675 CURVE SMOOTH",
"187 675 OFFCURVE",
"101 578 OFFCURVE",
"72 440 CURVE"
);
}
);
width = 1171;
}
);
unicode = 007E;
},
{
glyphname = divide;
layers = (
{
layerId = "F26D4BF5-BF3F-42E5-900E-6C8346FBF199";
name = Regular;
paths = (
{
closed = 1;
nodes = (
"619 21 LINE",
"836 21 LINE",
"836 231 LINE",
"619 231 LINE"
);
},
{
closed = 1;
nodes = (
"200 485 LINE",
"1246 485 LINE",
"1245 624 LINE",
"198 624 LINE"
);
},
{
closed = 1;
nodes = (
"619 873 LINE",
"836 873 LINE",
"836 1083 LINE",
"619 1083 LINE"
);
}
);
width = 1458;
}
);
unicode = 00F7;
},
{
glyphname = equal;
layers = (
{
layerId = "F26D4BF5-BF3F-42E5-900E-6C8346FBF199";
name = Regular;
paths = (
{
closed = 1;
nodes = (
"122 283 LINE",
"1051 283 LINE",
"1051 420 LINE",
"122 420 LINE"
);
},
{
closed = 1;
nodes = (
"121 689 LINE",
"1050 689 LINE",
"1050 827 LINE",
"121 827 LINE"
);
}
);
width = 1172;
}
);
unicode = 003D;
},
{
glyphname = greater;
layers = (
{
layerId = "F26D4BF5-BF3F-42E5-900E-6C8346FBF199";
name = Regular;
paths = (
{
closed = 1;
nodes = (
"215 58 LINE",
"1115 505 LINE",
"1115 594 LINE",
"220 1078 LINE",
"220 926 LINE",
"934 555 LINE",
"215 212 LINE"
);
}
);
width = 1171;
}
);
unicode = 003E;
},
{
glyphname = greaterequal;
layers = (
{
layerId = "F26D4BF5-BF3F-42E5-900E-6C8346FBF199";
name = Regular;
paths = (
{
closed = 1;
nodes = (
"192 218 LINE",
"1152 668 LINE",
"1152 748 LINE",
"196 1221 LINE",
"196 1081 LINE",
"974 707 LINE",
"192 359 LINE"
);
},
{
closed = 1;
nodes = (
"161 9 LINE",
"1171 9 LINE",
"1171 131 LINE",
"161 131 LINE"
);
}
);
width = 1350;
}
);
unicode = 2265;
},
{
glyphname = infinity;
layers = (
{
layerId = "F26D4BF5-BF3F-42E5-900E-6C8346FBF199";
name = Regular;
paths = (
{
closed = 1;
nodes = (
"96 409 OFFCURVE",
"244 236 OFFCURVE",
"460 236 CURVE SMOOTH",
"620 236 OFFCURVE",
"746 341 OFFCURVE",
"860 488 CURVE",
"992 320 OFFCURVE",
"1112 236 OFFCURVE",
"1260 236 CURVE SMOOTH",
"1453 236 OFFCURVE",
"1621 382 OFFCURVE",
"1621 595 CURVE SMOOTH",
"1621 798 OFFCURVE",
"1481 944 OFFCURVE",
"1262 944 CURVE SMOOTH",
"1094 944 OFFCURVE",
"973 840 OFFCURVE",
"862 692 CURVE",
"746 844 OFFCURVE",
"618 944 OFFCURVE",
"455 944 CURVE SMOOTH",
"266 944 OFFCURVE",
"96 797 OFFCURVE",
"96 612 CURVE SMOOTH"
);
},
{
closed = 1;
nodes = (
"699 460 OFFCURVE",
"592 355 OFFCURVE",
"463 355 CURVE SMOOTH",
"320 355 OFFCURVE",
"226 471 OFFCURVE",
"226 592 CURVE SMOOTH",
"226 720 OFFCURVE",
"310 829 OFFCURVE",
"453 829 CURVE SMOOTH",
"592 829 OFFCURVE",
"699 724 OFFCURVE",
"791 589 CURVE"
);
},
{
closed = 1;
nodes = (
"1482 470 OFFCURVE",
"1413 355 OFFCURVE",
"1263 355 CURVE SMOOTH",
"1140 355 OFFCURVE",
"1048 437 OFFCURVE",
"929 592 CURVE",
"1012 714 OFFCURVE",
"1126 829 OFFCURVE",
"1258 829 CURVE SMOOTH",
"1390 829 OFFCURVE",
"1482 732 OFFCURVE",
"1482 618 CURVE SMOOTH"
);
}
);
width = 1724;
}
);
unicode = 221E;
},
{
glyphname = integral;
layers = (
{
layerId = "F26D4BF5-BF3F-42E5-900E-6C8346FBF199";
name = Regular;
paths = (
{
closed = 1;
nodes = (
"173 -390 OFFCURVE",
"204 -399 OFFCURVE",
"260 -399 CURVE SMOOTH",
"487 -399 OFFCURVE",
"557 -239 OFFCURVE",
"557 -23 CURVE SMOOTH",
"557 1279 LINE SMOOTH",
"557 1420 OFFCURVE",
"584 1496 OFFCURVE",
"720 1496 CURVE SMOOTH",
"759 1496 OFFCURVE",
"803 1492 OFFCURVE",
"830 1481 CURVE",
"828 1610 LINE",
"779 1622 OFFCURVE",
"748 1631 OFFCURVE",
"692 1631 CURVE SMOOTH",
"465 1631 OFFCURVE",
"393 1471 OFFCURVE",
"393 1255 CURVE SMOOTH",
"393 -47 LINE SMOOTH",
"393 -188 OFFCURVE",
"368 -264 OFFCURVE",
"232 -264 CURVE SMOOTH",
"193 -264 OFFCURVE",
"149 -260 OFFCURVE",
"122 -249 CURVE",
"124 -378 LINE"
);
}
);
width = 702;
}
);
unicode = 222B;
},
{
glyphname = less;
layers = (
{
layerId = "F26D4BF5-BF3F-42E5-900E-6C8346FBF199";
name = Regular;
paths = (
{
closed = 1;
nodes = (
"989 58 LINE",
"989 210 LINE",
"275 581 LINE",
"994 924 LINE",
"994 1078 LINE",
"94 631 LINE",
"94 542 LINE"
);
}
);
width = 1171;
}
);
unicode = 003C;
},
{
glyphname = lessequal;
layers = (
{
layerId = "F26D4BF5-BF3F-42E5-900E-6C8346FBF199";
name = Regular;
paths = (
{
closed = 1;
nodes = (
"1146 216 LINE",
"1146 357 LINE",
"372 710 LINE",
"1146 1079 LINE",
"1146 1219 LINE",
"197 747 LINE",
"197 666 LINE"
);
},
{
closed = 1;
nodes = (
"161 9 LINE",
"1175 9 LINE",
"1175 131 LINE",
"161 131 LINE"
);
}
);
width = 1351;
}
);
unicode = 2264;
},
{
glyphname = logicalnot;
layers = (
{
layerId = "F26D4BF5-BF3F-42E5-900E-6C8346FBF199";
name = Regular;
paths = (
{
closed = 1;
nodes = (
"1098 238 LINE",
"1248 238 LINE",
"1248 798 LINE",
"200 798 LINE",
"200 659 LINE",
"1098 659 LINE"
);
}
);
width = 1458;
}
);
unicode = 00AC;
},
{
glyphname = minus;
layers = (
{
layerId = "F26D4BF5-BF3F-42E5-900E-6C8346FBF199";
name = Regular;
paths = (
{
closed = 1;
nodes = (
"198 496 LINE",
"1247 496 LINE",
"1247 633 LINE",
"198 633 LINE"
);
}
);
width = 1458;
}
);
unicode = 2212;
},
{
glyphname = multiply;
layers = (
{
layerId = "F26D4BF5-BF3F-42E5-900E-6C8346FBF199";
name = Regular;
paths = (
{
closed = 1;
nodes = (
"425 154 LINE",
"722 450 LINE",
"1018 154 LINE",
"1122 258 LINE",
"825 554 LINE",
"1122 850 LINE",
"1018 954 LINE",
"722 657 LINE",
"425 954 LINE",
"322 851 LINE",
"618 554 LINE",
"322 257 LINE"
);
}
);
width = 1458;
}
);
unicode = 00D7;
},
{
glyphname = notequal;
layers = (
{
layerId = "F26D4BF5-BF3F-42E5-900E-6C8346FBF199";
name = Regular;
paths = (
{
closed = 1;
nodes = (
"457 46 LINE",
"597 325 LINE",
"1182 325 LINE",
"1173 445 LINE",
"656 445 LINE",
"804 728 LINE",
"1182 728 LINE",
"1172 849 LINE",
"862 849 LINE",
"989 1105 LINE",
"864 1123 LINE",
"728 849 LINE",
"160 849 LINE",
"170 728 LINE",
"671 728 LINE",
"524 445 LINE",
"161 445 LINE",
"170 325 LINE",
"463 325 LINE",
"335 64 LINE"
);
}
);
width = 1351;
}
);
unicode = 2260;
},
{
glyphname = partialdiff;
layers = (
{
layerId = "F26D4BF5-BF3F-42E5-900E-6C8346FBF199";
name = Regular;
paths = (
{
closed = 1;
nodes = (
"83 170 OFFCURVE",
"222 -24 OFFCURVE",
"492 -24 CURVE SMOOTH",
"886 -24 OFFCURVE",
"1074 419 OFFCURVE",
"1074 852 CURVE SMOOTH",
"1074 1321 OFFCURVE",
"888 1533 OFFCURVE",
"588 1533 CURVE SMOOTH",
"472 1533 OFFCURVE",
"360 1495 OFFCURVE",
"280 1442 CURVE",
"291 1304 LINE",
"367 1356 OFFCURVE",
"469 1399 OFFCURVE",
"565 1399 CURVE SMOOTH",
"775 1399 OFFCURVE",
"903 1215 OFFCURVE",
"903 911 CURVE SMOOTH",
"903 887 OFFCURVE",
"902 855 OFFCURVE",
"902 836 CURVE",
"824 940 OFFCURVE",
"717 1002 OFFCURVE",
"586 1002 CURVE SMOOTH",
"307 1002 OFFCURVE",
"83 748 OFFCURVE",
"83 420 CURVE SMOOTH"
);
},
{
closed = 1;
nodes = (
"850 356 OFFCURVE",
"703 111 OFFCURVE",
"495 111 CURVE SMOOTH",
"346 111 OFFCURVE",
"252 232 OFFCURVE",
"252 417 CURVE SMOOTH",
"252 660 OFFCURVE",
"408 869 OFFCURVE",
"609 869 CURVE SMOOTH",
"747 869 OFFCURVE",
"846 768 OFFCURVE",
"885 655 CURVE"
);
}
);
width = 1167;
}
);
unicode = 2202;
},
